<svg width="46" height="45" viewBox="0 0 46 45" fill="none" xmlns="http://www.w3.org/2000/svg">
<path d="M36.125 11.25H30.5V9.375C30.5 8.38044 30.1049 7.42661 29.4016 6.72335C28.6984 6.02009 27.7446 5.625 26.75 5.625H19.25C18.2554 5.625 17.3016 6.02009 16.5983 6.72335C15.8951 7.42661 15.5 8.38044 15.5 9.375V11.25H9.875C8.38316 11.25 6.95242 11.8426 5.89752 12.8975C4.84263 13.9524 4.25 15.3832 4.25 16.875V33.75C4.25 35.2418 4.84263 36.6726 5.89752 37.7275C6.95242 38.7824 8.38316 39.375 9.875 39.375H36.125C37.6168 39.375 39.0476 38.7824 40.1025 37.7275C41.1574 36.6726 41.75 35.2418 41.75 33.75V16.875C41.75 15.3832 41.1574 13.9524 40.1025 12.8975C39.0476 11.8426 37.6168 11.25 36.125 11.25ZM19.25 9.375H26.75V11.25H19.25V9.375ZM38 33.75C38 34.2473 37.8025 34.7242 37.4508 35.0758C37.0992 35.4275 36.6223 35.625 36.125 35.625H9.875C9.37772 35.625 8.90081 35.4275 8.54917 35.0758C8.19754 34.7242 8 34.2473 8 33.75V23.2313L16.775 26.25C16.9741 26.2768 17.1759 26.2768 17.375 26.25H28.625C28.8283 26.246 29.0302 26.2145 29.225 26.1562L38 23.2313V33.75ZM38 19.275L28.325 22.5H17.675L8 19.275V16.875C8 16.3777 8.19754 15.9008 8.54917 15.5492C8.90081 15.1975 9.37772 15 9.875 15H36.125C36.6223 15 37.0992 15.1975 37.4508 15.5492C37.8025 15.9008 38 16.3777 38 16.875V19.275Z" fill="#082457"/>
</svg>
