<svg width="40" height="40" viewBox="0 0 40 40" fill="none" xmlns="http://www.w3.org/2000/svg">
<path d="M36.25 20C36.25 11.0258 28.9742 3.75 20 3.75C11.0258 3.75 3.75 11.0258 3.75 20C3.75 28.9742 11.0258 36.25 20 36.25C28.9742 36.25 36.25 28.9742 36.25 20Z" stroke="#002060" stroke-miterlimit="10"/>
<path d="M34.8102 13.4484C33.5555 13.4562 33.6789 15.771 32.1156 14.6788C31.5352 14.2741 31.1781 13.6859 30.4492 13.5069C29.8125 13.3507 29.1602 13.5132 28.5313 13.6218C27.8164 13.7452 26.9688 13.8007 26.4266 14.3421C25.9024 14.8632 25.625 15.5624 25.0672 16.0866C23.9883 17.1023 23.5328 18.2108 24.2313 19.6468C24.9031 21.0273 26.3086 21.7765 27.825 21.678C29.3149 21.5788 30.8625 20.7148 30.8196 22.8796C30.8039 23.6452 30.9641 24.1765 31.1992 24.8882C31.4172 25.5444 31.4024 26.1804 31.4524 26.8577C31.5446 28.1234 31.7774 29.5421 32.4055 30.6601L33.5774 29.0069C33.7219 28.8023 34.0242 28.5155 34.0961 28.2741C34.2235 27.8468 33.9727 27.1124 33.9438 26.6335C33.9149 26.1546 33.9289 25.6694 33.8555 25.1905C33.7524 24.5194 33.3555 23.8905 33.3008 23.2273C33.2 21.9921 33.4258 21.0062 32.4742 19.9734C31.5555 18.9773 30.2086 18.7382 28.9219 18.9405C28.2735 19.0421 25.6633 19.4593 26.711 17.9773C26.918 17.6859 27.2797 17.4468 27.5125 17.1694C27.7149 16.928 27.8906 16.4843 28.1281 16.296C28.3656 16.1077 29.4563 15.8913 29.7688 15.9874C30.0813 16.0835 30.4071 16.5343 30.6781 16.7343C31.179 17.1115 31.7635 17.3624 32.3821 17.4655C33.4492 17.6218 35.6805 17.0015 35.6633 15.6327C35.6602 14.9765 35.0508 14.0624 34.8102 13.4484ZM22.4571 24.7108C22.0406 22.9577 19.6586 22.3718 18.3742 21.421C17.636 20.8741 16.9789 20.0296 16.0094 19.9608C15.5625 19.9288 15.1883 20.0257 14.7453 19.9109C14.3391 19.8062 14.0203 19.5874 13.5875 19.6444C12.7789 19.7507 12.2688 20.6148 11.4 20.4976C10.5758 20.3866 9.72658 19.4226 9.53908 18.6374C9.29846 17.628 10.0969 17.3007 10.9524 17.2109C11.3094 17.1734 11.7102 17.1327 12.0531 17.2632C12.5047 17.4312 12.718 17.8734 13.1235 18.0968C13.8836 18.5132 14.0375 17.8476 13.9211 17.1726C13.7469 16.1616 13.5438 15.7491 14.4453 15.0538C15.0703 14.5741 15.6047 14.2273 15.5047 13.3655C15.4453 12.8593 15.168 12.6304 15.4266 12.1265C15.6227 11.7429 16.161 11.3968 16.5117 11.1679C17.4172 10.5773 20.3906 10.621 19.1758 8.96788C18.8188 8.48273 18.1602 7.61554 17.5352 7.49679C16.7539 7.34913 16.4071 8.22101 15.8625 8.60538C15.3 9.00304 14.2047 9.4546 13.6414 8.83976C12.8836 8.01241 14.1438 7.74054 14.4227 7.16319C14.7016 6.58585 13.7766 5.49444 13.2813 5.21788L10.9524 7.8296C10.8855 8.26699 10.9088 8.71344 11.0208 9.1415C11.1329 9.56955 11.3313 9.97015 11.6039 10.3187C12.0672 10.9148 12.8047 11.1062 12.8383 11.9202C12.8711 12.7015 12.7492 13.1015 12.2383 13.6507C12.0172 13.8851 11.861 14.2179 11.636 14.4374C11.3602 14.7054 11.4625 14.6234 11.0321 14.6968C10.2227 14.8335 9.53361 15.0444 8.75158 15.2601C7.44846 15.6202 7.32815 13.4913 6.7344 12.6562L4.78127 14.2335C4.76018 14.4921 5.10158 14.9679 5.19455 15.2491C5.72815 16.8562 6.80471 18.0991 7.50002 19.6366C8.23205 21.2648 10.1977 20.8132 11.0656 22.2398C11.836 23.5054 11.0133 25.1077 11.5899 26.4327C12.0086 27.3944 12.9961 27.6046 13.6774 28.3077C14.3735 29.0179 14.3586 29.9898 14.4649 30.914C14.5846 32.0011 14.7791 33.0786 15.0469 34.139C15.1414 34.5054 15.2281 34.9898 15.4789 35.2921C15.6508 35.4999 16.2406 35.6788 16.0024 35.7476C16.3352 35.8023 16.9281 36.1132 17.2055 35.8851C17.5711 35.5851 17.4735 34.6616 17.5367 34.2444C17.7266 33.0023 18.3485 31.7874 19.1875 30.8577C20.0164 29.9405 21.1524 29.3194 21.8524 28.2796C22.5344 27.2655 22.7399 25.8976 22.4571 24.7108ZM19.8485 26.7671C19.3797 27.6038 18.336 28.164 17.6649 28.8288C17.4828 29.0093 17.0953 29.6343 16.8672 29.4991C16.7039 29.4023 16.6485 28.5913 16.5883 28.4054C16.278 27.4691 15.6855 26.6518 14.8922 26.0655C14.6477 25.8804 14.0414 25.6398 13.9016 25.3858C13.7453 25.1101 13.886 24.4593 13.8914 24.1593C13.9 23.7218 13.7008 22.9944 13.8086 22.5968C13.9336 22.1382 13.693 22.4148 14.1031 22.3241C14.3196 22.2757 15.2133 22.4327 15.4828 22.489C15.911 22.578 16.1469 22.8444 16.4844 23.114C17.3719 23.8257 18.3492 24.3765 19.3438 24.9218C20.1141 25.3483 20.3406 25.8882 19.8485 26.7671ZM14.411 5.24132C14.7813 5.60304 15.1297 6.03116 15.6821 6.0671C16.2047 6.10226 16.6977 5.81944 17.1539 6.17491C17.6602 6.56554 18.025 7.06007 18.6969 7.18194C19.3469 7.29991 20.0352 6.92023 20.1961 6.25538C20.3524 5.62179 20.0156 4.93273 19.9953 4.29679C19.9953 4.20851 20.043 3.81632 19.9821 3.74991C19.9367 3.69991 19.5586 3.75616 19.5008 3.75773C19.0774 3.77023 18.655 3.79939 18.2336 3.84523C16.6975 4.01149 15.1932 4.39691 13.7664 4.98976C13.9563 5.12101 14.1946 5.17335 14.411 5.24132ZM27.8438 9.63038C28.5071 9.63038 29.1805 9.33351 28.9664 8.56632C28.7867 7.92335 28.4805 7.22569 27.7352 7.57257C27.261 7.79288 26.5891 8.35382 26.5336 8.91007C26.4703 9.54132 27.4016 9.63038 27.8438 9.63038ZM27.3141 12.9874C27.9914 13.3929 28.9961 13.2023 29.5071 12.6234C29.9063 12.1702 30.1414 11.3835 30.8594 11.3843C31.1755 11.3836 31.4791 11.5074 31.7047 11.7288C32.0016 12.0359 31.943 12.3241 32.0063 12.7085C32.1477 13.5718 33.0735 12.7577 33.3149 12.4234C33.4711 12.2054 33.6828 11.8819 33.6117 11.5984C33.5461 11.3335 33.2367 11.0515 33.0992 10.8085C32.6977 10.1054 32.3672 9.28741 31.7656 8.71944C31.1867 8.17257 30.475 8.23585 29.9258 8.80382C29.4758 9.27257 28.9531 9.64366 28.6453 10.214C28.4281 10.6148 28.1836 10.8062 27.7438 10.9101C27.5016 10.9671 27.225 10.9882 27.0219 11.1507C26.4563 11.596 26.7781 12.6655 27.3141 12.9874Z" fill="#002060"/>
</svg>
