<svg width="50" height="51" viewBox="0 0 50 51" fill="none" xmlns="http://www.w3.org/2000/svg">
<path d="M46.875 28.625V37.2188C46.875 39.5625 45.4688 41.5938 43.2813 42.6875L40.625 43.9375L37.9687 42.6875C35.7812 41.75 34.375 39.5625 34.375 37.2188V28.625H46.875ZM50 25.5H31.25V37.2188C31.25 40.6562 33.2812 43.9375 36.5625 45.5L40.625 47.375L44.6875 45.5C47.9688 43.9375 50 40.8125 50 37.2188V25.5Z" fill="#002060"/>
<path d="M25 39.5625H11.7188C5.3125 39.5625 0 34.25 0 27.8438C0 22.0625 4.21875 17.375 9.6875 16.2813C11.0938 8.9375 17.5 3.625 25 3.625C33.5938 3.625 40.625 10.6562 40.625 19.25H37.5C37.5 12.375 31.875 6.75 25 6.75C18.5938 6.75 13.2812 11.5938 12.5 17.8438V19.25H11.0938C6.5625 19.5625 3.125 23.3125 3.125 27.8438C3.125 32.5312 7.03125 36.4375 11.7188 36.4375H25V39.5625Z" fill="#002060"/>
</svg>
