<svg width="28" height="29" viewBox="0 0 28 29" fill="none" xmlns="http://www.w3.org/2000/svg">
<path d="M14.065 18.0363L15.8325 19.8038L21.1375 14.5L15.8337 9.19629L14.0662 10.965L16.35 13.25H6.9287V15.75H16.35L14.065 18.0363Z" fill="white"/>
<path fill-rule="evenodd" clip-rule="evenodd" d="M23.7225 24.2225C29.0925 18.8525 29.0925 10.1475 23.7225 4.7775C18.3525 -0.5925 9.6475 -0.5925 4.2775 4.7775C-1.0925 10.1475 -1.0925 18.8525 4.2775 24.2225C9.6475 29.5925 18.3525 29.5925 23.7225 24.2225ZM21.955 22.455C24.0648 20.3452 25.2501 17.4837 25.2501 14.5C25.2501 11.5163 24.0648 8.6548 21.955 6.545C19.8452 4.4352 16.9837 3.24993 14 3.24993C11.0163 3.24993 8.1548 4.4352 6.045 6.545C3.9352 8.6548 2.74993 11.5163 2.74993 14.5C2.74993 17.4837 3.9352 20.3452 6.045 22.455C8.1548 24.5648 11.0163 25.7501 14 25.7501C16.9837 25.7501 19.8452 24.5648 21.955 22.455Z" fill="white"/>
</svg>
