<?xml version="1.0" encoding="utf-8"?>
<!-- Generator: Adobe Illustrator 27.5.0, SVG Export Plug-In . SVG Version: 6.00 Build 0)  -->
<svg version="1.1" id="Ñëîé_1" xmlns="http://www.w3.org/2000/svg" xmlns:xlink="http://www.w3.org/1999/xlink" x="0px" y="0px"
	 viewBox="0 0 2600 2000" style="enable-background:new 0 0 2600 2000;" xml:space="preserve">
<rect id="_x31_0" style="fill:#FFFFFF;" width="2600" height="2000"/>
<g>
	<g id="_x39_">
		<path style="fill:#CFDDF9;" d="M79.35,1626.251c0,0-5.32,63.783,96.009,110.305c106.435,48.866,629.135,23.462,495.366,81.008
			c-95.137,40.927,55.567,73.172,436.751,84.327c195.997,5.736,1050.637,20.181,850.112-92.427
			c-148.926-83.631,579.841,36.063,562.479-183.213H79.35z"/>
		<path style="fill:#C6DFF7;" d="M509.021,1624.852c0,0-287.849-732.66-80.703-895.805
			c138.457-109.047,248.817,127.981,423.982,0.811c155.946-113.217,20.461-420.325,235.128-469.678
			c277.403-63.776,497.557,556.679,727.04,468.866c278.462-106.555,555.458,109.753,316.082,897.204L509.021,1624.852z"/>
		<path style="fill:#DCE6FF;" d="M243.177,1560.682c-5.033-13.909-10.012-28.321-14.799-42.835l11.798-3.165
			c4.756,14.421,9.703,28.739,14.702,42.555L243.177,1560.682z M2353.841,1542.72l-12.216-1.361
			c2.028-14.806,3.954-29.718,5.725-44.319l12.236,1.208C2357.81,1512.901,2355.877,1527.864,2353.841,1542.72z M214.789,1474.7
			c-4.308-14.344-8.486-28.956-12.419-43.428l11.955-2.643c3.909,14.385,8.062,28.909,12.344,43.167L214.789,1474.7z
			 M2364.625,1453.702l-12.253-1.045c1.557-14.866,2.999-29.819,4.286-44.444l12.27,0.877
			C2367.638,1423.772,2366.19,1438.781,2364.625,1453.702z M191.123,1387.589c-3.555-14.614-6.938-29.391-10.054-43.922
			l12.085-2.108c3.097,14.44,6.459,29.126,9.992,43.65L191.123,1387.589z M2372.461,1364.418l-12.284-0.701
			c1.042-14.855,1.956-29.84,2.715-44.536l12.295,0.517C2374.425,1334.456,2373.508,1349.502,2372.461,1364.418z M172.248,1299.527
			c-2.737-14.793-5.271-29.71-7.532-44.338l12.191-1.532c2.246,14.53,4.763,29.347,7.482,44.043L172.248,1299.527z
			 M2377.067,1274.937l-12.304-0.323c0.48-14.921,0.811-29.922,0.984-44.585l12.309,0.117
			C2377.881,1244.878,2377.55,1259.948,2377.067,1274.937z M158.539,1210.672c-1.835-14.942-3.432-29.97-4.747-44.666l12.269-0.894
			c1.306,14.587,2.891,29.504,4.713,44.337L158.539,1210.672z M2365.798,1185.441c-0.145-14.933-0.46-29.928-0.935-44.572
			l12.304-0.324c0.477,14.719,0.794,29.791,0.94,44.799L2365.798,1185.441z M150.564,1121.223c-0.817-15.03-1.358-30.12-1.61-44.851
			l12.308-0.172c0.249,14.608,0.786,29.573,1.595,44.48L150.564,1121.223z M2362.884,1096.337
			c-0.845-14.912-1.885-29.875-3.088-44.473l12.274-0.824c1.211,14.682,2.256,29.732,3.106,44.73L2362.884,1096.337z
			 M161.379,1031.704l-12.306-0.228c0.343-15.07,1.004-30.165,1.965-44.863l12.288,0.653
			C162.373,1001.824,161.718,1016.774,161.379,1031.704z M2355.526,1007.48c-1.644-14.91-3.507-29.802-5.534-44.262l12.211-1.393
			c2.041,14.557,3.915,29.549,5.571,44.555L2355.526,1007.48z M167.228,942.946l-12.247-1.109c1.672-15.013,3.71-30.018,6.059-44.6
			l12.181,1.596C170.898,913.253,168.882,928.095,167.228,942.946z M2343.101,919.126c-2.561-14.816-5.372-29.576-8.355-43.87
			l12.095-2.055c3.009,14.408,5.842,29.283,8.423,44.214L2343.101,919.126z M887.361,917.559
			c-17.103-2.432-29.475-9.455-46.612-21.582l7.78-8.603c15.013,10.596,25.856,16.952,40.143,19.145L887.361,917.559z
			 M930.066,891.145l-10.962-5.049c5.635-9.952,10.615-23.762,14.805-41.047l12.024,2.37
			C941.458,865.891,936.267,880.193,930.066,891.145z M804.625,864.136c-9.805-9.849-20.284-21.184-32.035-34.653l9.673-6.866
			c11.585,13.278,21.896,24.432,31.521,34.101L804.625,864.136z M181.442,855.031l-12.084-2.115
			c3.189-14.818,6.796-29.593,10.724-43.916l11.949,2.666C188.154,825.806,184.591,840.397,181.442,855.031z M2324.797,831.675
			c-3.645-14.663-7.577-29.2-11.687-43.206l11.9-2.84c4.149,14.142,8.118,28.818,11.796,43.618L2324.797,831.675z M954.216,802.739
			l-12.208-1.417c1.89-13.252,3.585-27.763,5.179-44.365l12.263,0.959C957.841,774.672,956.129,789.333,954.216,802.739z
			 M742.442,793.715c-10.006-12.187-20.383-25.07-29.325-36.188l9.964-6.519c8.925,11.097,19.281,23.953,29.254,36.101
			L742.442,793.715z M1643.6,792.802c-9.586,0-18.991-2.583-27.954-7.677l6.563-9.393c13.464,7.666,26.709,7.683,41.011,1.569
			l5.296,10.021C1660.06,790.958,1651.677,792.802,1643.6,792.802z M205.124,768.881l-11.771-3.247
			c4.891-14.425,10.256-28.771,15.948-42.641l11.543,3.854C215.235,740.518,209.946,754.66,205.124,768.881z M1708.766,758.297
			l-9.044-7.531c9.333-9.117,19.337-20.362,30.585-34.381l9.972,6.51C1728.741,737.274,1718.434,748.854,1708.766,758.297z
			 M1580.648,750.664c-7.966-11.084-15.86-24.137-24.133-39.903l11.125-4.749c8.038,15.317,15.67,27.948,23.337,38.614
			L1580.648,750.664z M2299.511,745.748c-4.958-14.385-10.249-28.545-15.726-42.088l11.564-3.804
			c5.544,13.71,10.899,28.041,15.916,42.596L2299.511,745.748z M683.947,721.332c-11.262-13.881-20.646-25.278-29.536-35.865
			l9.813-6.702c8.93,10.636,18.354,22.079,29.656,36.011L683.947,721.332z M963.154,713.081l-12.283-0.717
			c0.933-13.007,1.882-27.626,2.902-44.694l12.291,0.598C965.042,685.375,964.09,700.033,963.154,713.081z M239.295,685.751
			l-11.261-4.482c6.757-13.803,13.958-27.357,21.609-40.612l10.915,5.133C253.029,658.831,245.945,672.168,239.295,685.751z
			 M1768.478,685.749l-10.285-6.1c8.747-11.994,17.782-24.703,26.928-37.541l10.355,6.001
			C1786.308,660.981,1777.264,673.7,1768.478,685.749z M1536.701,669.33c-5.576-12.613-11.337-26.375-17.613-42.071l11.578-3.767
			c6.231,15.579,11.944,29.228,17.469,41.726L1536.701,669.33z M2265.678,662.406c-6.617-13.903-13.618-27.409-20.806-40.142
			l10.97-5.037c7.309,12.947,14.424,26.674,21.147,40.799L2265.678,662.406z M624.02,650.289
			c-11.169-12.504-21.565-23.634-31.783-34.024l9.208-7.367c10.348,10.523,20.868,21.783,32.16,34.426L624.02,650.289z
			 M968.625,623.484l-12.294-0.559c0.829-14.832,1.653-29.672,2.532-44.772l12.292,0.582
			C970.277,593.827,969.453,608.659,968.625,623.484z M1822.462,610.613l-10.269-6.122c10.284-14.035,19.482-26.176,28.121-37.116
			l10.026,6.44C1841.785,584.649,1832.666,596.686,1822.462,610.613z M284.968,607.48l-10.375-5.975
			c9.673-13.663,19.646-26.003,29.642-36.677l9.403,7.164C303.994,582.291,294.348,594.231,284.968,607.48z M1502.653,584.893
			c-5.645-14.92-11.183-29.848-15.856-42.484l11.676-3.513c4.667,12.617,10.196,27.522,15.829,42.41L1502.653,584.893z
			 M558.394,584.116c-12.58-11.048-24.951-20.807-36.766-29.007l7.506-8.799c12.192,8.461,24.925,18.505,37.846,29.851
			L558.394,584.116z M2220.973,583.642c-8.82-12.981-18.067-25.259-27.486-36.491l9.816-6.697
			c9.66,11.52,19.136,24.099,28.164,37.387L2220.973,583.642z M348.163,541.787l-7.466-8.827
			c14.699-10.113,29.998-17.407,45.47-21.677l3.602,10.616C375.697,525.783,361.698,532.474,348.163,541.787z M1880.027,538.392
			l-9.563-6.99c11.543-12.847,22.482-23.901,33.44-33.794l8.707,7.846C1901.959,515.073,1891.3,525.847,1880.027,538.392z
			 M973.913,534.027l-12.287-0.66c1.066-16.137,2.124-30.792,3.235-44.801l12.277,0.792
			C976.031,503.322,974.976,517.934,973.913,534.027z M480.933,531.702c-15.359-6.894-30.467-11.294-44.903-13.078l1.671-11
			c15.765,1.949,32.155,6.705,48.716,14.138L480.933,531.702z M2161.823,513.756c-11.849-10.95-24.12-20.616-36.467-28.728
			l7.247-8.974c12.903,8.477,25.698,18.553,38.029,29.947L2161.823,513.756z M1471.097,499.928
			c-6.123-16.518-11.169-29.987-15.88-42.387l11.643-3.599c4.723,12.427,9.778,25.92,15.911,42.465L1471.097,499.928z
			 M1949.45,477.114l-7.055-9.097c15.138-9.552,30.427-16.627,45.446-21.026l3.801,10.559
			C1977.786,461.61,1963.59,468.193,1949.45,477.114z M2083.754,463.513c-15.244-5.8-30.676-9.389-45.865-10.669l1.144-11.054
			c16.443,1.386,33.099,5.252,49.503,11.493L2083.754,463.513z M981.076,444.785l-12.261-0.982
			c1.534-15.577,3.203-30.62,4.96-44.713l12.232,1.241C984.261,414.338,982.602,429.294,981.076,444.785z M1438.839,415.315
			c-5.948-14.974-11.552-28.662-17.136-41.844l11.499-3.961c5.614,13.255,11.247,27.014,17.224,42.061L1438.839,415.315z
			 M992.274,356.062l-12.182-1.588c2.49-15.544,5.226-30.492,8.134-44.429l12.097,2.052
			C997.447,325.882,994.739,340.673,992.274,356.062z M1403.418,332.019c-6.614-14.349-13.28-28.078-19.816-40.805l11.169-4.666
			c6.603,12.859,13.337,26.724,20.013,41.209L1403.418,332.019z M1010.775,268.654l-11.942-2.691
			c4.293-15.503,9.026-30.105,14.067-43.402l11.646,3.592C1019.618,239.154,1014.984,253.453,1010.775,268.654z M1361.742,251.37
			c-8.096-13.752-16.365-26.662-24.579-38.371l10.401-5.936c8.38,11.946,16.807,25.101,25.051,39.101L1361.742,251.37z
			 M1043.032,185.477l-11.038-4.914c8.082-14.77,17.045-27.83,26.64-38.818l9.669,6.87
			C1059.238,158.997,1050.735,171.399,1043.032,185.477z M1308.951,176.992c-10.755-12.161-21.856-22.934-32.994-32.018l8.257-8.234
			c11.63,9.486,23.19,20.7,34.36,33.329L1308.951,176.992z M1102.644,119.841l-6.636-9.351
			c14.581-8.417,30.646-13.891,47.749-16.267l1.874,10.973C1130.234,107.335,1115.771,112.262,1102.644,119.841z M1237.121,119.834
			c-14.338-6.972-29.274-11.739-44.393-14.167l2.158-10.93c16.409,2.636,32.584,7.792,48.076,15.325L1237.121,119.834z"/>
		<path style="fill:#EEF7FF;" d="M2392.459,1292.616c-98.076-14.601-89.198,204.824-229,204.824
			c-127.82,0-196.218-490.239-336.483-390.531c-563.896,400.848-125.148-281.267-504.318-294.6
			c-171.45-6.029-285.695,177.58-327.825,502.667c-61.07,293.89-202.697-224.155-348.449-175.988
			c-92.632,30.612-82.024,358.452-209.843,358.452c-139.801,0-130.591-184.512-228.668-169.911
			c-105.595,15.72-130.341,301.798-130.341,301.798h2444.936C2522.468,1629.327,2498.054,1308.335,2392.459,1292.616z"/>
		<path style="fill:#DCE6FF;" d="M2298.48,1522.918c-90.228-6.234-75.505,50.092-204.118,50.092
			c-117.591,0-114.36-126.235-193.051-153.064c-144.913-49.406-264.382,200.644-320.564,75.149
			c-106.705-332.992-417.919-499.986-561.493,0c-56.182,125.495-187.564-98.432-320.564-75.149
			c-81.867,14.332-75.46,153.064-193.051,153.064c-128.614,0-113.89-56.326-204.118-50.092
			c-97.145,6.713-126.161,106.409-126.161,106.409h2249.282C2424.641,1629.327,2395.625,1529.63,2298.48,1522.918z"/>
	</g>
	<g id="_x38_">
		<path style="fill:#EB5648;" d="M843.603,642.62v-62.637h-47.974c-1.754-9.793-4.281-19.316-7.578-28.478l41.5-23.961
			L798.234,473.3l-41.555,23.992c-6.353-7.506-13.318-14.471-20.824-20.824l23.992-41.555l-54.245-31.319l-23.961,41.501
			c-9.162-3.297-18.685-5.824-28.478-7.578v-47.974h-62.637v47.974c-9.793,1.754-19.316,4.281-28.478,7.578l-23.96-41.501
			l-54.246,31.319l23.992,41.555c-7.506,6.353-14.471,13.318-20.824,20.824L445.455,473.3l-31.318,54.245l41.501,23.961
			c-3.297,9.162-5.824,18.685-7.578,28.478h-47.974v62.637h47.974c1.754,9.793,4.281,19.316,7.578,28.478l-41.501,23.96
			l31.318,54.245l41.555-23.992c6.353,7.506,13.318,14.471,20.824,20.824l-23.992,41.555l54.246,31.318l23.96-41.5
			c9.162,3.297,18.685,5.824,28.478,7.578v47.974h62.637v-47.974c9.793-1.754,19.316-4.281,28.478-7.578l23.961,41.5l54.245-31.318
			l-23.992-41.555c7.506-6.353,14.471-13.318,20.824-20.824l41.555,23.992l31.318-54.245l-41.5-23.96
			c3.297-9.162,5.824-18.684,7.578-28.478H843.603z M621.845,699.606c-48.77,0-88.305-39.535-88.305-88.305
			c0-48.77,39.535-88.305,88.305-88.305c48.769,0,88.305,39.535,88.305,88.305C710.15,660.071,670.614,699.606,621.845,699.606z"/>
		<path style="fill:#F49F9F;" d="M2067.583,572.489V536.94h-31.418c-2.12-25.095-8.684-48.921-18.906-70.694l27.177-15.69
			l-17.774-30.787l-27.203,15.706c-14.069-20.137-31.603-37.671-51.74-51.74l15.705-27.202l-30.787-17.775l-15.69,27.176
			c-21.773-10.221-45.598-16.785-70.694-18.905v-31.418h-35.549v31.418c-25.095,2.12-48.921,8.684-70.694,18.905l-15.69-27.176
			l-30.786,17.775l15.705,27.202c-20.137,14.069-37.671,31.603-51.741,51.74l-27.202-15.706l-17.775,30.787l27.176,15.69
			c-10.221,21.772-16.785,45.598-18.905,70.694h-31.418v35.549h31.418c2.12,25.096,8.684,48.921,18.905,70.694l-27.176,15.69
			l17.775,30.787l27.202-15.705c14.07,20.137,31.603,37.671,51.741,51.74l-15.705,27.202l30.786,17.775l15.69-27.176
			c21.772,10.221,45.598,16.785,70.694,18.905v31.418h35.549V762.4c25.095-2.12,48.921-8.684,70.694-18.905l15.69,27.176
			l30.787-17.775l-15.705-27.202c20.137-14.07,37.671-31.603,51.74-51.74l27.203,15.705l17.774-30.787l-27.177-15.69
			c10.221-21.772,16.786-45.598,18.906-70.694H2067.583z M1828.48,690.227c-74.841,0-135.512-60.671-135.512-135.512
			c0-74.841,60.671-135.512,135.512-135.512s135.512,60.671,135.512,135.512C1963.992,629.556,1903.321,690.227,1828.48,690.227z"/>
	</g>
	<g id="_x37_">
		<path style="fill:#9358E0;" d="M2170.52,758.571c10.978,21.134,18.959,40.378,21.67,51.345
			c4.324-13.129,8.573-25.266,12.717-36.472c-10.664-6.303-50.231-114.2-39.782-118.563c10.256-2.333,42.966,89.393,43.895,107.646
			c4.805-12.509,9.448-23.759,13.875-33.842c-9.901-2.861-28.241-125.036-16.869-125.907c4.784-0.691,12.755,27.05,17.801,61.962
			c3.214,22.243,4.463,42.017,3.71,53.628c6.045-13.132,11.62-24.014,16.581-32.942c-9.315-4.262-3.927-128.347,7.39-126.901
			c10.188,1.589,5.634,96.66-0.223,114.592c15.198-23.321,17.882-32.311,46.989-63.401c56.483-60.679,69.565-48.477,12.79,11.962
			c-27.307,31.35-39.626,29.173-55.928,59.042c13.493-10.241,110.684-40.262,115.075-30.37
			c3.062,10.938-109.807,44.387-119.806,38.647c-5.182,9.342-11.069,20.862-17.482,34.919c12.364-9.029,116.98-29.38,120.256-18.785
			c1.776,11.216-113.638,32.017-123.199,25.342c-4.601,10.391-9.442,22.038-14.463,35.076
			c14.084-8.777,115.012-28.239,118.316-17.861c1.09,11.221-108.874,31.005-121.324,25.79c-4.397,11.744-8.914,24.521-13.514,38.436
			c14.133-8.768,114.949-28.203,118.251-17.832c0.987,11.204-107.89,30.804-120.871,25.865c-3.745,11.605-7.538,23.96-11.355,37.093
			c13.034-8.937,116.258-28.96,119.563-18.444c1.186,11.229-109.649,31.167-121.658,25.722c-3.454,12.463-7.406,24.956-11.85,36.625
			c13.276-7.144,120.428-11.456,122.032-0.455c-0.417,11.303-114.036,14.242-124.52,6.856
			c-5.122,12.814-10.839,24.986-17.139,36.467c9.881-7.45,124.747-2.737,124.776,8.587c0.112,11.396-122.819,4.728-126.881-4.802
			c-8.19,14.439-17.369,27.881-27.844,40.458c14.364-3.651,119.692,20.056,118.352,31.121
			c-3.057,10.921-115.803-16.164-122.666-26.084c-11.171,12.729-23.355,24.029-36.43,33.77
			c15.262-0.656,113.606,40.664,110.429,51.293c-4.932,10.211-111.107-36.162-116.183-47.138
			c-35.146,24.486-63.781,29.371-65.015,29.572l-1.137-6.969c0.285-0.047,27.819-4.804,61.166-27.744
			c-12.073-8.338-62.708-104.167-53.399-110.328c10.402-3.845,58.663,90.557,59.358,106.072
			c10.944-8.104,23.076-18.752,35.275-32.596c-11.385-2.659-73.78-101.797-64.287-108.024c10.068-5.081,68.26,90.521,67.803,103.944
			c9.423-11.171,18.81-24.292,27.651-39.647c-11.544-1.689-81.743-95.568-72.773-102.529c9.678-5.691,74.187,83.281,75.686,97.351
			c5.782-10.523,11.297-22.039,16.388-34.653c-10.26,1.685-83.65-96.781-74.111-103.023c9.613-5.911,75.515,85.026,75.963,98.312
			c4.25-10.954,8.25-22.962,11.73-35.434c-12.804-5.157-79.18-93.901-70.762-101.345c9.336-5.182,67.987,74.948,73.499,91.792
			c3.821-13.176,7.611-25.569,11.352-37.218c-11.097-3.253-66.048-107.184-56.077-112.623
			C2137.599,703.698,2154.26,727.268,2170.52,758.571z"/>
		<path style="fill:#FCB4B4;" d="M535.57,935.638c-3.232,14.932-4.928,28.188-4.757,35.433c-4.89-7.397-9.566-14.193-14.019-20.431
			c5.538-5.699,11.839-79.152,4.635-80.091c-6.741,0.285-11.524,62.573-9.022,74.027c-5.083-6.932-9.853-13.113-14.293-18.607
			c5.646-3.44-3.599-82.152-10.784-80.774c-3.078,0.379-3.335,18.893-0.572,41.352c1.76,14.31,4.321,26.759,6.744,33.818
			c-5.955-7.109-11.241-12.904-15.816-17.594c5.047-4.208-19.206-80.103-25.967-77.3c-6.038,2.701,12.808,60.777,19.456,70.889
			c-13.339-11.872-16.515-16.984-39.772-31.321c-45.189-28.035-51.23-18.278-5.9,9.56c22.187,14.801,29.445,11.377,44.571,27.115
			c-10.078-4.064-75.295-6.261-76.346,0.602c-0.051,7.286,75.448,8.962,80.669,3.724c4.782,4.909,10.368,11.046,16.708,18.666
			c-9.175-3.504-77.358,1.536-77.599,8.646c0.792,7.242,75.734,0.66,80.526-5.083c4.6,5.656,9.56,12.049,14.865,19.272
			c-10.197-3.058-75.947,1.91-76.243,8.891c1.217,7.129,72.614,0.837,79.441-4.49c4.701,6.528,9.651,13.674,14.844,21.512
			c-10.226-3.045-75.902,1.922-76.198,8.898c1.278,7.101,71.972,0.878,79.174-4.367c4.274,6.551,8.705,13.559,13.282,21.044
			c-9.574-3.334-76.84,1.674-77.113,8.74c1.159,7.15,73.122,0.806,79.636-4.589c4.239,7.132,8.791,14.198,13.509,20.672
			c-9.421-2.184-76.47,13.211-75.608,20.291c2.164,6.926,72.983-10.409,78.228-16.748c5.33,7.068,10.921,13.638,16.756,19.682
			c-7.372-2.945-77.673,19.336-75.783,26.35c1.852,7.073,76.816-17.778,77.724-24.362c7.504,7.556,15.451,14.328,24.055,20.348
			c-9.506,0.162-70.703,32.591-68.008,39.214c3.733,6.244,68.951-29.527,71.527-36.824c9.06,5.996,18.506,10.936,28.241,14.761
			c-9.557,2.167-63.461,44.321-59.703,50.364c4.774,5.489,62.674-41.113,63.965-48.762c25.881,9.231,44.428,7.427,45.226,7.343
			l-0.471-4.505c-0.185,0.019-18.028,1.716-42.536-6.861c6.067-7.196,21.252-75.046,14.452-77.29
			c-7.087-0.626-21.043,65.94-18.858,75.66c-8.14-3.171-17.444-7.717-27.329-14.229c6.599-3.565,28.505-75.445,21.58-77.699
			c-7.088-1.447-26.989,67.536-24.444,75.766c-7.715-5.326-15.738-11.865-23.798-19.878c6.86-2.992,34.484-72.932,27.758-75.728
			c-6.95-1.891-31.878,64.053-30.434,73.015c-5.353-5.538-10.708-11.736-15.986-18.686c6.635-0.687,35.46-74.005,28.504-76.26
			c-6.947-2.038-32.406,65.358-30.444,73.656c-4.477-6.064-8.978-12.822-13.234-19.955c7.056-5.35,33.179-71.468,26.713-74.657
			c-6.652-1.633-29.445,57.851-30.018,69.206c-4.586-7.511-9.021-14.543-13.3-21.122c6.32-3.885,22.811-77.476,15.723-79.162
			C546.696,896.124,540.357,913.521,535.57,935.638z"/>
		<path style="fill:#CE4ABF;" d="M1053.873,675.927c0.333-8.487-80.036-21.101-91.331-17.842
			c6.853-8.337,14.104-18.839,20.781-31.758c6.729,6.143,95.679,5.588,95.863-3.079c-1.098-8.466-83.653-6.756-93.625-1.387
			c4.978-10.263,9.553-21.951,13.296-35.189c4.537,6.434,97.347-11.216,95.093-19.637c-2.117-8.398-88.39,9.173-94.244,16.538
			c2.501-9.332,4.594-19.394,6.117-30.259c9.061,3.585,92.973-19.444,91.149-27.89c-3.28-7.85-81.856,14.936-90.477,22.688
			c1.137-9.169,1.813-19.383,2.092-29.352c9.84,1.875,88.565-33.279,85.567-41.366c-4.451-7.166-77.229,26.531-85.345,35.582
			c0.428-10.445,0.98-20.308,1.635-29.605c10.465,1.324,87.808-33.226,84.957-41.328c-4.423-7.059-75.52,25.76-84.484,34.887
			c0.865-11.169,1.878-21.477,2.99-30.997c10.124,1.625,88.235-33.257,85.307-41.355c-4.426-7.064-75.601,25.797-84.527,34.921
			c1.338-10.594,2.798-20.123,4.309-28.677c8.267,3.226,90.199-33.389,86.781-41.367c-4.444-7.23-78.196,26.965-85.797,35.962
			c2.185-11.606,4.445-21.233,6.579-29.114c8.425,2.457,86.144-43.086,81.826-50.618c-5.14-6.496-71.618,33.499-79.832,43.61
			c6.609-25.112,16.186-25.82,30.692-54.056c31.056-55.228,19.131-61.918-11.682-6.532c-15.924,28.441-16.226,35.512-23.259,55.651
			c1.082-14.305-12.983-85.831-20.819-85.074c-8.657,1.014,10.06,94.054,17.755,95.521c-2.046,7.533-4.19,16.629-6.272,27.48
			c-0.878-13.447-29.27-83.982-37.13-81.833c-8.269,2.746,27.698,90.015,35.574,90.341c-1.439,8.293-2.824,17.491-4.099,27.652
			c-3.983-13.31-45.145-75.511-52.285-71.84c-6.921,5.201,42.128,77.911,51.231,80.695c-1.022,9.074-1.953,18.858-2.758,29.392
			c-4.418-11.96-55.869-71.063-62.736-66.381c-6.365,5.903,53.364,72.874,62.236,73.304c-0.643,9.329-1.186,19.218-1.608,29.695
			c-7.108-11.44-65.432-60.258-71.35-54.654c-4.828,7.112,60.559,60.707,71.067,62.245c-0.298,9.893-1.067,19.534-2.215,28.441
			c-2.708-9.732-68.374-65.231-74.372-59.04c-5.915,6.391,66.54,65.991,73.861,62.876c-1.468,10.293-3.452,19.848-5.816,28.716
			c-3.625-10.117-67.908-64.422-73.991-58.38c-5.341,6.84,63.859,63.578,72.777,62.755c-3.749,13.013-8.312,24.469-13.259,34.484
			c-2.063-9.992-62.858-70.379-69.349-64.715c-5.866,6.395,58.512,68.458,67.487,68.388c-6.517,12.507-13.57,22.63-20.207,30.648
			c-3.295-11.321-56.51-72.659-63.472-67.842c-5.729,6.334,49.29,68.047,59.83,72.091c-20.526,23.108-40.069,31.684-40.307,31.787
			l2.118,4.964c0.878-0.374,21.233-9.243,42.83-33.849C964.742,669.426,1052.138,684.419,1053.873,675.927z"/>
	</g>
	<g id="_x36_">
		<path style="fill:#8A9EDD;" d="M689.169,1674.598c-47.456,0-85.927-38.471-85.927-85.927V686.069
			c0-47.456,38.471-85.927,85.927-85.927h1317.655c47.457,0,85.928,38.471,85.928,85.927v902.601
			c0,47.456-38.471,85.927-85.928,85.927H689.169z"/>
		<rect x="680.965" y="673.75" style="fill:#D7DEFF;" width="1334.063" height="927.239"/>
		<rect x="734.49" y="727.275" style="fill:#B4C4EF;" width="1227.014" height="820.19"/>
		
			<ellipse transform="matrix(0.7071 -0.7071 0.7071 0.7071 -401.1338 964.4109)" style="fill:#F9B233;" cx="963.58" cy="966.417" rx="121.943" ry="121.943"/>
		<path style="fill:#F39200;" d="M994.197,848.349c52.16,13.487,90.868,60.655,91.322,117.087
			c0.542,67.345-53.612,122.378-120.958,122.92c-10.913,0.088-21.512-1.262-31.599-3.871
			c-52.159-13.491-90.868-60.655-91.322-117.087c-0.542-67.345,53.613-122.378,120.958-122.92
			C973.512,844.39,984.11,845.741,994.197,848.349L994.197,848.349z M999.138,829.284l-0.003-0.001
			c-11.936-3.086-24.279-4.599-36.695-4.5c-37.832,0.305-73.281,15.323-99.816,42.29c-26.536,26.966-40.982,62.652-40.678,100.484
			c0.516,64.05,44.139,119.974,106.085,135.996c11.926,3.084,24.27,4.598,36.689,4.498c78.097-0.629,141.122-64.676,140.494-142.773
			C1104.698,901.227,1061.078,845.304,999.138,829.284L999.138,829.284z"/>
		<path style="fill:#F39200;" d="M1031.916,999.369c-0.248-30.813-28.397-43.415-55.869-51.669
			c-29.525-9.006-34.954-13.967-35.008-20.495c-0.024-2.995,1.642-5.909,4.689-8.208c3.295-2.484,9.777-5.465,21.956-5.564
			c19.956-0.16,32.488,5.153,37.836,7.418c3.696,1.563,7.965-0.029,9.728-3.632l7.96-16.263c0.905-1.851,1.016-3.992,0.304-5.927
			c-0.713-1.935-2.184-3.494-4.074-4.315c-11.151-4.849-23.53-7.676-37.659-8.582l-0.133-16.613
			c-0.018-2.002-0.828-3.916-2.255-5.321c-1.428-1.404-3.354-2.184-5.356-2.168l-20.064,0.162c-4.169,0.034-7.522,3.44-7.49,7.61
			l0.148,18.324c-29.864,5.884-48.68,23.621-48.497,46.369c0.229,28.307,28.585,40.385,59.129,49.202
			c27.594,8.241,31.365,15.612,31.415,21.738c0.042,5.284-3.801,8.867-7.031,10.944c-5.708,3.667-14.158,5.728-23.798,5.807
			c-15.206,0.121-30.977-3.304-43.273-9.393c-1.83-0.907-3.94-1.032-5.861-0.356c-1.922,0.677-3.489,2.102-4.344,3.951
			l-7.634,16.505c-1.682,3.637-0.229,7.955,3.31,9.836c11.105,5.905,28.418,10.028,45.652,11.043l0.14,17.539
			c0.029,3.494,2.426,6.415,5.654,7.25c0.625,0.162,1.281,0.245,1.957,0.239l20.388-0.164c2.002-0.016,3.917-0.826,5.321-2.254
			c1.404-1.427,2.184-3.354,2.169-5.356l-0.154-19.063C1016.372,1041.063,1032.073,1019.075,1031.916,999.369z"/>
		
			<ellipse transform="matrix(0.7071 -0.7071 0.7071 0.7071 -288.5408 1236.2344)" style="fill:#F9B233;" cx="1347.996" cy="966.417" rx="121.943" ry="121.943"/>
		<path style="fill:#F39200;" d="M1378.614,848.349c52.16,13.487,90.868,60.655,91.322,117.087
			c0.542,67.345-53.612,122.378-120.958,122.92c-10.913,0.088-21.512-1.262-31.599-3.871
			c-52.159-13.491-90.868-60.655-91.322-117.087c-0.542-67.345,53.613-122.378,120.958-122.92
			C1357.928,844.39,1368.527,845.741,1378.614,848.349L1378.614,848.349z M1383.554,829.284l-0.003-0.001
			c-11.936-3.086-24.279-4.599-36.695-4.5c-37.832,0.305-73.281,15.323-99.816,42.29c-26.536,26.966-40.982,62.652-40.678,100.484
			c0.516,64.05,44.139,119.974,106.085,135.996c11.926,3.084,24.27,4.598,36.689,4.498c78.097-0.629,141.122-64.676,140.494-142.773
			C1489.115,901.227,1445.495,845.304,1383.554,829.284L1383.554,829.284z"/>
		<path style="fill:#F39200;" d="M1423.933,973.157c-4.044-5.277-9.467-9.387-16.175-12.268c4.278-2.864,7.862-6.518,10.698-10.914
			c4.026-6.237,6.067-13.188,6.067-20.657c0-6.891-1.664-13.211-4.943-18.787c-3.233-5.495-7.346-9.97-12.228-13.297
			c-4.871-3.319-10.455-5.53-16.599-6.573c-2.678-0.454-6.026-0.8-9.956-1.049v-14.827c0-1.583-1.283-2.867-2.867-2.867h-8.998
			c-1.583,0-2.866,1.283-2.866,2.867v14.383c-0.675-0.004-1.326-0.011-2.02-0.011h-14.823v-14.372c0-1.583-1.283-2.867-2.867-2.867
			h-9c-1.583,0-2.866,1.283-2.866,2.867v14.372h-29.671c-0.105,0-0.205,0.02-0.308,0.031h-23.998c-2.419,0-4.379,1.961-4.379,4.379
			v20.993c0,2.419,1.961,4.379,4.379,4.379h21.439v94.44h-21.439c-2.419,0-4.379,1.961-4.379,4.379v20.991
			c0,2.419,1.961,4.379,4.379,4.379h24.306c0.239,0,0.47-0.033,0.698-0.07h28.973v20.959c0,1.583,1.283,2.866,2.866,2.866h9
			c1.583,0,2.867-1.283,2.867-2.866v-20.959h6.05c3.904-0.027,7.49-0.063,10.793-0.107v21.066c0,1.583,1.283,2.866,2.866,2.866
			h8.998c1.583,0,2.867-1.283,2.867-2.866v-21.376c4.98-0.162,8.582-0.365,10.852-0.611c8.398-0.924,15.598-3.457,21.395-7.526
			c5.798-4.068,10.428-9.567,13.762-16.343c3.314-6.734,4.994-13.775,4.994-20.925
			C1431.8,988.076,1429.153,979.975,1423.933,973.157z M1386.124,943.109c-2.452,2.451-5.947,3.961-10.39,4.486
			c-2.698,0.323-9.894,0.486-21.391,0.486h-16.741v-28.53h14.316c13.904,0,22.398,0.165,25.225,0.486
			c4.244,0.516,7.429,1.947,9.464,4.254c2.069,2.345,3.075,5.378,3.075,9.273C1389.682,937.593,1388.517,940.714,1386.124,943.109z
			 M1337.602,978.475h21.29c16.469,0,23.008,1.069,25.59,1.965c3.521,1.223,6.118,3.088,7.936,5.701
			c1.831,2.633,2.721,5.801,2.721,9.683c0,4.568-1.134,8.06-3.468,10.674c-2.38,2.667-5.402,4.302-9.312,5.015
			c-1.849,0.387-6.808,0.849-19.93,0.849h-24.827V978.475z"/>
		
			<ellipse transform="matrix(0.7071 -0.7071 0.7071 0.7071 -175.9479 1508.0577)" style="fill:#F9B233;" cx="1732.413" cy="966.417" rx="121.943" ry="121.943"/>
		<path style="fill:#F39200;" d="M1763.03,848.349c52.16,13.487,90.868,60.655,91.322,117.087
			c0.542,67.345-53.612,122.378-120.958,122.92c-10.913,0.088-21.512-1.262-31.599-3.871
			c-52.16-13.491-90.868-60.655-91.322-117.087c-0.542-67.345,53.613-122.378,120.958-122.92
			C1742.345,844.39,1752.943,845.741,1763.03,848.349L1763.03,848.349z M1767.97,829.284l-0.003-0.001
			c-11.936-3.086-24.279-4.599-36.695-4.5c-37.832,0.305-73.281,15.323-99.816,42.29c-26.536,26.966-40.982,62.652-40.678,100.484
			c0.516,64.05,44.139,119.974,106.085,135.996c11.926,3.084,24.27,4.598,36.689,4.498c78.097-0.629,141.122-64.676,140.494-142.773
			C1873.531,901.227,1829.911,845.304,1767.97,829.284L1767.97,829.284z"/>
		<path style="fill:#F39200;" d="M1803.48,1013.345c-0.807-0.462-1.745-0.65-2.674-0.65h-78.958l6.351-30.41l21.513-7.474
			c2.479-0.86,3.79-3.568,2.928-6.047l-6.176-17.777c-0.413-1.19-1.282-2.168-2.417-2.718c-1.135-0.548-2.442-0.627-3.63-0.211
			l-5.468,1.9l14.811-70.92c0.444-2.122-0.489-4.367-2.505-5.527c-0.805-0.463-1.741-0.654-2.67-0.654h-34.323
			c-2.43,0-4.526,1.703-5.024,4.081l-18.823,89.882l-24.498,8.511c-1.19,0.413-2.168,1.282-2.718,2.417
			c-0.549,1.135-0.626,2.44-0.211,3.63l6.176,17.776c0.681,1.963,2.521,3.193,4.488,3.193c0.517,0,1.043-0.085,1.559-0.265
			l8.432-2.929l-9.514,45.43c-0.205,0.976-0.224,2.005,0.103,2.947c0.748,2.156,2.73,3.49,4.868,3.49h120.027
			c2.432,0,4.529-1.706,5.026-4.087l5.839-28.06C1806.434,1016.748,1805.499,1014.499,1803.48,1013.345z"/>
		<path style="fill:#D7DEFF;" d="M1108.56,1200.078H926.246c-4.142,0-7.5-3.357-7.5-7.5s3.358-7.5,7.5-7.5h182.314
			c4.142,0,7.5,3.357,7.5,7.5S1112.702,1200.078,1108.56,1200.078z"/>
		<path style="fill:#D7DEFF;" d="M896.037,1200.078h-74.095c-4.142,0-7.5-3.357-7.5-7.5s3.358-7.5,7.5-7.5h74.095
			c4.142,0,7.5,3.357,7.5,7.5S900.179,1200.078,896.037,1200.078z"/>
		<path style="fill:#D7DEFF;" d="M1108.56,1256.142H821.942c-4.142,0-7.5-3.357-7.5-7.5s3.358-7.5,7.5-7.5h286.618
			c4.142,0,7.5,3.357,7.5,7.5S1112.702,1256.142,1108.56,1256.142z"/>
		<path style="fill:#D7DEFF;" d="M1108.56,1312.205h-94.484c-4.142,0-7.5-3.357-7.5-7.5s3.358-7.5,7.5-7.5h94.484
			c4.142,0,7.5,3.357,7.5,7.5S1112.702,1312.205,1108.56,1312.205z"/>
		<path style="fill:#D7DEFF;" d="M983.157,1312.205H821.942c-4.142,0-7.5-3.357-7.5-7.5s3.358-7.5,7.5-7.5h161.215
			c4.142,0,7.5,3.357,7.5,7.5S987.299,1312.205,983.157,1312.205z"/>
		<path style="fill:#D7DEFF;" d="M1108.56,1368.269h-65.346c-4.142,0-7.5-3.357-7.5-7.5s3.358-7.5,7.5-7.5h65.346
			c4.142,0,7.5,3.357,7.5,7.5S1112.702,1368.269,1108.56,1368.269z"/>
		<path style="fill:#D7DEFF;" d="M1015.36,1368.269H909.394c-4.142,0-7.5-3.357-7.5-7.5s3.358-7.5,7.5-7.5h105.965
			c4.142,0,7.5,3.357,7.5,7.5S1019.502,1368.269,1015.36,1368.269z"/>
		<path style="fill:#D7DEFF;" d="M878.756,1368.269h-56.814c-4.142,0-7.5-3.357-7.5-7.5s3.358-7.5,7.5-7.5h56.814
			c4.142,0,7.5,3.357,7.5,7.5S882.898,1368.269,878.756,1368.269z"/>
		<path style="fill:#D7DEFF;" d="M1108.56,1424.333H821.942c-4.142,0-7.5-3.357-7.5-7.5s3.358-7.5,7.5-7.5h286.618
			c4.142,0,7.5,3.357,7.5,7.5S1112.702,1424.333,1108.56,1424.333z"/>
		<path style="fill:#D7DEFF;" d="M1108.56,1480.396H987.267c-4.142,0-7.5-3.357-7.5-7.5s3.358-7.5,7.5-7.5h121.292
			c4.142,0,7.5,3.357,7.5,7.5S1112.702,1480.396,1108.56,1480.396z"/>
		<path style="fill:#D7DEFF;" d="M951.267,1480.396H821.942c-4.142,0-7.5-3.357-7.5-7.5s3.358-7.5,7.5-7.5h129.325
			c4.142,0,7.5,3.357,7.5,7.5S955.409,1480.396,951.267,1480.396z"/>
		<path style="fill:#D7DEFF;" d="M1387.836,1480.396h-182.313c-4.142,0-7.5-3.357-7.5-7.5s3.358-7.5,7.5-7.5h182.313
			c4.143,0,7.5,3.357,7.5,7.5S1391.979,1480.396,1387.836,1480.396z"/>
		<path style="fill:#D7DEFF;" d="M1492.141,1480.396h-74.096c-4.143,0-7.5-3.357-7.5-7.5s3.357-7.5,7.5-7.5h74.096
			c4.143,0,7.5,3.357,7.5,7.5S1496.283,1480.396,1492.141,1480.396z"/>
		<path style="fill:#D7DEFF;" d="M1492.141,1424.333h-286.618c-4.142,0-7.5-3.357-7.5-7.5s3.358-7.5,7.5-7.5h286.618
			c4.143,0,7.5,3.357,7.5,7.5S1496.283,1424.333,1492.141,1424.333z"/>
		<path style="fill:#D7DEFF;" d="M1300.007,1368.269h-94.484c-4.142,0-7.5-3.357-7.5-7.5s3.358-7.5,7.5-7.5h94.484
			c4.143,0,7.5,3.357,7.5,7.5S1304.149,1368.269,1300.007,1368.269z"/>
		<path style="fill:#D7DEFF;" d="M1492.141,1368.269h-161.215c-4.143,0-7.5-3.357-7.5-7.5s3.357-7.5,7.5-7.5h161.215
			c4.143,0,7.5,3.357,7.5,7.5S1496.283,1368.269,1492.141,1368.269z"/>
		<path style="fill:#D7DEFF;" d="M1270.869,1312.205h-65.346c-4.142,0-7.5-3.357-7.5-7.5s3.358-7.5,7.5-7.5h65.346
			c4.142,0,7.5,3.357,7.5,7.5S1275.011,1312.205,1270.869,1312.205z"/>
		<path style="fill:#D7DEFF;" d="M1404.688,1312.205h-105.965c-4.142,0-7.5-3.357-7.5-7.5s3.358-7.5,7.5-7.5h105.965
			c4.143,0,7.5,3.357,7.5,7.5S1408.83,1312.205,1404.688,1312.205z"/>
		<path style="fill:#D7DEFF;" d="M1492.141,1312.205h-56.814c-4.143,0-7.5-3.357-7.5-7.5s3.357-7.5,7.5-7.5h56.814
			c4.143,0,7.5,3.357,7.5,7.5S1496.283,1312.205,1492.141,1312.205z"/>
		<path style="fill:#D7DEFF;" d="M1492.141,1256.142h-286.618c-4.142,0-7.5-3.357-7.5-7.5s3.358-7.5,7.5-7.5h286.618
			c4.143,0,7.5,3.357,7.5,7.5S1496.283,1256.142,1492.141,1256.142z"/>
		<path style="fill:#D7DEFF;" d="M1326.815,1200.078h-121.292c-4.142,0-7.5-3.357-7.5-7.5s3.358-7.5,7.5-7.5h121.292
			c4.143,0,7.5,3.357,7.5,7.5S1330.958,1200.078,1326.815,1200.078z"/>
		<path style="fill:#D7DEFF;" d="M1492.141,1200.078h-129.325c-4.143,0-7.5-3.357-7.5-7.5s3.357-7.5,7.5-7.5h129.325
			c4.143,0,7.5,3.357,7.5,7.5S1496.283,1200.078,1492.141,1200.078z"/>
		<path style="fill:#D7DEFF;" d="M1875.722,1480.396h-182.313c-4.143,0-7.5-3.357-7.5-7.5s3.357-7.5,7.5-7.5h182.313
			c4.143,0,7.5,3.357,7.5,7.5S1879.864,1480.396,1875.722,1480.396z"/>
		<path style="fill:#D7DEFF;" d="M1663.199,1480.396h-74.096c-4.143,0-7.5-3.357-7.5-7.5s3.357-7.5,7.5-7.5h74.096
			c4.143,0,7.5,3.357,7.5,7.5S1667.342,1480.396,1663.199,1480.396z"/>
		<path style="fill:#D7DEFF;" d="M1875.722,1424.333h-286.618c-4.143,0-7.5-3.357-7.5-7.5s3.357-7.5,7.5-7.5h286.618
			c4.143,0,7.5,3.357,7.5,7.5S1879.864,1424.333,1875.722,1424.333z"/>
		<path style="fill:#D7DEFF;" d="M1875.722,1368.269h-94.484c-4.143,0-7.5-3.357-7.5-7.5s3.357-7.5,7.5-7.5h94.484
			c4.143,0,7.5,3.357,7.5,7.5S1879.864,1368.269,1875.722,1368.269z"/>
		<path style="fill:#D7DEFF;" d="M1750.318,1368.269h-161.215c-4.143,0-7.5-3.357-7.5-7.5s3.357-7.5,7.5-7.5h161.215
			c4.143,0,7.5,3.357,7.5,7.5S1754.461,1368.269,1750.318,1368.269z"/>
		<path style="fill:#D7DEFF;" d="M1875.722,1312.205h-65.346c-4.143,0-7.5-3.357-7.5-7.5s3.357-7.5,7.5-7.5h65.346
			c4.143,0,7.5,3.357,7.5,7.5S1879.864,1312.205,1875.722,1312.205z"/>
		<path style="fill:#D7DEFF;" d="M1782.522,1312.205h-105.966c-4.143,0-7.5-3.357-7.5-7.5s3.357-7.5,7.5-7.5h105.966
			c4.143,0,7.5,3.357,7.5,7.5S1786.665,1312.205,1782.522,1312.205z"/>
		<path style="fill:#D7DEFF;" d="M1645.919,1312.205h-56.815c-4.143,0-7.5-3.357-7.5-7.5s3.357-7.5,7.5-7.5h56.815
			c4.143,0,7.5,3.357,7.5,7.5S1650.062,1312.205,1645.919,1312.205z"/>
		<path style="fill:#D7DEFF;" d="M1875.722,1256.142h-286.618c-4.143,0-7.5-3.357-7.5-7.5s3.357-7.5,7.5-7.5h286.618
			c4.143,0,7.5,3.357,7.5,7.5S1879.864,1256.142,1875.722,1256.142z"/>
		<path style="fill:#D7DEFF;" d="M1875.722,1200.078H1754.43c-4.143,0-7.5-3.357-7.5-7.5s3.357-7.5,7.5-7.5h121.292
			c4.143,0,7.5,3.357,7.5,7.5S1879.864,1200.078,1875.722,1200.078z"/>
		<path style="fill:#D7DEFF;" d="M1718.43,1200.078h-129.326c-4.143,0-7.5-3.357-7.5-7.5s3.357-7.5,7.5-7.5h129.326
			c4.143,0,7.5,3.357,7.5,7.5S1722.572,1200.078,1718.43,1200.078z"/>
	</g>
	<g id="_x35_">
		<rect x="958.809" y="1345.47" style="fill:#234270;" width="213.261" height="213.261"/>
		<rect x="958.809" y="1557.262" style="fill:#5279BF;" width="211.945" height="9.784"/>
		<path style="fill:#4867AA;" d="M1068.564,1745.628c4.35,0,7.876-3.761,7.876-8.4v-154.307c0-4.639-3.527-8.4-7.876-8.4
			s-7.876,3.761-7.876,8.4v154.307C1060.687,1741.867,1064.214,1745.628,1068.564,1745.628z"/>
		<path style="fill:#4867AA;" d="M992.273,1777.217c14.519-0.38,0.303-24.838,27.349-27.19c-0.001,0,100.145,0,100.145,0
			c10.737,0,19.472,8.685,19.472,19.36c0.007,10.224,15.732,10.244,15.753-0.001c0-19.31-15.802-35.021-35.225-35.021h-100.146
			C994.846,1731.335,971.035,1773.203,992.273,1777.217z"/>
		<path style="fill:#234270;" d="M1053.428,1582.918h30.273c9.56-0.216,11.99-8.757,11.132-16.794h-52.536
			C1041.438,1574.164,1043.869,1582.702,1053.428,1582.918z"/>
		<path style="fill:#234270;" d="M1049.982,1753.792h37.164c8.669-0.134,7.872-9.434,7.686-15.551
			c0.001-4.22-3.441-7.641-7.686-7.641h-37.164c-4.245,0-7.686,3.421-7.686,7.642
			C1042.126,1744.361,1041.292,1753.652,1049.982,1753.792z"/>
		<path style="fill:#234270;" d="M1132.236,1769.386c0.334,19.448,29.431,19.445,29.762-0.001
			C1161.664,1749.938,1132.567,1749.941,1132.236,1769.386z"/>
		<path style="fill:#234270;" d="M977.392,1769.386c0.334,19.448,29.431,19.445,29.762-0.001
			C1006.82,1749.938,977.724,1749.941,977.392,1769.386z"/>
		<path style="fill:#EB5648;" d="M1274.611,1296.852c-4.826,13.226-11.2,24.233-18.688,33.22l0.014,0.035
			c-18.653,22.569-46.925,33.152-74.848,31.049c-11.712-0.774-25.968,6.375-38.53,6.513c-3.886,0.048-7.605-0.581-11.041-2.316
			c0.395,0.789-43.285-87.895-52.862-109.12c70.723-3.389,113.244,87.81,186.166,20.651c0.156,0.156,12.194,12.18,12.341,12.327
			C1276.381,1291.812,1275.51,1294.391,1274.611,1296.852z"/>
		<path style="fill:#395B96;" d="M1255.949,1329.981c-0.295,0.366-0.59,0.733-0.874,1.14c0.294-0.367,0.558-0.684,0.861-1.01
			l-0.009-0.039C1255.958,1330.02,1255.949,1329.981,1255.949,1329.981z"/>
		<path style="fill:#F99370;" d="M1281.782,1783.97l-68.261-0.749c0.175-10.911,3.082-32.938,0.915-45.389
			c0.002,0,5.112-38.527,5.112-38.527l30.091,0.33l-6.887,50.423c-0.817,5.981,2.732,11.686,8.446,13.63
			c12.542,4.926,26.862,2.784,34.888,12.68C1288.17,1779.693,1285.706,1784.014,1281.782,1783.97z"/>
		<path style="fill:#EB5648;" d="M1211.518,1776.626c0.253,2.311,0.866,4.561,2.002,6.596l68.926,0.757
			c3.352,0.037,5.813-3.235,4.737-6.409c-2.536-7.417-11.504-18.241-43.256-20.251c0,0-10.844,3.098-28.579-0.314
			C1215.347,1757.004,1210.478,1767.255,1211.518,1776.626z"/>
		<path style="fill:#E8C0A6;" d="M1266.919,1774.913c0.545,0,1.064-0.323,1.288-0.858c2.594-6.203,7.171-8.06,7.364-8.136
			c1.683-0.628,0.681-3.279-1.002-2.607c-0.237,0.091-5.862,2.307-8.939,9.666
			C1265.233,1773.871,1265.949,1774.931,1266.919,1774.913z"/>
		<path style="fill:#E8C0A6;" d="M1256.082,1773.484c0.591,0,1.139-0.377,1.329-0.969c2.313-7.193,8.634-10.458,8.698-10.49
			c1.625-0.791,0.349-3.335-1.261-2.492c-0.301,0.153-7.43,3.836-10.096,12.127
			C1254.452,1772.541,1255.156,1773.498,1256.082,1773.484z"/>
		<path style="fill:#E8C0A6;" d="M1243.751,1771.83c0.572,0,1.108-0.355,1.314-0.923c2.689-7.466,8.756-11.481,8.817-11.52
			c1.528-0.961-0.012-3.349-1.518-2.345c-0.28,0.181-6.908,4.536-9.927,12.918
			C1242.097,1770.847,1242.807,1771.847,1243.751,1771.83z"/>
		<path style="fill:#CE3932;" d="M1287.143,1777.456l-75.625-0.83c0.253,2.311,0.866,4.561,2.002,6.596l68.926,0.757
			C1285.844,1784.021,1288.316,1780.645,1287.143,1777.456z"/>
		<path style="fill:#EB5648;" d="M1149.113,1465.236c-69.407,9.693-172.498,5.372-172.498,5.372
			c-22.253-98.693,19.982-184.918,73.797-216.31c0.007,0.007,28.236,1.929,28.243,1.936c18.002,15.853,40.908,42.307,53.554,74.889
			C1145.558,1364.819,1157.521,1446.482,1149.113,1465.236z"/>
		<path style="fill:#CE3932;" d="M1134.488,1338.474c-0.446,0-0.851-0.304-0.959-0.758c-2.766-13.462-12.433-24.862-10.775-26.658
			c2.42-0.514,8.956,13.365,12.695,26.2C1135.604,1337.868,1135.115,1338.482,1134.488,1338.474z"/>
		<path style="fill:#3A72AA;" d="M1062.52,1539.005c39.364,0.131,90.316,22.303,114.256,60.291
			c23.881,36.472,21.841,103.116,21.539,135.919c36.877,11.878,58.803,2.744,58.803,2.744
			c8.174-96.388,19.797-261.495-108.01-272.716c0.005-0.005-116.049-0.005-116.049-0.005
			C1013.653,1504.793,1031.006,1538.333,1062.52,1539.005z"/>
		<path style="fill:#23659B;" d="M1099.857,1476.141l38.733,86.007c21.457,13.659,42.227,35.747,49.946,62.784
			C1196.212,1495.666,1117.127,1481.781,1099.857,1476.141z"/>
		<path style="fill:#F99370;" d="M1198.263,1799.608l-68.261-0.749c0.175-10.911,3.081-32.938,0.915-45.388
			c0.002,0,5.112-38.527,5.112-38.527l30.091,0.33l-3.315,48.728c-0.817,5.981-0.841,13.38,4.874,15.325
			c12.542,4.926,26.862,2.784,34.888,12.68C1204.651,1795.331,1202.187,1799.651,1198.263,1799.608z"/>
		<path style="fill:#EB5648;" d="M1127.999,1792.264c0.253,2.311,0.866,4.561,2.002,6.596l68.926,0.757
			c3.351,0.037,5.813-3.235,4.737-6.409c-2.536-7.417-11.504-18.241-43.256-20.251c0,0-10.844,3.098-28.579-0.314
			C1131.828,1772.642,1126.959,1782.893,1127.999,1792.264z"/>
		<path style="fill:#E8C0A6;" d="M1183.4,1790.55c0.545,0,1.064-0.323,1.288-0.858c2.594-6.204,7.171-8.06,7.365-8.136
			c1.683-0.628,0.68-3.279-1.002-2.607c-0.237,0.09-5.862,2.307-8.939,9.666C1181.714,1789.508,1182.43,1790.569,1183.4,1790.55z"/>
		<path style="fill:#E8C0A6;" d="M1172.563,1789.121c0.591,0,1.139-0.378,1.329-0.969c2.313-7.192,8.634-10.458,8.698-10.49
			c1.625-0.791,0.349-3.335-1.261-2.492c-0.301,0.153-7.43,3.836-10.096,12.127
			C1170.933,1788.178,1171.637,1789.135,1172.563,1789.121z"/>
		<path style="fill:#E8C0A6;" d="M1160.232,1787.468c0.573,0,1.108-0.355,1.314-0.924c2.689-7.466,8.756-11.481,8.817-11.52
			c1.528-0.961-0.012-3.349-1.518-2.345c-0.28,0.181-6.907,4.536-9.927,12.918
			C1158.578,1786.484,1159.288,1787.484,1160.232,1787.468z"/>
		<path style="fill:#CE3932;" d="M1203.624,1793.094l-75.625-0.83c0.253,2.311,0.866,4.561,2.002,6.596l68.926,0.757
			C1202.325,1799.658,1204.797,1796.283,1203.624,1793.094z"/>
		<path style="fill:#3A72AA;" d="M1007.155,1545.394c35.317,21.373,75.508,10.082,100.231,59.995
			c19.888,43.153,13.408,114.936,9.706,150.015c36.877,11.878,56.704,0,56.704,0c35.207-207.573,9.269-279.594-202.045-311.689
			C971.75,1443.714,955.623,1514.209,1007.155,1545.394z"/>
		<path style="fill:#23659B;" d="M1117.092,1755.404c36.877,11.878,56.704,0,56.704,0s0.711-3.593,1.79-9.917
			c0,0-22.426,7.567-57.138-2.527C1117.703,1750.745,1117.092,1755.404,1117.092,1755.404z"/>
		<path style="fill:#23659B;" d="M1198.314,1735.215c36.877,11.878,58.803,2.744,58.803,2.744s0.454-3.685,1.105-10.088
			c0,0-18.465,8.351-59.678-2.066C1198.459,1731.707,1198.314,1735.215,1198.314,1735.215z"/>
		<path style="fill:#F99370;" d="M1025.148,1325.676c-19.119,15.391-62.151,47.931-47.606,73.933
			c18.534,10.579,51.666,10.125,76.647,13.677c7.201,0.504,8.216,11.381,1.351,13.277c-23.542,6.96-48.006,11.32-72.791,10.032
			c-11.207-0.809-23.436-3.299-32.019-11.592c-11.428-11.433-18.096-28.647-16.892-44.938c3.479-39.187,33.584-69.24,63.5-91.213
			C1022.447,1269.592,1050.664,1307.026,1025.148,1325.676z"/>
		<path style="fill:#EB5648;" d="M1031.483,1321.776c-47.289,58.009-53.122,67.034,14.871,90.763
			c-7.363,8.711-2.358,17.229-2.358,17.229c-190.342,55.82-128.465-178.786,6.416-175.47
			C1049.47,1269.052,1042.662,1306.331,1031.483,1321.776z"/>
		<path style="fill:#F99370;" d="M1094.651,1428.726c0,0-7.985-24.188-41.171-15.468l-6.411,15.49L1094.651,1428.726z"/>
		<path style="fill:#E57D61;" d="M1092.873,1428.251c-0.982-0.029-8.914-8.495-20.737-9.726c-0.508-0.052-0.879-0.506-0.827-1.015
			C1077.006,1413.857,1098.754,1428.311,1092.873,1428.251z"/>
		<path style="fill:#E57D61;" d="M1083.949,1428.576c-8.92-3.321-9.734-3.833-16.332-5.092c0.058-0.458,0.222-1.373,0.327-1.823
			c6.929,1.434,6.929,1.434,16.162,5.056C1085.191,1426.93,1085.056,1428.589,1083.949,1428.576z"/>
		<path style="fill:#CE3932;" d="M1036.261,1432.166c2.611-0.779,5.468-1.714,7.738-2.396c0,0-5.005-8.516,2.357-17.228
			c0,0-3.673-1.193-8.897-3.035C1037.459,1409.507,1028.45,1421.058,1036.261,1432.166z"/>
		<path style="fill:#CE3932;" d="M1037.634,1411.578c1.411,0.201-44.618-14.724-44.032-34.193
			c-0.01-22.744,37.233-55.971,38.819-57.375c0.94-0.83,2.285,0.62,1.308,1.478c0.081,0.438-53.996,46.889-33.326,66.873
			C1015.797,1403.446,1043.263,1409.419,1037.634,1411.578z"/>
		<path style="fill:#CE3932;" d="M1021.051,1436.117c-1.149,0.031-1.344-1.759-0.189-1.955c8.324-1.632,15.865-4.296,15.941-4.322
			C1042.369,1431.298,1029.581,1434.319,1021.051,1436.117z"/>
		<path style="fill:#CE3932;" d="M1089.359,1274.552c-7.906,19.182-46.954,7.649-53.098-19.266c0,0,0.007,0,0.007-0.007
			c8.698-1.168,14.145-0.982,14.145-0.982c0.007,0.007,28.236,1.929,28.243,1.936c3.436-0.173,6.776-0.145,10.032,0.055
			C1092.13,1261.004,1090.969,1270.645,1089.359,1274.552z"/>
		<path style="fill:#F99370;" d="M1078.655,1256.234c3.339-14.927,3.29-36.971,2.136-46.171
			c-1.919-18.094-30.701-14.229-27.886,3.656c0.965-0.474,0.454,31.894-2.49,40.578
			C1046.758,1267.374,1089.712,1284.555,1078.655,1256.234z"/>
		<path style="fill:#E57D61;" d="M1052.791,1212.231c0.017,0.495,0.051,0.998,0.114,1.487c0.698-0.363,0.644,17.518-0.703,30.358
			c11.48,6.767,25.185,5.783,27.701,5.54c1.991-16.234,2.072-31.206,0.672-40.763
			C1077.051,1192.517,1052.302,1195.556,1052.791,1212.231z"/>
		<path style="fill:#23659B;" d="M1158.834,1753.627c-0.089,0-0.179-0.007-0.27-0.02c-0.986-0.148-1.666-1.067-1.518-2.053
			c0.192-1.281,18.988-128.763,0.078-183.923c-9.786-28.544-37.201-50.499-58.477-63.89c-23.161-14.578-44.221-22.422-44.431-22.5
			c-0.935-0.345-1.413-1.383-1.068-2.319c0.345-0.935,1.382-1.414,2.319-1.068c0.214,0.079,21.627,8.055,45.104,22.832
			c21.768,13.701,49.842,36.234,59.969,65.775c8.071,23.541,10.534,61.953,7.322,114.168c-2.386,38.796-7.196,71.139-7.244,71.461
			C1160.483,1752.985,1159.713,1753.627,1158.834,1753.627z"/>
		<path style="fill:#23659B;" d="M1242.002,1736.013c-0.041,0-0.083-0.002-0.125-0.004c-0.995-0.068-1.746-0.93-1.678-1.924
			c0.056-0.823,5.507-83.095-4.585-150.901c-5.209-34.999-25.138-60.855-40.939-76.381c-17.189-16.891-33.363-25.575-33.525-25.661
			c-0.88-0.467-1.215-1.561-0.748-2.441c0.468-0.88,1.56-1.215,2.441-0.748c0.674,0.358,16.724,8.964,34.28,26.193
			c16.229,15.926,36.699,42.474,42.063,78.506c10.151,68.201,4.672,150.852,4.615,151.679
			C1243.737,1735.284,1242.943,1736.013,1242.002,1736.013z"/>
		<path style="fill:#1D3F70;" d="M1104.045,1196.491c0,0,1.806-14.514-1.298-25.138l-8.856,2.884L1104.045,1196.491z"/>
		<path style="fill:#F99370;" d="M1098.271,1238.887c-11.258,8.601-26.854,9.284-38.627,4.943
			c-3.683-1.296-7.101-3.134-10.029-5.589l-0.005,0c-0.99-0.829-1.913-1.713-2.78-2.665l-0.015,0
			c-39.613-53.083,33.966-120.33,53.175-49.805C1107.016,1205.859,1122.447,1218.281,1098.271,1238.887z"/>
		<path style="fill:#C16256;" d="M1083.716,1198.342c0.594-0.845,0.389-2.011-0.457-2.605c-0.847-0.593-2.014-0.389-2.608,0.457
			c-0.594,0.845-0.389,2.012,0.457,2.605C1081.955,1199.392,1083.123,1199.188,1083.716,1198.342z"/>
		<path style="fill:#C16256;" d="M1099.673,1197.948c0.594-0.845,0.389-2.012-0.457-2.605c-0.846-0.593-2.014-0.389-2.608,0.457
			c-0.594,0.845-0.389,2.011,0.457,2.605C1097.911,1198.998,1099.079,1198.793,1099.673,1197.948z"/>
		<path style="fill:#C16256;" d="M1092.562,1213.297c-1.104-0.026-2.204-0.243-3.098-0.676c-0.353-0.17-0.499-0.595-0.329-0.945
			c0.171-0.355,0.6-0.494,0.946-0.328c2.243,1.086,5.741,0.385,6.35-0.613c0.214-0.351-0.237-0.794-0.653-1.101
			c-3.67-2.718-5.265-10.616-5.33-10.95c-0.076-0.384,0.173-0.756,0.558-0.832c0.398-0.079,0.757,0.175,0.833,0.557
			c0.016,0.076,1.554,7.695,4.784,10.087c1.76,1.304,1.3,2.514,1.021,2.974C1096.914,1212.667,1094.727,1213.347,1092.562,1213.297z
			"/>
		<path style="fill:#E57D61;" d="M1098.497,1180.872c-9.3-6.723-28.212-4.486-37.151-5.827c0,0-0.269,15.572-17.264,24.281
			c-3.302,13.885-6.489,19.7,5.534,38.915l-0.005,0c-0.99-0.829-1.913-1.713-2.78-2.665l-0.015,0
			C1008.607,1184.899,1077.313,1117.397,1098.497,1180.872z"/>
		<path style="fill:#1D3F70;" d="M1110.422,1151.457c-4.156-12.192-20.391-20.803-37.159-8.838
			c-12.91,9.213-25.182,7.385-26.55,18.823c-24.289,7.123-16.528,33.861-16.528,33.861l11.629,0.269
			c14.566-8.718,16.373-24.314,16.373-24.314l-0.003-0.003c2.893,0.557,5.979,0.867,8.794,0.558
			c8.723-0.957,21.328-0.23,30.325,4.611C1106.302,1181.264,1115.068,1165.083,1110.422,1151.457z"/>
		<path style="fill:#F99370;" d="M1027.249,1204.29c0.404,6.048,4.68,10.688,9.552,10.364c4.872-0.324,8.494-5.49,8.091-11.537
			c-0.404-6.048-4.68-10.688-9.552-10.364C1030.468,1193.077,1026.845,1198.242,1027.249,1204.29z"/>
		<path style="fill:#C16256;" d="M1039.582,1198.104c-0.173-0.097-4.272-2.386-7.03-0.476c-0.703,0.485-1.227,1.203-1.595,2.12
			c-0.001,0.002-0.001,0.004-0.002,0.006c-0.034,0.086-0.077,0.161-0.108,0.25c0,0.002-0.002,0.003-0.002,0.004
			c0,0,0.001,0.001,0,0.001c-0.602,1.718-0.668,4.119-0.19,7.191c0.055,0.343,0.348,0.591,0.685,0.599
			c0.041,0.001,0.082-0.002,0.125-0.008c0.386-0.06,0.652-0.423,0.592-0.809c-0.389-2.49-0.391-4.47-0.037-5.915
			c3.94,1.297,5.326,6.111,5.338,6.163c0.084,0.311,0.362,0.518,0.669,0.525c0.065,0.001,0.132-0.008,0.2-0.026
			c0.379-0.099,0.602-0.487,0.502-0.865c-0.066-0.24-1.553-5.611-6.175-7.161c0.224-0.373,0.484-0.689,0.802-0.909
			c2.026-1.405,5.496,0.524,5.528,0.542c0.346,0.192,0.772,0.07,0.966-0.269C1040.041,1198.728,1039.921,1198.298,1039.582,1198.104
			z"/>
		<path style="fill:#C16256;" d="M1088.447,1225.162c-1.978-0.276-3.234-2.587-2.861-5.262s2.215-4.553,4.193-4.277
			c1.978,0.276,3.234,2.587,2.861,5.262C1092.266,1223.559,1090.425,1225.438,1088.447,1225.162z M1089.575,1217.083
			c-1.12-0.156-2.278,1.227-2.529,3.021c-0.25,1.794,0.484,3.441,1.604,3.598c1.12,0.156,2.278-1.227,2.528-3.021
			C1091.43,1218.887,1090.695,1217.24,1089.575,1217.083z"/>
		<path style="fill:#C16256;" d="M1074.914,1193.167c-0.005-0.001-0.01-0.002-0.015-0.002c-0.401-0.064-0.675-0.441-0.612-0.842
			c0.012-0.075,1.263-7.496,8.468-9.044c0.398-0.086,0.79,0.168,0.876,0.566c0.086,0.398-0.168,0.79-0.566,0.876
			c-6.201,1.332-7.278,7.568-7.321,7.833C1075.68,1192.95,1075.311,1193.223,1074.914,1193.167z"/>
		<path style="fill:#C16256;" d="M1099.804,1191.873c-0.286-0.04-0.534-0.247-0.612-0.543c-1.588-6.057-6.173-6.57-6.22-6.575
			c-0.404-0.044-0.702-0.4-0.662-0.805c0.04-0.405,0.4-0.702,0.805-0.662c0.227,0.021,5.658,0.629,7.504,7.669
			c0.103,0.394-0.132,0.797-0.526,0.9C1099.996,1191.881,1099.898,1191.886,1099.804,1191.873z"/>
		<rect x="882.617" y="1451.255" style="fill:#5279BF;" width="475.808" height="31.193"/>
		<polygon style="fill:#395B96;" points="1393.58,1436.051 844.338,1436.051 844.338,1452.4 874.01,1452.4 874.01,1816.85 
			891.224,1816.85 891.224,1452.4 1346.695,1452.4 1346.695,1816.85 1363.908,1816.85 1363.908,1452.4 1393.58,1452.4 		"/>
		
			<rect x="1209.021" y="1375.111" transform="matrix(-1 -1.224647e-16 1.224647e-16 -1 2484.6838 2810.7764)" style="fill:#0B274F;" width="66.641" height="60.554"/>
		
			<rect x="1218.757" y="1375.111" transform="matrix(-1 -1.224647e-16 1.224647e-16 -1 2494.4189 2810.7764)" style="fill:#163260;" width="56.906" height="60.554"/>
		
			<rect x="1218.757" y="1375.111" transform="matrix(-1 -1.224647e-16 1.224647e-16 -1 2494.4189 2786.791)" style="fill:#0B274F;" width="56.906" height="36.569"/>
		
			<rect x="1043.998" y="1428.251" transform="matrix(-1 -1.224647e-16 1.224647e-16 -1 2349.1675 2864.7026)" style="fill:#0B274F;" width="261.171" height="8.2"/>
		
			<rect x="1191.592" y="1428.251" transform="matrix(-1 -1.224647e-16 1.224647e-16 -1 2496.761 2864.7026)" style="fill:#163260;" width="113.577" height="8.2"/>
		<polygon style="fill:#163260;" points="1362.703,1405.388 1120.415,1405.388 1152.931,1227.79 1393.756,1227.79 		"/>
		<polygon style="fill:#0B274F;" points="1156.572,1227.79 1147.904,1227.79 1116.144,1405.388 1123.488,1405.388 		"/>
	</g>
	<g id="_x34__2_">
		<rect x="398.815" y="1357.698" style="fill:#234270;" width="215.451" height="215.451"/>
		<rect x="398.815" y="1571.664" style="fill:#5279BF;" width="214.121" height="9.884"/>
		<path style="fill:#4867AA;" d="M509.697,1748.693c4.394,0,7.957-3.542,7.957-7.911v-145.328c0-4.369-3.563-7.911-7.957-7.911
			c-4.394,0-7.957,3.542-7.957,7.911v145.328C501.74,1745.151,505.302,1748.693,509.697,1748.693z"/>
		<path style="fill:#4867AA;" d="M432.623,1780.606c14.668-0.384,0.306-25.092,27.63-27.47c-0.001,0,101.174,0,101.174,0
			c10.847,0,19.672,8.774,19.672,19.559c0.007,10.329,15.893,10.349,15.914-0.001c0-19.508-15.964-35.38-35.587-35.38H460.253
			C435.222,1734.253,411.167,1776.551,432.623,1780.606z"/>
		<path style="fill:#234270;" d="M494.405,1598.282h30.584c9.658-0.218,12.113-8.847,11.246-16.967h-53.076
			C482.293,1589.438,484.748,1598.064,494.405,1598.282z"/>
		<path style="fill:#234270;" d="M490.924,1756.941h37.545c8.758-0.135,7.952-9.531,7.764-15.71c0.001-4.264-3.476-7.72-7.764-7.72
			h-37.545c-4.289,0-7.765,3.456-7.765,7.72C482.987,1747.413,482.145,1756.8,490.924,1756.941z"/>
		<path style="fill:#234270;" d="M574.022,1772.696c0.338,19.648,29.733,19.645,30.068-0.001
			C603.753,1753.048,574.357,1753.051,574.022,1772.696z"/>
		<path style="fill:#234270;" d="M417.589,1772.696c0.337,19.648,29.733,19.645,30.068-0.001
			C447.319,1753.048,417.924,1753.051,417.589,1772.696z"/>
		<path style="fill:#662948;" d="M525.514,1150.602c0,0,15.976-9.015,27.507,11.589c11.531,20.605,3.148,22.642,20.009,45.388
			c16.861,22.746-11.828,50.438-30.137,52.187c-18.308,1.749-2.64,26.155-38.156,24.527
			C469.222,1282.665,401.443,1175.698,525.514,1150.602z"/>
		<path style="fill:#3A72AA;" d="M520.942,1268.668c0.933,2.217,10.296,24.329,10.896,25.761
			c17.452,22.402,53.647,68.889,70.915,91.065C622.652,1325.505,566.885,1269.722,520.942,1268.668z"/>
		<path style="fill:#F99370;" d="M683.732,1816.76l-73.457-0.806c0.189-11.742,3.316-35.446,0.985-48.843
			c0.002,0,5.501-41.46,5.501-41.46l32.382,0.356l-7.412,54.261c-0.879,6.436,2.939,12.575,9.089,14.668
			c13.496,5.301,28.906,2.996,37.543,13.645C690.606,1812.157,687.954,1816.806,683.732,1816.76z"/>
		<path style="fill:#1D3F70;" d="M608.12,1808.856c0.272,2.487,0.932,4.908,2.154,7.098l74.172,0.814
			c3.607,0.04,6.256-3.481,5.097-6.897c-2.729-7.982-12.379-19.629-46.549-21.793c0,0-11.67,3.334-30.755-0.338
			C612.24,1787.741,607,1798.772,608.12,1808.856z"/>
		<path style="fill:#E8C0A6;" d="M667.737,1807.013c0.587,0,1.145-0.347,1.386-0.923c2.792-6.676,7.717-8.674,7.925-8.756
			c1.811-0.676,0.732-3.529-1.078-2.806c-0.255,0.097-6.308,2.482-9.619,10.401C665.923,1805.891,666.693,1807.033,667.737,1807.013
			z"/>
		<path style="fill:#E8C0A6;" d="M656.075,1805.475c0.636,0,1.226-0.406,1.43-1.043c2.489-7.74,9.292-11.254,9.36-11.289
			c1.749-0.851,0.376-3.589-1.357-2.682c-0.324,0.165-7.995,4.128-10.864,13.05C654.321,1804.46,655.078,1805.49,656.075,1805.475z"
			/>
		<path style="fill:#E8C0A6;" d="M642.806,1803.696c0.616,0,1.193-0.382,1.414-0.994c2.893-8.034,9.422-12.354,9.488-12.397
			c1.645-1.034-0.013-3.604-1.634-2.523c-0.301,0.195-7.433,4.881-10.682,13.901C641.026,1802.637,641.79,1803.713,642.806,1803.696
			z"/>
		<path style="fill:#395B96;" d="M689.501,1809.75l-81.381-0.893c0.272,2.487,0.932,4.908,2.154,7.098l74.172,0.814
			C688.102,1816.814,690.763,1813.182,689.501,1809.75z"/>
		<path style="fill:#F99370;" d="M776.511,1747.771l-70.314,21.274c-3.343-11.257-7.473-34.807-13.717-46.888
			c0.002-0.001-7.194-41.2-7.194-41.2l30.996-9.378l9.212,53.984c1.093,6.403,6.578,11.114,13.072,11.264
			c14.465,1.007,28.473-5.816,39.907,1.75C781.688,1741.317,780.553,1746.548,776.511,1747.771z"/>
		<path style="fill:#1D3F70;" d="M702.012,1762.921c1.006,2.291,2.362,4.402,4.185,6.125l70.998-21.481
			c3.452-1.045,4.923-5.198,2.793-8.109c-4.999-6.795-17.699-15.01-50.943-6.82c0,0-10.131,6.682-29.439,8.907
			C699.606,1741.543,697.918,1753.638,702.012,1762.921z"/>
		<path style="fill:#E8C0A6;" d="M758.329,1743.272c0.56-0.176,0.988-0.675,1.045-1.297c0.66-7.206,4.758-10.59,4.932-10.73
			c1.525-1.188-0.36-3.586-1.87-2.353c-0.214,0.17-5.272,4.261-6.055,12.809C756.262,1742.747,757.339,1743.605,758.329,1743.272z"
			/>
		<path style="fill:#E8C0A6;" d="M746.743,1745.305c0.606-0.191,1.047-0.755,1.052-1.424c0.051-8.13,5.486-13.524,5.541-13.577
			c1.413-1.336-0.718-3.536-2.099-2.151c-0.26,0.254-6.388,6.337-6.447,15.709C744.766,1744.864,745.797,1745.618,746.743,1745.305z
			"/>
		<path style="fill:#E8C0A6;" d="M733.551,1747.59c0.588-0.185,1.023-0.722,1.051-1.372c0.349-8.532,5.281-14.613,5.331-14.673
			c1.259-1.48-1.094-3.435-2.315-1.917c-0.229,0.276-5.626,6.886-6.019,16.466C731.536,1747.114,732.588,1747.911,733.551,1747.59z"
			/>
		<path style="fill:#395B96;" d="M779.911,1739.352l-77.899,23.569c1.006,2.291,2.362,4.402,4.185,6.125l70.998-21.481
			C780.697,1746.511,782.145,1742.248,779.911,1739.352z"/>
		<path style="fill:#9358E0;" d="M655.605,1772.695c0,0-20.867,7.912-47.643,0c-3.057-67.393,11.422-203.033-92.665-200.823
			c-46.985,0.751-107.072-49.327-87.478-99.465c0,0,117.246,0,117.239,0.007C667.479,1498.797,665.431,1640.189,655.605,1772.695z"
			/>
		<path style="fill:#7640CC;" d="M658.735,1648.485c-23.103-76.466-40.469-80.566-102.364-69.225
			c-28.925-5.622-52.67-7.372-75.725-14.096l21.094-90.515C612.666,1465.946,659.494,1544.148,658.735,1648.485z"/>
		<path style="fill:#9358E0;" d="M730.322,1711.055c0,0-14.24,20.171-45.267,18.764c-6.237-22.663-15.124-76.875-27.697-109.958
			c-23.567-79.533-63.878-55.083-142.064-47.99c-98.27,6.472-109.954-79.322-91.051-106.449
			C643.661,1466.695,706.88,1423.429,730.322,1711.055z"/>
		<path style="fill:#3A72AA;" d="M411.116,1435.322c0.798,11.268,2.626,23.108,5.691,35.527c0,0,91.358,9.035,161.474-0.758
			c0,0-12.585-46.044-10.331-70.429c1.988-21.493,11.593-32.877,4.693-53.207c-8.77-23.077-37.383-55.098-51.693-77.781
			c-0.002-0.017-29.086-1.83-29.092-1.836C467.812,1296.538,405.333,1334.09,411.116,1435.322z"/>
		<path style="fill:#23659B;" d="M574.053,1350.942c-4.509-14.013-22.615-38.917-23.524-38.683
			c-0.359-0.418-0.313-1.047,0.103-1.407c2.329-1.075,20.277,22.709,24.397,38.881
			C575.169,1350.345,574.679,1350.95,574.053,1350.942z"/>
		<path style="fill:#F4D4BE;" d="M514.778,1306.028c-0.065,4.444,6.916,4.444,6.85,0
			C521.693,1301.584,514.712,1301.584,514.778,1306.028z"/>
		<path style="fill:#F4D4BE;" d="M517.905,1318.787c-0.065,4.444,6.916,4.444,6.85,0
			C524.82,1314.343,517.84,1314.343,517.905,1318.787z"/>
		<path style="fill:#F99370;" d="M465.835,1324.429c-19.316,15.548-62.789,48.423-48.095,74.692
			c18.724,10.688,52.196,10.229,77.434,13.817c7.275,0.509,8.3,11.497,1.365,13.413c-23.783,7.032-47.488,7.783-72.528,6.481
			c-11.322-0.817-24.687,0.321-33.358-8.057c-11.545-11.551-18.282-28.941-17.066-45.4c3.515-39.589,33.929-69.951,64.152-92.15
			C463.107,1267.77,491.613,1305.587,465.835,1324.429z"/>
		<path style="fill:#3A72AA;" d="M473.51,1433.008c3.545-0.897,8.038-2.419,11.369-3.417c0,0-5.057-8.603,2.381-17.404
			c-115.621-36.122-0.127-65.349,4.599-145.351C407.638,1235.501,263.926,1468.786,473.51,1433.008z"/>
		<path style="fill:#F99370;" d="M536.052,1428.537c0,0-8.067-24.436-41.594-15.626l-6.477,15.649L536.052,1428.537z"/>
		<path style="fill:#E57D61;" d="M534.255,1428.057c-0.994-0.03-9.004-8.581-20.95-9.826c-0.513-0.052-0.887-0.511-0.835-1.026
			C518.224,1413.515,540.196,1428.118,534.255,1428.057z"/>
		<path style="fill:#E57D61;" d="M525.24,1428.386c-9.032-3.363-9.826-3.869-16.491-5.142c0.052-0.464,0.214-1.389,0.322-1.844
			c7.004,1.449,7.004,1.449,16.346,5.115C526.501,1426.74,526.345,1428.403,525.24,1428.386z"/>
		<path style="fill:#F4D4BE;" d="M539.061,1271.711c-3.302,5.863-17.007,3.679-10.499,15.99c1.867,3.397-2.132,8.81-7.565,5.777
			c-5.433-3.033-6.299-3.177-7.743-2.744c-1.444,0.433-1.589,6.499-7.51,5.921c-5.921-0.578-4.044-9.64-7.51-12.113
			c-3.466-2.473-11.318,5.326-17.574-1.606c0,0-4.179-5.872,2.726-13.623c2.818-4.718,32.537-0.449,37.557-0.647
			C520.944,1268.667,528.62,1266.798,539.061,1271.711z"/>
		<path style="fill:#F99370;" d="M520.997,1260.204l-0.053,8.463l-7.544,15.8l-21.543-17.629c0,0,1.339-9.872,0.799-14.026
			L520.997,1260.204z"/>
		<path style="fill:#E57D61;" d="M520.997,1260.204c-6.147,0.07-18.766-0.713-28.341-7.392c0.168-0.862,0.324-1.752,0.474-2.653
			c1.869-8.568,2.399-16.245,2.696-21.186c0.286-9.312-0.709-13.013,5.568-18.628c8.348-7.105,22.522-1.616,23.66,9.478
			C525.652,1225.128,523.702,1242.455,520.997,1260.204z"/>
		<path style="fill:#F99370;" d="M541.297,1248.879c-11.735,8.089-27.4,7.951-38.995,3.007c-0.657-0.282-1.326-0.563-1.949-0.875
			c-24.88-12.096-24.436-53.774-9.567-73.045c9.301-13.154,29.274-18.364,42.501-8.283c9.136,7.396,10.973,18.536,13.396,30.352
			c0.811,3.111,2.718,7.333,4.8,10.362C559.426,1222.283,556.396,1237.913,541.297,1248.879z"/>
		<path style="fill:#E57D61;" d="M512.9,1190.026c-22.383,2.735-23.316,20.224-23.316,20.224l-6.622-10.509l23.971-28.62
			l19.314-5.218c4.306,1.409,7.973,4.02,10.839,7.551C537.085,1173.455,535.283,1187.291,512.9,1190.026z"/>
		<path style="fill:#C16256;" d="M528.767,1207.431c1.529-1.901-1.493-4.259-2.965-2.313
			C524.273,1207.019,527.295,1209.377,528.767,1207.431z"/>
		<path style="fill:#C16256;" d="M544.79,1207.847c1.529-1.901-1.492-4.259-2.965-2.313
			C540.297,1207.435,543.318,1209.793,544.79,1207.847z"/>
		<path style="fill:#C16256;" d="M537.598,1222.924c-1.317-0.136-4.363-0.108-4.076-1.828c0.19-0.344,0.622-0.47,0.966-0.281
			c2.19,1.292,8.207,0.771,5.798-1.433c-3.531-2.731-6.456-14.734-3.378-11.472c0.012,0.078,1.167,7.806,4.283,10.373
			C544.388,1221.518,540.621,1222.835,537.598,1222.924z"/>
		<path style="fill:#662948;" d="M533.282,1169.683c0.52-19.799-37.912-60.701-77.594-15.98
			c-28.931,35.748-95.866,68.499-48.136,100.529c18.996,7.249-0.04,22.971,10.941,34.915s29.826,6.302,26.266,29.12
			c-3.561,22.819,9.79,30.791,25.73,32.544c15.941,1.753,42.42-37.099,27.174-55.154c-15.245-18.056,2.24-26.871-2.669-47.844
			c-4.909-20.973-14.113-26.389-14.113-26.389l7.087-17.323C492.786,1181.507,530.524,1190.875,533.282,1169.683z"/>
		<path style="fill:#23659B;" d="M477.062,1432.012c2.638-0.787,5.524-1.732,7.817-2.421c0,0-5.057-8.603,2.381-17.404
			c0,0-3.711-1.205-8.988-3.066C478.272,1409.121,469.171,1420.79,477.062,1432.012z"/>
		<path style="fill:#23659B;" d="M478.451,1411.212c-20.356-7.26-64.832-24.255-32.017-59.266c0.87-0.944,2.35,0.4,1.465,1.352
			c-0.202,0.219-19.997,22.001-7.03,34.488C455.818,1403.796,484.173,1408.858,478.451,1411.212z"/>
		<path style="fill:#23659B;" d="M461.696,1436.004c-1.161,0.031-1.358-1.777-0.191-1.976c8.41-1.648,16.03-4.339,16.105-4.366
			C483.234,1431.136,470.314,1434.187,461.696,1436.004z"/>
		<path style="fill:#C16256;" d="M519.42,1202.578c-0.26,0-0.514-0.136-0.65-0.38c-0.202-0.359-0.075-0.813,0.284-1.014
			c0.259-0.146,6.41-3.547,12.703-2.106c0.401,0.092,0.651,0.492,0.56,0.893c-0.092,0.401-0.489,0.65-0.893,0.56
			c-5.738-1.315-11.581,1.919-11.64,1.951C519.668,1202.547,519.543,1202.578,519.42,1202.578z"/>
		<path style="fill:#C16256;" d="M546.853,1201.396c-0.12,0-0.242-0.029-0.356-0.091c-2.635-1.435-6.177-1.099-6.211-1.094
			c-0.407,0.048-0.774-0.257-0.816-0.667c-0.041-0.409,0.257-0.775,0.667-0.816c0.162-0.017,4.038-0.384,7.073,1.269
			c0.361,0.196,0.494,0.649,0.298,1.01C547.373,1201.256,547.117,1201.396,546.853,1201.396z"/>
		<path style="fill:#C16256;" d="M534.935,1229.545c-6.331,0-9.851-4.439-10.02-4.657c-0.252-0.325-0.192-0.793,0.133-1.045
			c0.325-0.251,0.793-0.192,1.045,0.133c0.184,0.236,4.333,5.4,11.701,3.755c0.404-0.087,0.8,0.163,0.889,0.565
			c0.09,0.402-0.163,0.8-0.565,0.889C536.99,1229.436,535.927,1229.545,534.935,1229.545z"/>
		<path style="fill:#F99370;" d="M475.814,1216.204c3.071,13.959,19.769,10.55,17.125-3.494
			C489.868,1198.751,473.171,1202.16,475.814,1216.204z"/>
		<path style="fill:#C16256;" d="M480.337,1219.095c0.406-0.074,0.663-0.493,0.543-0.888c-2.531-7.53,0.561-10.442,5.673-8.406
			c0.836,0.35,1.368-0.978,0.519-1.301c-5.818-2.426-10.634,1.235-7.534,10.107C479.641,1218.953,479.989,1219.16,480.337,1219.095z
			"/>
		<path style="fill:#C16256;" d="M486.882,1218.161c1.827-0.392-2.035-6.835-7.365-7.283c-0.385-0.027-0.722,0.262-0.75,0.647
			c-0.028,0.386,0.262,0.722,0.647,0.75C484.978,1212.88,485.344,1218.134,486.882,1218.161z"/>
		<path style="fill:#F4D4BE;" d="M487.503,1224.432c0,1.726-1.399,3.126-3.125,3.126c-1.726,0-3.126-1.399-3.126-3.126
			s1.399-3.126,3.126-3.126C486.103,1221.307,487.503,1222.706,487.503,1224.432z"/>
		
			<rect x="656.797" y="1375.097" transform="matrix(-1 -1.224647e-16 1.224647e-16 -1 1380.2358 2810.7483)" style="fill:#0B274F;" width="66.641" height="60.554"/>
		
			<rect x="666.533" y="1375.097" transform="matrix(-1 -1.224647e-16 1.224647e-16 -1 1389.9712 2810.7483)" style="fill:#163260;" width="56.906" height="60.554"/>
		
			<rect x="666.533" y="1375.097" transform="matrix(-1 -1.224647e-16 1.224647e-16 -1 1389.9712 2786.7629)" style="fill:#0B274F;" width="56.906" height="36.569"/>
		
			<rect x="487.981" y="1428.255" transform="matrix(-1 -1.224647e-16 1.224647e-16 -1 1240.9263 2864.6921)" style="fill:#0B274F;" width="264.964" height="8.183"/>
		
			<rect x="639.368" y="1428.255" transform="matrix(-1 -1.224647e-16 1.224647e-16 -1 1392.3129 2864.6921)" style="fill:#163260;" width="113.577" height="8.183"/>
		<polygon style="fill:#163260;" points="810.479,1405.374 568.191,1405.374 600.707,1227.776 841.532,1227.776 		"/>
		<polygon style="fill:#0B274F;" points="604.348,1227.776 595.68,1227.776 563.92,1405.374 571.264,1405.374 		"/>
		<rect x="327.943" y="1450.868" style="fill:#4867AA;" width="475.011" height="30.632"/>
		<polygon style="fill:#395B96;" points="838.051,1435.937 289.729,1435.937 289.729,1451.993 319.351,1451.993 319.351,1816.769 
			336.535,1816.769 336.535,1451.993 791.244,1451.993 791.244,1816.769 808.428,1816.769 808.428,1451.993 838.051,1451.993 		"/>
	</g>
	<g id="_x33_">
		<path style="fill:#EB5648;" d="M1654.001,1125.03c0,0,16.835-7.292,42.861,2.043l-5.304,8.102l-43.17-2.724L1654.001,1125.03z"/>
		<path style="fill:#F99370;" d="M1661.183,1126.802c-0.165-14.896,4.337-35.896,7.293-44.421c1.569-4.611,5.318-7.834,9.239-8.626
			c10.066-2.369,20.714,7.1,16.591,17.744c-0.824-0.645-6.876,30.293-5.826,39.164
			C1713.331,1141.01,1633.576,1158.329,1661.183,1126.802z"/>
		<path style="fill:#1D3F70;" d="M1625.609,1210.864c-1.323,0.684,16.384,0.547,15.243,1.871
			c-37.279,32.241-92.896,42.449-134.172,11.044v-0.045c-12.282-8.987-24.691-23.445-33.315-38.564l10.131-16.429
			c80.481,49.66,112.248-35.341,177.687-41.939l-13.028,19.393L1625.609,1210.864z"/>
		<path style="fill:#F99370;" d="M1714.954,1778.267l1.228-0.641c0,0.859,1.063,3.844,1.922,3.844l36.308,0.747
			c0.859,0,1.388-1.618,1.388-2.477l3.097-0.886c0-5.437-0.448-7.408-2.849-11.616c-8.827-11.732,1.711-64.203,1.406-77.911
			c2.177-3.748-38.234-0.807-38.799-1.693c-4.13-0.275,4.197,59.963,3.203,61.636
			C1723.993,1760.655,1715.257,1767.535,1714.954,1778.267z"/>
		<path style="fill:#F99370;" d="M1557.564,1783.491h72.321c6.313-0.254,6.265-6.693,5.101-11.686
			c-3.982-17.998,3.057-59.325,4.362-77.834c0.347-3.389-2.312-6.335-5.72-6.335h-31.918c-3.46,0-6.136,3.033-5.705,6.465
			l5.805,46.285c2.881,20.527-20.555,23.704-34.506,26.165C1558.298,1767.295,1543.155,1779.42,1557.564,1783.491z"/>
		<path style="fill:#103663;" d="M1637.74,1775.989c-0.195,3.546-1.953,7.591-6.061,7.503c0,0-75.017,0-75.017,0
			c-17.823-6.15,8.932-30.22,43.454-29.898c5.092,0.493,12.317,2.933,29.122,0.651
			C1638.269,1754.255,1637.716,1767.965,1637.74,1775.989z"/>
		<path style="fill:#103663;" d="M1753.144,1783.492h-32.063c-4.033,0-7.29-3.345-7.116-7.375
			c0.389-8.907,4.067-22.374,23.143-22.572C1757.561,1750.957,1768.758,1781.387,1753.144,1783.492z"/>
		<path style="fill:#E8C0A6;" d="M1574.545,1773.339c-0.629,0-1.225-0.376-1.477-0.995c-2.885-7.113-8.084-9.291-8.303-9.379
			c-4.104-6.39,7.754-1.842,11.256,8.183C1576.462,1772.165,1575.647,1773.361,1574.545,1773.339z"/>
		<path style="fill:#E8C0A6;" d="M1586.933,1771.844c-0.681,0-1.311-0.439-1.522-1.122c-2.535-8.191-9.727-12.046-9.8-12.084
			c-1.839-0.927-0.346-3.807,1.472-2.827c0.344,0.177,8.433,4.47,11.372,13.967
			C1588.786,1770.781,1587.983,1771.861,1586.933,1771.844z"/>
		<path style="fill:#E8C0A6;" d="M1601.029,1770.111c-0.66,0-1.276-0.411-1.505-1.07c-2.977-8.555-9.852-13.212-9.921-13.259
			c-2.87-7.793,9.635,1.657,12.931,12.212C1602.908,1769.004,1602.1,1770.129,1601.029,1770.111z"/>
		<path style="fill:#E8C0A6;" d="M1748.609,1763.078c-11.777-6.818-22.699,2.014-24.73-0.936c-1.158-3.346,14.269-8.03,25.537-2.035
			C1750.815,1760.865,1750.172,1763.138,1748.609,1763.078z"/>
		<path style="fill:#0F2E54;" d="M1551.413,1775.989h86.328c-0.318,2.635-1.046,5.195-2.367,7.504h-78.711
			C1552.785,1783.498,1550.036,1779.612,1551.413,1775.989z"/>
		<path style="fill:#0F2E54;" d="M1753.144,1783.492h-32.063c-4.079,0.004-7.362-3.433-7.11-7.504h46.284
			C1760.503,1780.059,1757.223,1783.498,1753.144,1783.492z"/>
		<path style="fill:#9358E0;" d="M1762.512,1742.577c0,0-34.196,8.306-51.813-0.619c-9.17-57.503-34.624-217.615-43.49-327.333
			c-0.339,6.397-18.965,264.416-22.51,327.333c-12.163,4.07-36.621,8.979-50.308-0.878c-6.148-66.234-25.89-284.298,3.848-462.396
			c0,0,81.493,9.065,145.135-10.166C1760.892,1325.012,1765.532,1674.784,1762.512,1742.577z"/>
		<path style="fill:#7640CC;" d="M1607.547,1735.582c-16.538-190.585,3.162-355.426,7.921-356.021
			C1618.724,1381.153,1598.924,1545.476,1607.547,1735.582z"/>
		<path style="fill:#7640CC;" d="M1735.605,1735.582c-11.279-196.399-40.342-378.576-36.797-381.575
			C1703.374,1354.556,1732.167,1540.096,1735.605,1735.582z"/>
		<path style="fill:#163356;" d="M1607.766,1192.015l-12.55,46.048c-26.881,8.261-55.54,6.389-80.823-9.127
			c27.792,15.699,65.991,6.846,72.015-2.373C1592.751,1216.797,1606.899,1193.43,1607.766,1192.015z"/>
		<path style="fill:#1D3F70;" d="M1755.233,1345.413c-2.911,3.538-6.014,7.085-9.302,10.649c0,0-16.011,3.011-28.55-13.669
			c51.133-105.028-46.098-119.724-28.901-211.731C1759.253,1134.268,1847.24,1233.731,1755.233,1345.413z"/>
		<path style="fill:#163356;" d="M1755.233,1345.413c-2.911,3.538-6.014,7.085-9.302,10.649c0,0-16.011,3.011-28.55-13.669
			c1.843-4.475,3.568-8.913,5.136-13.359C1722.517,1329.034,1732.22,1340.678,1755.233,1345.413z"/>
		<path style="fill:#7640CC;" d="M1747.082,1358.206c-27.499,1.632-41.096-27.172-30.016-20.594
			c0.279,0.725,7.062,17.47,32.411,16.359C1754.13,1355.133,1750.689,1359.214,1747.082,1358.206z"/>
		<path style="fill:#1D3F70;" d="M1750.437,1324.506c-5.455,11.464,1.925,5.941-20.715,6.763
			c-25.996,0.82-42.247,24.676-75.208,34.396c-24.975,7.234-56.259,11.506-67.826-1.854
			c-17.403-35.063,5.508-154.676,34.742-198.145c7.963-11.286,16.272-19.711,23.19-25.856c8.039-7.111,5.527-9.739,6.763-11.633
			c0-0.039,0.039-0.116,0.077-0.154c1.305-0.191,8.283-1.054,9.739-1.237c-0.232,0.85-7.15,25.894,27.285,3.865
			c5.076-0.635,13.142,7.521,12.984,13.953C1702.022,1168.632,1758.186,1278.974,1750.437,1324.506z"/>
		<path style="fill:#163356;" d="M1727.998,1337.072l-7.846-1.631c31.368-70.613-5.523-100.465-25.037-140.249
			C1740.363,1247.554,1747.212,1276.261,1727.998,1337.072z"/>
		<path style="fill:#7640CC;" d="M1644.699,1741.958c0.023-0.052-4.415,1.64-10.557,2.811c0,0,17.182-256.055,19.742-290.226
			c2.56-34.171,13.325-39.918,13.325-39.918S1644.414,1736.428,1644.699,1741.958z"/>
		<path style="fill:#7640CC;" d="M1645.376,1729.544c-0.46,7.386-0.711,11.803-0.677,12.414c-12.163,4.07-36.621,8.979-50.308-0.878
			c0,0-0.435-4.057-1.146-11.536C1593.245,1729.544,1617.219,1740.569,1645.376,1729.544z"/>
		<path style="fill:#7640CC;" d="M1762.512,1742.577c0,0-34.196,8.306-51.813-0.619c0,0-0.728-4.45-1.999-12.414
			c0,0,23.305,6.751,53.445,0C1762.278,1737.307,1762.403,1741.933,1762.512,1742.577z"/>
		<path style="fill:#163356;" d="M1492.395,1173.794c-0.046,10.498-14.33,18.952-14.33,18.952c-1.598-2.419-3.196-4.975-4.701-7.577
			l10.131-16.429C1486.553,1170.429,1489.519,1172.38,1492.395,1173.794z"/>
		<path style="fill:#395B96;" d="M1506.633,1223.642c0.411,0.319,0.822,0.638,1.232,1.004c-0.41-0.32-0.775-0.594-1.185-0.868
			v-0.045C1506.633,1223.687,1506.633,1223.642,1506.633,1223.642z"/>
		<path style="fill:#8C4225;" d="M1671.563,1020.541c0,0-7.166-4.998-12.427,1.288c-5.261,6.286-0.6,11.413-6.892,16.772
			c-18.695,12.641-2.507,12.436-6.204,25.766C1647.143,1064.438,1687.923,1029.879,1671.563,1020.541z"/>
		<path style="fill:#E57D61;" d="M1694.715,1090.104c-0.117,0.468-0.25,0.941-0.409,1.394c-0.592-0.487-4.153,16.56-5.463,29.065
			c-12.305,4.128-25.164,0.422-27.511-0.319c2.809-17.742,2.565-42.223,16.383-46.49
			C1687.294,1070.781,1697.364,1080.273,1694.715,1090.104z"/>
		<path style="fill:#F99370;" d="M1644.579,1103.794c8.793,11.029,23.682,15.459,36.101,14.096
			c5.162-0.477,10.096-2.031,14.366-4.886l0.016,0.002c17.484-13.018,25.381-42.093,17.886-61.864
			c-10.836-29.134-46.435-28.017-57.193,0.889c-2.053,4.353-5.578,9.017-9.712,12.332
			C1635.073,1073.341,1633.434,1089.03,1644.579,1103.794z"/>
		<path style="fill:#F9F8F3;" d="M1654.001,1088.582l16.904-6.541C1671.543,1091.794,1660.304,1097.12,1654.001,1088.582z"/>
		<path style="fill:#C16256;" d="M1668.426,1068.111c-0.9-2.244,2.645-3.606,3.479-1.337
			C1672.804,1069.018,1669.26,1070.381,1668.426,1068.111z"/>
		<path style="fill:#C16256;" d="M1653.115,1063.88c-0.9-2.244,2.644-3.606,3.479-1.337
			C1657.494,1064.787,1653.949,1066.149,1653.115,1063.88z"/>
		<path style="fill:#C16256;" d="M1654,1089.288c-0.747,0.025-0.979-1.108-0.255-1.363c0.431,0.206,18.004-7.852,17.818-6.138
			c0.14,0.364-0.041,0.772-0.403,0.913C1670.827,1082.775,1654.35,1089.303,1654,1089.288z"/>
		<path style="fill:#E57D61;" d="M1662.326,1041.25c8.332,10.067,24.341-2.278,22.766,11.271c-0.794,5.649,9.717,5.051,10.665,7.838
			c0.94,2.786-0.998,7.706,0.972,11.392s13.188,9.133,13.188,9.133c-3.952,11.353-3.273,21.49-17.581,33.71
			c0.932-0.474,1.838-1.006,2.708-1.59l0.016,0.002c17.482-13.018,25.382-42.092,17.886-61.864
			C1706.373,1029.529,1675.528,1020.883,1662.326,1041.25z"/>
		<path style="fill:#C16256;" d="M1658.156,1080.652c-3.538-0.009-9.527-3.08-4.641-5.84c3.699-1.535,7.021-8.526,7.054-8.596
			c0.374-0.83,1.68-0.226,1.276,0.6c-0.144,0.308-3.592,7.556-7.79,9.299c-0.477,0.198-1.02,0.516-0.898,0.908
			c0.345,1.112,3.563,2.636,5.981,2.125C1660.997,1079.381,1659.409,1081.06,1658.156,1080.652z"/>
		<path style="fill:#8C4225;" d="M1665.263,1037.818c0,0-5.205-7.971,1.668-12.724c6.873-4.753,7.319-12.903,15.891-10.65
			c8.571,2.253,11.706,3.641,21.431,2.066c9.725-1.575,16.807,8.351,15.825,14.308c-0.983,5.957,11.722,7.271,12.775,15.577
			c1.053,8.305-1.091,10.542-1.454,14.056c-0.364,3.514,10.244,9.256,7.214,17.412c-3.03,8.156-9.925,6.144-11.833,11.377
			c-1.907,5.233,1.275,14.877-5.24,17.261c-9.66,3.535-16.963-3.197-16.963-3.197c20.581-33.797-7.859-20.543-3.711-40.548
			c2.672-7.647-9.166-6.413-11.468-10.75C1685.792,1030.816,1681.256,1049.276,1665.263,1037.818z"/>
		<path style="fill:#F99370;" d="M1721.509,1087.489c-4.198,13.563-21.254,8.073-16.751-5.393
			C1708.956,1068.534,1726.011,1074.023,1721.509,1087.489z"/>
		<path style="fill:#C16256;" d="M1716.867,1089.911c-1.927-0.677,2.682-7.337,0.073-9.211c-2.492-2.497-5.584,0.187-6.336-1.302
			c-0.234-1.447,4.853-2.109,7.394,0.368C1719.461,1081.132,1719.801,1086.67,1716.867,1089.911z"/>
		<path style="fill:#C16256;" d="M1710.42,1088.252c-3.027,0.177,5.023-9.07,8.651-5.773c-0.014,0.389-0.345,0.697-0.731,0.679
			C1712.897,1083.171,1711.592,1088.131,1710.42,1088.252z"/>
		<path style="fill:#163356;" d="M1688.485,1130.65c-0.146,0.786-0.209,1.546-0.348,2.28c-1.391,5.333-6.957,10.048-6.957,10.048
			c-30.613,12.818-29.996-12.353-19.98-16.193C1660.967,1127.636,1654.049,1152.679,1688.485,1130.65z"/>
		<path style="fill:#EB5648;" d="M1714.88,1133.696c-35.335-26.91-33.4,30.899-60.038,49.088c0,0-10.469-28.145,6.341-55.982
			c-18.661-6.549-29.777-0.042-34.205,11.252l-0.422-0.905c-17.021,1.48-14.213,8.897-14.213,8.897
			c6.812,22.169,17.942,30.79,30.489,43.033c-12.828,16.712-26.797,53.562-22.054,59.522c5.832,7.328,26.765,15.499,26.061-3.04
			c-0.703-18.523,6.743-50.312,6.755-50.367l0,0c0.065,6.94-0.007,24.153-2.042,34.327c-2.036,10.175,7.387,10.634,11.831,7.986
			c10.336-2.615,5.803-32.218,2.586-45.938C1683.985,1183.887,1787.863,1151.189,1714.88,1133.696z"/>
		<path style="fill:#C16256;" d="M1678.992,1066.531c-0.242,0-0.478-0.123-0.611-0.345c-3.144-5.231-7.133-8.002-7.172-8.029
			c-0.325-0.222-0.407-0.665-0.186-0.989c0.223-0.324,0.665-0.407,0.989-0.186c0.173,0.118,4.276,2.959,7.59,8.471
			c0.202,0.337,0.093,0.775-0.243,0.977C1679.243,1066.499,1679.117,1066.531,1678.992,1066.531z"/>
		<path style="fill:#C16256;" d="M1654.856,1056.463c-0.249,0-0.491-0.131-0.622-0.363c-0.192-0.342-0.073-0.774,0.268-0.967
			c0.149-0.085,3.72-2.056,9.967-0.806c0.385,0.077,0.635,0.452,0.558,0.838c-0.076,0.385-0.45,0.636-0.838,0.558
			c-5.688-1.136-8.955,0.632-8.987,0.649C1655.093,1056.434,1654.973,1056.463,1654.856,1056.463z"/>
		<path style="fill:#F99370;" d="M1473.365,1185.169c0,0-16.651-0.13-21.953-7.864c-5.302-7.734-3.793-20.897,1.258-21.654
			c14.785-2.218,31.234,13.089,30.827,13.089C1483.496,1168.741,1481.45,1178.789,1473.365,1185.169z"/>
		<path style="fill:#1D3F70;" d="M1461.026,1203.078l-38.063-189.944c-0.077-0.385,0.173-0.761,0.558-0.838
			c0.376-0.075,0.742,0.161,0.832,0.53l45.709,188.251c0.603,2.484-0.922,4.987-3.406,5.59c-2.484,0.603-4.987-0.922-5.59-3.406
			C1461.053,1203.205,1461.037,1203.132,1461.026,1203.078z"/>
		<path style="fill:#F99370;" d="M1464.136,1167.869c-5.285-18.763-19.262-11.794-19.536-17.721
			c0.975-4.322,7.29-2.369,10.585-2.052c5.571,1.247,10.542,4.811,14.079,9.206
			C1480.531,1169.326,1468.027,1175.999,1464.136,1167.869z"/>
		<path style="fill:#F99370;" d="M1452.834,1179.611c-9.608-0.491-7.844-11.914,0.744-6.409l-0.162-0.008
			C1458.474,1173.36,1457.568,1179.882,1452.834,1179.611z"/>
		<path style="fill:#F99370;" d="M1451.279,1173.502c-11.301-2.884-3.416-13.453,1.527-6.513c-0.092-0.131,0.414,0.257,0.579,0.261
			c0.028,0.013,0.217,0.063,0.067,0.027C1458.426,1168.464,1455.618,1174.657,1451.279,1173.502z"/>
		<path style="fill:#F99370;" d="M1449.445,1167.154c-8.43-3.147-4-9.271,1.212-7.151
			C1459.088,1163.15,1454.658,1169.274,1449.445,1167.154z"/>
		<path style="fill:#F99370;" d="M1448.717,1161.392c-8.43-3.147-4-9.271,1.212-7.151
			C1458.359,1157.389,1453.929,1163.512,1448.717,1161.392z"/>
	</g>
	<g id="_x32_">
		<path style="fill:#1D3F70;" d="M2224.799,1744.391c0.451,0,0.909-0.046,1.368-0.141c3.627-0.752,5.957-4.301,5.205-7.928
			l-79.888-385.375c-0.752-3.627-4.301-5.955-7.928-5.206c-3.626,0.752-5.957,4.301-5.206,7.928l79.888,385.375
			C2218.896,1742.212,2221.687,1744.391,2224.799,1744.391z"/>
		<polygon style="fill:#FFFFFF;" points="1912.959,1527.536 2149.454,1527.536 2179.067,1215.867 1942.572,1215.867 		"/>
		<path style="fill:#1D3F70;" d="M1912.959,1520.83h236.495c3.704,0,6.706,3.003,6.706,6.706s-3.003,6.706-6.706,6.706h-39.545
			l5.748,226.962c0.094,3.702-2.832,6.78-6.534,6.874c-0.058,0.002-0.115,0.002-0.173,0.002c-3.625,0-6.609-2.891-6.701-6.536
			l-5.757-227.301h-130.816l-37.407,228.216c-0.538,3.288-3.383,5.623-6.609,5.623c-0.36,0-0.726-0.029-1.093-0.09
			c-3.655-0.599-6.132-4.047-5.533-7.702l37.052-226.047h-39.127c-3.703,0-6.706-3.002-6.706-6.706
			S1909.255,1520.83,1912.959,1520.83z"/>
		<polygon style="fill:#EB5648;" points="1978.49,1487.839 1952.982,1487.839 1959.074,1435.625 1984.582,1435.625 		"/>
		<polygon style="fill:#CE3932;" points="2014.085,1487.839 1988.577,1487.839 1996.7,1425.471 2022.208,1425.471 		"/>
		<polygon style="fill:#EB5648;" points="2049.68,1487.839 2024.172,1487.839 2032.295,1415.317 2057.803,1415.317 		"/>
		<polygon style="fill:#CE3932;" points="2085.275,1487.839 2059.767,1487.839 2069.921,1405.163 2095.429,1405.163 		"/>
		<polygon style="fill:#EB5648;" points="2120.871,1487.839 2095.363,1487.839 2105.517,1395.009 2131.025,1395.009 		"/>
		<polygon style="fill:#CE3932;" points="2115.692,1339.01 2105.445,1341.782 2116.26,1347.988 1958.111,1390.769 
			1960.037,1397.887 2118.186,1355.106 2111.974,1365.918 2122.221,1363.146 2131.024,1347.813 		"/>
		<path style="fill:#F9665F;" d="M2081.452,1241.191c17.065,8.307,28.823,25.83,28.823,46.11v0.252l-51.183-0.252L2081.452,1241.191
			z"/>
		<path style="fill:#EB5648;" d="M2103.318,1291.909c0,0.357,0,0.714-0.018,1.071c-0.568,27.808-23.247,50.179-51.159,50.179
			c-14.042,0-26.768-5.663-36.017-14.847c-8.839-8.757-14.5-20.726-15.103-34.018c-0.026-0.375-0.035-0.74-0.044-1.115
			c-0.009-0.427-0.017-0.846-0.017-1.269c0-5.879,0.99-11.529,2.813-16.791c6.942-20.057,25.976-34.454,48.368-34.454
			c7.976,0,15.526,1.829,22.256,5.095l-22.265,45.895L2103.318,1291.909z"/>
		<path style="fill:#CE3932;" d="M2103.318,1291.909c0,0.357,0,0.714-0.018,1.071c-0.568,27.808-23.247,50.179-51.159,50.179
			c-14.042,0-26.768-5.663-36.017-14.847l36.008-36.658L2103.318,1291.909z"/>
	</g>
	<g id="_x31_">
		<path style="fill:#163260;" d="M1342.838,200.549c0,0,11.863-22.916,48.021-16.15c36.158,6.766,44.692,52.648,56.964,73.532
			c25.996,44.239,33.784,91.247,20.279,113.83c-14.999,25.08-48.121,15.273-96.492,10.776c-51.619-4.799-73.243-49.6-41.133-111.201
			L1342.838,200.549z"/>
		<path style="fill:#3A72AA;" d="M1357.842,307.067c-14.14,20.731-23.171,121.821-23.465,129.677
			c-16.634-1.229-56.597-4.182-73.636-5.441c-4.813-37.005,44.252-112.897,89.007-121.887c0-0.012,0-0.012,0-0.012
			C1354.785,307.69,1357.842,307.067,1357.842,307.067z"/>
		<path style="fill:#F99370;" d="M1148.156,864.375l71.897-0.789c-0.185-11.492-3.246-34.693-0.964-47.806
			c-0.002,0-31.036,4.004-31.036,4.004c0.861,6.299,2.771,19.96-7.684,23.229c-13.545,4.236-28.292,2.933-36.746,13.355
			C1141.428,859.87,1144.024,864.42,1148.156,864.375z"/>
		<path style="fill:#1D3F70;" d="M1222.162,856.639c-0.267,2.434-0.912,4.804-2.108,6.947l-72.597,0.797
			c-3.53,0.039-6.123-3.407-4.989-6.751c2.671-7.812,12.116-19.212,45.56-21.33c0,0,11.422,3.263,30.101-0.33
			C1218.13,835.972,1223.258,846.769,1222.162,856.639z"/>
		<path style="fill:#E8C0A6;" d="M1163.811,854.834c-0.574,0-1.121-0.34-1.357-0.904c-2.733-6.534-7.553-8.489-7.757-8.57
			c-3.852-5.857,7.135-1.779,10.469,7.435C1165.587,853.737,1164.833,854.854,1163.811,854.834z"/>
		<path style="fill:#E8C0A6;" d="M1175.225,853.329c-0.622,0-1.2-0.398-1.4-1.021c-2.436-7.576-9.094-11.015-9.161-11.049
			c-3.513-6.821,9.271,0.38,11.961,10.148C1176.942,852.336,1176.201,853.344,1175.225,853.329z"/>
		<path style="fill:#E8C0A6;" d="M1188.213,851.588c-0.603,0-1.167-0.374-1.384-0.973c-2.832-7.863-9.222-12.092-9.287-12.134
			c-2.726-7.159,8.907,1.43,12.054,11.137C1189.955,850.552,1189.207,851.605,1188.213,851.588z"/>
		<path style="fill:#395B96;" d="M1142.51,857.513l79.653-0.874c-0.267,2.434-0.912,4.804-2.108,6.947l-72.597,0.797
			C1143.878,864.427,1141.275,860.872,1142.51,857.513z"/>
		<path style="fill:#EB5648;" d="M1375.927,589.885c-35.387-1.487-97.034-20.977-123.623,24.043
			c-29.111,49.168-21.984,153.477-19.04,203.885c-38.848,12.509-59.733,0-59.733,0c-16.55-103.188-71.054-338.229,111.204-305.617
			c-0.004-0.007,122.226-0.007,122.226-0.007C1427.406,553.862,1409.126,589.188,1375.927,589.885z"/>
		<path style="fill:#F99370;" d="M1234.372,864.37l71.897-0.789c-0.185-11.492-3.246-34.693-0.964-47.806
			c-0.002,0-31.035,4.008-31.035,4.008c0.86,6.299,3.014,19.96-7.684,23.225c-13.574,4.143-28.292,2.933-36.746,13.355
			C1227.644,859.865,1230.24,864.416,1234.372,864.37z"/>
		<path style="fill:#1D3F70;" d="M1308.378,856.635c-0.266,2.434-0.912,4.804-2.108,6.947l-72.597,0.797
			c-3.53,0.039-6.123-3.407-4.989-6.75c2.672-7.812,12.117-19.213,45.56-21.33c0,0,11.422,3.263,30.101-0.33
			C1304.346,835.968,1309.474,846.765,1308.378,856.635z"/>
		<path style="fill:#E8C0A6;" d="M1250.027,854.83c-0.574,0-1.121-0.34-1.357-0.904c-2.732-6.534-7.553-8.489-7.757-8.569
			c-3.852-5.857,7.135-1.779,10.469,7.435C1251.803,853.732,1251.049,854.85,1250.027,854.83z"/>
		<path style="fill:#E8C0A6;" d="M1261.441,853.325c-0.622,0-1.199-0.398-1.4-1.021c-2.436-7.576-9.094-11.015-9.161-11.049
			c-3.513-6.82,9.271,0.38,11.961,10.148C1263.158,852.332,1262.417,853.339,1261.441,853.325z"/>
		<path style="fill:#E8C0A6;" d="M1274.429,851.584c-0.603,0-1.167-0.374-1.384-0.973c-2.832-7.863-9.222-12.092-9.287-12.134
			c-2.726-7.159,8.907,1.43,12.054,11.136C1276.171,850.547,1275.423,851.601,1274.429,851.584z"/>
		<path style="fill:#395B96;" d="M1228.725,857.509l79.653-0.874c-0.266,2.434-0.912,4.804-2.108,6.947l-72.597,0.797
			C1230.094,864.423,1227.491,860.868,1228.725,857.509z"/>
		<path style="fill:#CE3932;" d="M1294.685,512.189l-10.455,76.204c-45.701,18-48.776,67.364-52.947,121.496
			C1210.12,626.257,1211.743,540.44,1294.685,512.189z"/>
		<path style="fill:#EB5648;" d="M1433.039,597.09c-38.875,19.495-85.077-5.75-111.122,46.83
			c-21.02,46.036-9.233,134.01-3.46,173.893c-38.848,12.509-59.733,0-59.733,0c-23.034-89.013-75.716-295.876,73.15-305.62
			c40.763-1.298,94.327-0.941,130.355-3.111C1462.228,509.081,1481.108,572.984,1433.039,597.09z"/>
		<path style="fill:#23659B;" d="M1295.48,405.709c-0.711,0.004-1.285-0.617-1.219-1.327c2.433-20.199,23.831-46.381,26.644-44.983
			c1.918,2.468-22.76,24.156-24.207,45.192C1296.642,405.229,1296.108,405.709,1295.48,405.709z"/>
		<path style="fill:#3A72AA;" d="M1462.949,488.026c3.158,22.545,1.58,32.074,1.58,32.074c-60.034,7.463-97.887,7.812-170.985-2.398
			c46.166-138.281-57.752-49.369,64.298-210.636c0.293,0.024,29.945,2.709,30.214,2.727
			C1422.371,335.602,1444.477,369.821,1462.949,488.026z"/>
		<polygon style="fill:#163260;" points="1167.549,520.098 1329.321,520.098 1297.111,401.52 1136.317,401.52 		"/>
		<rect x="1167.549" y="519.511" style="fill:#234270;" width="161.772" height="8.052"/>
		<polygon style="fill:#0B274F;" points="1294.681,401.52 1300.469,401.52 1332.015,519.511 1408.787,519.511 1408.787,527.564 
			1326.627,527.564 1326.627,520.361 		"/>
		<path style="fill:#F99370;" d="M1441.25,332.758c37.291,27.95,57.21,78.251,47.36,123.991
			c-3.774,25.694-19.986,50.131-45.346,57.404c-12.521,5.008-70.927,13.061-68.207-7.672c0.926-4.974,5.337-6.806,9.61-8.134
			c7.042-2.483,14.299-5.226,21.013-8.278c12.023-6.241,27.482-12.088,30.099-25.588c5.573-31.521-7.342-62.339-30.896-82.916
			c0.042,0.025-0.111-0.095,0.237,0.159C1373.2,357.947,1409.138,309.28,1441.25,332.758z"/>
		<path style="fill:#3A72AA;" d="M1463.601,508.521c-18.988,8.477-36.971,11.08-50.794,11.58c0,0,3.191-20.628-11.715-29.127
			c83.974-63.818-35.963-90.677-12.927-184.451C1478.203,308.13,1571.17,444.607,1463.601,508.521z"/>
		<path style="fill:#F99370;" d="M1339.424,519.511c0,0,7.206-25.191,50.215-22.289l9.007,22.289H1339.424z"/>
		<path style="fill:#23659B;" d="M1422.784,519.404c-6.15,0.685-9.978,0.697-9.978,0.697s3.191-20.628-11.715-29.127
			c0,0,3.668-2.385,8.462-6.615C1409.554,484.359,1425.89,496.354,1422.784,519.404z"/>
		<path style="fill:#23659B;" d="M1408.787,487.884c-1.086,0.025-1.666-1.444-0.8-2.149c37.289-33.227,19.024-68.399-3.157-91.181
			c-1.089-1.118,0.73-2.863,1.796-1.664C1430.213,416.469,1448.107,455.432,1408.787,487.884z"/>
		<path style="fill:#23659B;" d="M1421.981,519.532c-6.972-4.061,19.584-2.036,39.782-11.583c0.625-0.255,1.339,0.042,1.597,0.667
			c0.256,0.625-0.042,1.34-0.667,1.596C1441.822,518.771,1422.253,519.527,1421.981,519.532z"/>
		<path style="fill:#F4D4BE;" d="M1396.486,344.258c-0.86,6.447-7.025,8.456-8.565,8.113c-21.658-9.255-6.252,19.974-15.162,22.951
			c-7.493,2.503-8.384-7.27-14.916-7.805c-9.484-0.777-11.413,4.388-14.743,1.249c-4.636-4.371,6.591-12.003,5.151-19.825
			c-1.011-5.492-11.93,0.028-11.786-11.276c0.171-11.103,12.879-27.737,13.283-28.251c0-0.012,0-0.012,0-0.012
			c7.998-4.462,25.409-2.432,33.314-2.336c0.122-0.795,5.104-0.544,5.104-0.544s3.484-0.769,6.84,0.503
			C1396.656,316.053,1398.203,334.58,1396.486,344.258z"/>
		<path style="fill:#F99370;" d="M1358.571,296.323l-0.731,10.743c0,0-1.004,10.333-1.004,29.543
			c0,27.005,6.671,23.861,15.922,4.995c5.083-10.366,15.406-34.233,15.406-34.233s-0.047-7.064,0.516-11.396L1358.571,296.323z"/>
		<path style="fill:#E57D61;" d="M1394.559,265.573c-0.123,0.51-0.266,1.027-0.436,1.521c-0.648-0.526-4.334,17.35-5.672,30.978
			c-12.921,7.569-27.871,6.563-30.433,5.773c0.69-20.164,2.386-50.337,17.911-55.958
			C1386.34,244.581,1397.375,254.847,1394.559,265.573z"/>
		<path style="fill:#163260;" d="M1355.41,199.148c-39.015-4.681-45.205,56.907-18.69,79.568L1355.41,199.148z"/>
		<path style="fill:#F99370;" d="M1401.406,242.545c1.882,13.449,2.005,29.223-5.505,40.815l-0.017,0.005
			c-20.528,33.573-88.45,11.929-69.841-27.881c2.734-5.081,4.275-11.258,4.479-16.497
			C1331.136,184.011,1395.972,195.548,1401.406,242.545z"/>
		<path style="fill:#C16256;" d="M1350.074,249.705c-1.859-1.865,1.114-4.741,2.917-2.822
			C1354.849,248.748,1351.877,251.624,1350.074,249.705z"/>
		<path style="fill:#C16256;" d="M1332.924,251.986c-1.859-1.865,1.114-4.742,2.917-2.822
			C1337.7,251.03,1334.727,253.906,1332.924,251.986z"/>
		<path style="fill:#C16256;" d="M1343.141,267.233c-3.431,0.547-8.403-0.344-5.158-4.459c3.051-3.111,3.405-11.538,3.408-11.622
			c0.022-0.987,1.588-0.943,1.536,0.058c-0.014,0.37-0.381,9.105-3.848,12.639c-0.393,0.402-0.801,0.952-0.513,1.294
			c0.817,0.966,4.679,1.126,6.9-0.419c0.34-0.242,0.825-0.158,1.068,0.191C1347.109,266.52,1344.335,266.866,1343.141,267.233z"/>
		<path style="fill:#E57D61;" d="M1401.406,242.545c1.882,13.449,2.005,29.223-5.505,40.815l-0.017,0.005
			c3.464-8.691,2.163-25.348,2.163-25.348l-4.786-6.113c-48.91-0.655-56.102-37.559-56.102-37.559
			C1358.655,185.469,1398.854,211.546,1401.406,242.545z"/>
		<path style="fill:#163260;" d="M1340.909,209.71c0,0,7.273,36.335,51.54,38.534l11.859-12.289
			C1409.823,204.326,1372.227,171.941,1340.909,209.71z"/>
		<path style="fill:#F99370;" d="M1411.537,246.512c1.57,15.384-17.864,17.147-19.087,1.731
			C1390.879,232.86,1410.314,231.096,1411.537,246.512z"/>
		<path style="fill:#C16256;" d="M1406.96,242.53c0,0,0-0.001-0.001-0.001c-1.979-6.097-13.715,0.415-8.721,0.645
			c0.02-0.27,5.219-3.385,6.84-0.682c-5.124,2.418-6.831,11.97-3.866,8.882c0.005-0.058,0.623-5.497,4.653-7.553
			C1407.867,257.716,1409.686,248.077,1406.96,242.53z"/>
		<path style="fill:#F4D4BE;" d="M1405.583,255.699c0.69,2.128-2.668,3.162-3.295,1.015
			C1401.599,254.587,1404.957,253.552,1405.583,255.699z"/>
		<path style="fill:#23659B;" d="M1356.836,382.388c0.065,4.456-6.934,4.456-6.868,0
			C1349.903,377.933,1356.902,377.933,1356.836,382.388z"/>
		<path style="fill:#23659B;" d="M1350.092,406.573c0.065,4.456-6.934,4.456-6.868,0
			C1343.158,402.117,1350.157,402.117,1350.092,406.573z"/>
		<path style="fill:#23659B;" d="M1350.092,428.336c0.065,4.456-6.934,4.456-6.868,0
			C1343.158,423.88,1350.157,423.88,1350.092,428.336z"/>
		<path style="fill:#CE3932;" d="M1232.054,800.498c0.636,10.797,1.21,17.315,1.21,17.315c-38.848,12.509-59.733,0-59.733,0
			s-1.088-5.417-2.763-14.759C1171.233,803.286,1195.664,815.294,1232.054,800.498z"/>
		<path style="fill:#CE3932;" d="M1318.456,817.813c-38.848,12.509-59.733,0-59.733,0s-1.418-5.001-3.619-13.634
			c0,0,21.533,11.14,61.323,0C1317.6,812.714,1318.456,817.813,1318.456,817.813z"/>
		<path style="fill:#E57D61;" d="M1341.772,519.258c-7.643,0.235,20.18-18.853,28.48-14.185c0.068,0.673-0.421,1.274-1.093,1.342
			C1353.502,508.05,1343.092,519.209,1341.772,519.258z"/>
		<path style="fill:#E57D61;" d="M1353.558,519.689c-5.8-2.476,12.217-6.719,21.138-9.133c0.657-0.139,1.309,0.289,1.446,0.95
			c0.137,0.661-0.289,1.308-0.95,1.444C1365.689,514.908,1354.516,519.585,1353.558,519.689z"/>
		<path style="fill:#C16256;" d="M1356.445,243.472c-0.188,0-0.377-0.06-0.535-0.184c-4.883-3.821-9.324-2.579-9.51-2.524
			c-0.461,0.136-0.944-0.126-1.08-0.586c-0.137-0.459,0.121-0.942,0.58-1.08c0.218-0.068,5.458-1.582,11.081,2.819
			c0.379,0.297,0.446,0.844,0.15,1.222C1356.959,243.357,1356.704,243.472,1356.445,243.472z"/>
		<path style="fill:#C16256;" d="M1330.897,245.571c-0.168,0-0.337-0.048-0.486-0.149c-0.399-0.269-0.503-0.81-0.234-1.208
			c0.114-0.169,2.825-4.124,7.346-3.949c0.48,0.019,0.854,0.423,0.835,0.904c-0.019,0.48-0.42,0.863-0.904,0.835
			c-3.553-0.114-5.813,3.151-5.835,3.184C1331.45,245.437,1331.176,245.571,1330.897,245.571z"/>
		<path style="fill:#C16256;" d="M1349.689,275.45c-1.137,0-2.135-0.404-2.768-1.223c-1.35-1.746-0.458-4.622,2.031-6.545
			c2.489-1.923,5.496-2.063,6.845-0.316c0,0,0,0,0.001,0c1.349,1.746,0.457,4.621-2.031,6.545
			C1352.446,274.932,1350.978,275.45,1349.689,275.45z M1353.021,267.893c-0.863,0-1.96,0.359-3.004,1.165
			c-1.804,1.395-2.353,3.283-1.718,4.104c0.634,0.821,2.6,0.765,4.404-0.629c1.804-1.395,2.354-3.282,1.719-4.104l0,0
			C1354.154,268.083,1353.65,267.893,1353.021,267.893z"/>
	</g>
</g>
</svg>
