<svg width="403" height="85" viewBox="0 0 403 85" fill="none" xmlns="http://www.w3.org/2000/svg">
<g filter="url(#filter0_d_812_256)">
<path d="M10 20.239H33.6532L45.0249 10.6108L58.2162 20.239H393V74.3401H10V20.239Z" fill="white"/>
</g>
<path d="M35.624 34.8489V42.4609H34.623V36.7849L32.093 42.4609H31.389L28.848 36.7739V42.4609H27.847V34.8489H28.925L31.741 41.1409L34.557 34.8489H35.624ZM36.9476 39.4249C36.9476 38.8089 37.0723 38.2699 37.3216 37.8079C37.5709 37.3386 37.9119 36.9756 38.3446 36.7189C38.7846 36.4623 39.2723 36.3339 39.8076 36.3339C40.3356 36.3339 40.7939 36.4476 41.1826 36.6749C41.5713 36.9023 41.8609 37.1883 42.0516 37.5329V36.4329H43.0636V42.4609H42.0516V41.3389C41.8536 41.6909 41.5566 41.9843 41.1606 42.2189C40.7719 42.4463 40.3173 42.5599 39.7966 42.5599C39.2613 42.5599 38.7773 42.4279 38.3446 42.1639C37.9119 41.8999 37.5709 41.5296 37.3216 41.0529C37.0723 40.5763 36.9476 40.0336 36.9476 39.4249ZM42.0516 39.4359C42.0516 38.9813 41.9599 38.5853 41.7766 38.2479C41.5933 37.9106 41.3439 37.6539 41.0286 37.4779C40.7206 37.2946 40.3796 37.2029 40.0056 37.2029C39.6316 37.2029 39.2906 37.2909 38.9826 37.4669C38.6746 37.6429 38.4289 37.8996 38.2456 38.2369C38.0623 38.5743 37.9706 38.9703 37.9706 39.4249C37.9706 39.8869 38.0623 40.2903 38.2456 40.6349C38.4289 40.9723 38.6746 41.2326 38.9826 41.4159C39.2906 41.5919 39.6316 41.6799 40.0056 41.6799C40.3796 41.6799 40.7206 41.5919 41.0286 41.4159C41.3439 41.2326 41.5933 40.9723 41.7766 40.6349C41.9599 40.2903 42.0516 39.8906 42.0516 39.4359ZM47.6922 36.3229C48.4255 36.3229 49.0195 36.5466 49.4742 36.9939C49.9289 37.4339 50.1562 38.0719 50.1562 38.9079V42.4609H49.1662V39.0509C49.1662 38.4496 49.0159 37.9913 48.7152 37.6759C48.4145 37.3533 48.0039 37.1919 47.4832 37.1919C46.9552 37.1919 46.5335 37.3569 46.2182 37.6869C45.9102 38.0169 45.7562 38.4973 45.7562 39.1279V42.4609H44.7552V36.4329H45.7562V37.2909C45.9542 36.9829 46.2219 36.7446 46.5592 36.5759C46.9039 36.4073 47.2815 36.3229 47.6922 36.3229ZM51.4173 39.4249C51.4173 38.8089 51.542 38.2699 51.7913 37.8079C52.0407 37.3386 52.3817 36.9756 52.8143 36.7189C53.2543 36.4623 53.742 36.3339 54.2773 36.3339C54.8053 36.3339 55.2637 36.4476 55.6523 36.6749C56.041 36.9023 56.3307 37.1883 56.5213 37.5329V36.4329H57.5333V42.4609H56.5213V41.3389C56.3233 41.6909 56.0263 41.9843 55.6303 42.2189C55.2417 42.4463 54.787 42.5599 54.2663 42.5599C53.731 42.5599 53.247 42.4279 52.8143 42.1639C52.3817 41.8999 52.0407 41.5296 51.7913 41.0529C51.542 40.5763 51.4173 40.0336 51.4173 39.4249ZM56.5213 39.4359C56.5213 38.9813 56.4297 38.5853 56.2463 38.2479C56.063 37.9106 55.8137 37.6539 55.4983 37.4779C55.1903 37.2946 54.8493 37.2029 54.4753 37.2029C54.1013 37.2029 53.7603 37.2909 53.4523 37.4669C53.1443 37.6429 52.8987 37.8996 52.7153 38.2369C52.532 38.5743 52.4403 38.9703 52.4403 39.4249C52.4403 39.8869 52.532 40.2903 52.7153 40.6349C52.8987 40.9723 53.1443 41.2326 53.4523 41.4159C53.7603 41.5919 54.1013 41.6799 54.4753 41.6799C54.8493 41.6799 55.1903 41.5919 55.4983 41.4159C55.8137 41.2326 56.063 40.9723 56.2463 40.6349C56.4297 40.2903 56.5213 39.8906 56.5213 39.4359ZM61.7109 36.3339C62.2316 36.3339 62.6863 36.4476 63.0749 36.6749C63.4709 36.9023 63.7643 37.1883 63.9549 37.5329V36.4329H64.9669V42.5929C64.9669 43.1429 64.8496 43.6306 64.6149 44.0559C64.3803 44.4886 64.0429 44.8259 63.6029 45.0679C63.1703 45.3099 62.6643 45.4309 62.0849 45.4309C61.2929 45.4309 60.6329 45.2439 60.1049 44.8699C59.5769 44.4959 59.2653 43.9863 59.1699 43.3409H60.1599C60.2699 43.7076 60.4973 44.0009 60.8419 44.2209C61.1866 44.4483 61.6009 44.5619 62.0849 44.5619C62.6349 44.5619 63.0823 44.3896 63.4269 44.0449C63.7789 43.7003 63.9549 43.2163 63.9549 42.5929V41.3279C63.7569 41.6799 63.4636 41.9733 63.0749 42.2079C62.6863 42.4426 62.2316 42.5599 61.7109 42.5599C61.1756 42.5599 60.6879 42.4279 60.2479 42.1639C59.8153 41.8999 59.4743 41.5296 59.2249 41.0529C58.9756 40.5763 58.8509 40.0336 58.8509 39.4249C58.8509 38.8089 58.9756 38.2699 59.2249 37.8079C59.4743 37.3386 59.8153 36.9756 60.2479 36.7189C60.6879 36.4623 61.1756 36.3339 61.7109 36.3339ZM63.9549 39.4359C63.9549 38.9813 63.8633 38.5853 63.6799 38.2479C63.4966 37.9106 63.2473 37.6539 62.9319 37.4779C62.6239 37.2946 62.2829 37.2029 61.9089 37.2029C61.5349 37.2029 61.1939 37.2909 60.8859 37.4669C60.5779 37.6429 60.3323 37.8996 60.1489 38.2369C59.9656 38.5743 59.8739 38.9703 59.8739 39.4249C59.8739 39.8869 59.9656 40.2903 60.1489 40.6349C60.3323 40.9723 60.5779 41.2326 60.8859 41.4159C61.1939 41.5919 61.5349 41.6799 61.9089 41.6799C62.2829 41.6799 62.6239 41.5919 62.9319 41.4159C63.2473 41.2326 63.4966 40.9723 63.6799 40.6349C63.8633 40.2903 63.9549 39.8906 63.9549 39.4359ZM72.1585 39.2159C72.1585 39.4066 72.1475 39.6083 72.1255 39.8209H67.3075C67.3442 40.4149 67.5459 40.8806 67.9125 41.2179C68.2865 41.5479 68.7375 41.7129 69.2655 41.7129C69.6982 41.7129 70.0575 41.6139 70.3435 41.4159C70.6369 41.2106 70.8422 40.9393 70.9595 40.6019H72.0375C71.8762 41.1813 71.5535 41.6543 71.0695 42.0209C70.5855 42.3803 69.9842 42.5599 69.2655 42.5599C68.6935 42.5599 68.1802 42.4316 67.7255 42.1749C67.2782 41.9183 66.9262 41.5553 66.6695 41.0859C66.4129 40.6093 66.2845 40.0593 66.2845 39.4359C66.2845 38.8126 66.4092 38.2663 66.6585 37.7969C66.9079 37.3276 67.2562 36.9683 67.7035 36.7189C68.1582 36.4623 68.6789 36.3339 69.2655 36.3339C69.8375 36.3339 70.3435 36.4586 70.7835 36.7079C71.2235 36.9573 71.5609 37.3019 71.7955 37.7419C72.0375 38.1746 72.1585 38.6659 72.1585 39.2159ZM71.1245 39.0069C71.1245 38.6256 71.0402 38.2993 70.8715 38.0279C70.7029 37.7493 70.4719 37.5403 70.1785 37.4009C69.8925 37.2543 69.5735 37.1809 69.2215 37.1809C68.7155 37.1809 68.2829 37.3423 67.9235 37.6649C67.5715 37.9876 67.3699 38.4349 67.3185 39.0069H71.1245ZM81.6044 36.4329L77.9744 45.2989H76.9404L78.1284 42.3949L75.6974 36.4329H76.8084L78.7004 41.3169L80.5704 36.4329H81.6044ZM85.2397 42.5599C84.675 42.5599 84.1617 42.4316 83.6997 42.1749C83.245 41.9183 82.8857 41.5553 82.6217 41.0859C82.365 40.6093 82.2367 40.0593 82.2367 39.4359C82.2367 38.8199 82.3687 38.2773 82.6327 37.8079C82.904 37.3313 83.2707 36.9683 83.7327 36.7189C84.1947 36.4623 84.7117 36.3339 85.2837 36.3339C85.8557 36.3339 86.3727 36.4623 86.8347 36.7189C87.2967 36.9683 87.6597 37.3276 87.9237 37.7969C88.195 38.2663 88.3307 38.8126 88.3307 39.4359C88.3307 40.0593 88.1913 40.6093 87.9127 41.0859C87.6413 41.5553 87.271 41.9183 86.8017 42.1749C86.3323 42.4316 85.8117 42.5599 85.2397 42.5599ZM85.2397 41.6799C85.599 41.6799 85.9363 41.5956 86.2517 41.4269C86.567 41.2583 86.82 41.0053 87.0107 40.6679C87.2087 40.3306 87.3077 39.9199 87.3077 39.4359C87.3077 38.9519 87.2123 38.5413 87.0217 38.2039C86.831 37.8666 86.5817 37.6173 86.2737 37.4559C85.9657 37.2873 85.632 37.2029 85.2727 37.2029C84.906 37.2029 84.5687 37.2873 84.2607 37.4559C83.96 37.6173 83.718 37.8666 83.5347 38.2039C83.3513 38.5413 83.2597 38.9519 83.2597 39.4359C83.2597 39.9273 83.3477 40.3416 83.5237 40.6789C83.707 41.0163 83.949 41.2693 84.2497 41.4379C84.5503 41.5993 84.8803 41.6799 85.2397 41.6799ZM94.9928 36.4329V42.4609H93.9918V41.5699C93.8011 41.8779 93.5335 42.1199 93.1888 42.2959C92.8515 42.4646 92.4775 42.5489 92.0668 42.5489C91.5975 42.5489 91.1758 42.4536 90.8018 42.2629C90.4278 42.0649 90.1308 41.7716 89.9108 41.3829C89.6981 40.9943 89.5918 40.5213 89.5918 39.9639V36.4329H90.5818V39.8319C90.5818 40.4259 90.7321 40.8843 91.0328 41.2069C91.3335 41.5223 91.7441 41.6799 92.2648 41.6799C92.8001 41.6799 93.2218 41.5149 93.5298 41.1849C93.8378 40.8549 93.9918 40.3746 93.9918 39.7439V36.4329H94.9928ZM97.6839 37.4119C97.8599 37.0673 98.1093 36.7996 98.4319 36.6089C98.7619 36.4183 99.1616 36.3229 99.6309 36.3229V37.3569H99.3669C98.2449 37.3569 97.6839 37.9656 97.6839 39.1829V42.4609H96.6829V36.4329H97.6839V37.4119ZM110.968 36.3229C111.437 36.3229 111.855 36.4219 112.222 36.6199C112.589 36.8106 112.878 37.1003 113.091 37.4889C113.304 37.8776 113.41 38.3506 113.41 38.9079V42.4609H112.42V39.0509C112.42 38.4496 112.27 37.9913 111.969 37.6759C111.676 37.3533 111.276 37.1919 110.77 37.1919C110.249 37.1919 109.835 37.3606 109.527 37.6979C109.219 38.0279 109.065 38.5083 109.065 39.1389V42.4609H108.075V39.0509C108.075 38.4496 107.925 37.9913 107.624 37.6759C107.331 37.3533 106.931 37.1919 106.425 37.1919C105.904 37.1919 105.49 37.3606 105.182 37.6979C104.874 38.0279 104.72 38.5083 104.72 39.1389V42.4609H103.719V36.4329H104.72V37.3019C104.918 36.9866 105.182 36.7446 105.512 36.5759C105.849 36.4073 106.22 36.3229 106.623 36.3229C107.129 36.3229 107.576 36.4366 107.965 36.6639C108.354 36.8913 108.643 37.2249 108.834 37.6649C109.003 37.2396 109.281 36.9096 109.67 36.6749C110.059 36.4403 110.491 36.3229 110.968 36.3229ZM117.681 42.5599C117.116 42.5599 116.603 42.4316 116.141 42.1749C115.686 41.9183 115.327 41.5553 115.063 41.0859C114.806 40.6093 114.678 40.0593 114.678 39.4359C114.678 38.8199 114.81 38.2773 115.074 37.8079C115.345 37.3313 115.712 36.9683 116.174 36.7189C116.636 36.4623 117.153 36.3339 117.725 36.3339C118.297 36.3339 118.814 36.4623 119.276 36.7189C119.738 36.9683 120.101 37.3276 120.365 37.7969C120.636 38.2663 120.772 38.8126 120.772 39.4359C120.772 40.0593 120.633 40.6093 120.354 41.0859C120.083 41.5553 119.712 41.9183 119.243 42.1749C118.774 42.4316 118.253 42.5599 117.681 42.5599ZM117.681 41.6799C118.04 41.6799 118.378 41.5956 118.693 41.4269C119.008 41.2583 119.261 41.0053 119.452 40.6679C119.65 40.3306 119.749 39.9199 119.749 39.4359C119.749 38.9519 119.654 38.5413 119.463 38.2039C119.272 37.8666 119.023 37.6173 118.715 37.4559C118.407 37.2873 118.073 37.2029 117.714 37.2029C117.347 37.2029 117.01 37.2873 116.702 37.4559C116.401 37.6173 116.159 37.8666 115.976 38.2039C115.793 38.5413 115.701 38.9519 115.701 39.4359C115.701 39.9273 115.789 40.3416 115.965 40.6789C116.148 41.0163 116.39 41.2693 116.691 41.4379C116.992 41.5993 117.322 41.6799 117.681 41.6799ZM125.025 36.3229C125.759 36.3229 126.353 36.5466 126.807 36.9939C127.262 37.4339 127.489 38.0719 127.489 38.9079V42.4609H126.499V39.0509C126.499 38.4496 126.349 37.9913 126.048 37.6759C125.748 37.3533 125.337 37.1919 124.816 37.1919C124.288 37.1919 123.867 37.3569 123.551 37.6869C123.243 38.0169 123.089 38.4973 123.089 39.1279V42.4609H122.088V36.4329H123.089V37.2909C123.287 36.9829 123.555 36.7446 123.892 36.5759C124.237 36.4073 124.615 36.3229 125.025 36.3229ZM134.624 39.2159C134.624 39.4066 134.613 39.6083 134.591 39.8209H129.773C129.81 40.4149 130.012 40.8806 130.378 41.2179C130.752 41.5479 131.203 41.7129 131.731 41.7129C132.164 41.7129 132.523 41.6139 132.809 41.4159C133.103 41.2106 133.308 40.9393 133.425 40.6019H134.503C134.342 41.1813 134.019 41.6543 133.535 42.0209C133.051 42.3803 132.45 42.5599 131.731 42.5599C131.159 42.5599 130.646 42.4316 130.191 42.1749C129.744 41.9183 129.392 41.5553 129.135 41.0859C128.879 40.6093 128.75 40.0593 128.75 39.4359C128.75 38.8126 128.875 38.2663 129.124 37.7969C129.374 37.3276 129.722 36.9683 130.169 36.7189C130.624 36.4623 131.145 36.3339 131.731 36.3339C132.303 36.3339 132.809 36.4586 133.249 36.7079C133.689 36.9573 134.027 37.3019 134.261 37.7419C134.503 38.1746 134.624 38.6659 134.624 39.2159ZM133.59 39.0069C133.59 38.6256 133.506 38.2993 133.337 38.0279C133.169 37.7493 132.938 37.5403 132.644 37.4009C132.358 37.2543 132.039 37.1809 131.687 37.1809C131.181 37.1809 130.749 37.3423 130.389 37.6649C130.037 37.9876 129.836 38.4349 129.784 39.0069H133.59ZM141.138 36.4329L137.508 45.2989H136.474L137.662 42.3949L135.231 36.4329H136.342L138.234 41.3169L140.104 36.4329H141.138ZM153.106 36.4329L151.225 42.4609H150.191L148.739 37.6759L147.287 42.4609H146.253L144.361 36.4329H145.384L146.77 41.4929L148.266 36.4329H149.289L150.752 41.5039L152.116 36.4329H153.106ZM156.729 42.5599C156.164 42.5599 155.651 42.4316 155.189 42.1749C154.734 41.9183 154.375 41.5553 154.111 41.0859C153.854 40.6093 153.726 40.0593 153.726 39.4359C153.726 38.8199 153.858 38.2773 154.122 37.8079C154.393 37.3313 154.76 36.9683 155.222 36.7189C155.684 36.4623 156.201 36.3339 156.773 36.3339C157.345 36.3339 157.862 36.4623 158.324 36.7189C158.786 36.9683 159.149 37.3276 159.413 37.7969C159.684 38.2663 159.82 38.8126 159.82 39.4359C159.82 40.0593 159.681 40.6093 159.402 41.0859C159.131 41.5553 158.76 41.9183 158.291 42.1749C157.822 42.4316 157.301 42.5599 156.729 42.5599ZM156.729 41.6799C157.088 41.6799 157.426 41.5956 157.741 41.4269C158.056 41.2583 158.309 41.0053 158.5 40.6679C158.698 40.3306 158.797 39.9199 158.797 39.4359C158.797 38.9519 158.702 38.5413 158.511 38.2039C158.32 37.8666 158.071 37.6173 157.763 37.4559C157.455 37.2873 157.121 37.2029 156.762 37.2029C156.395 37.2029 156.058 37.2873 155.75 37.4559C155.449 37.6173 155.207 37.8666 155.024 38.2039C154.841 38.5413 154.749 38.9519 154.749 39.4359C154.749 39.9273 154.837 40.3416 155.013 40.6789C155.196 41.0163 155.438 41.2693 155.739 41.4379C156.04 41.5993 156.37 41.6799 156.729 41.6799ZM162.137 37.4119C162.313 37.0673 162.562 36.7996 162.885 36.6089C163.215 36.4183 163.615 36.3229 164.084 36.3229V37.3569H163.82C162.698 37.3569 162.137 37.9656 162.137 39.1829V42.4609H161.136V36.4329H162.137V37.4119ZM166.241 34.3209V42.4609H165.24V34.3209H166.241ZM167.573 39.4249C167.573 38.8089 167.697 38.2699 167.947 37.8079C168.196 37.3386 168.537 36.9756 168.97 36.7189C169.41 36.4623 169.901 36.3339 170.444 36.3339C170.913 36.3339 171.349 36.4439 171.753 36.6639C172.156 36.8766 172.464 37.1589 172.677 37.5109V34.3209H173.689V42.4609H172.677V41.3279C172.479 41.6873 172.185 41.9843 171.797 42.2189C171.408 42.4463 170.953 42.5599 170.433 42.5599C169.897 42.5599 169.41 42.4279 168.97 42.1639C168.537 41.8999 168.196 41.5296 167.947 41.0529C167.697 40.5763 167.573 40.0336 167.573 39.4249ZM172.677 39.4359C172.677 38.9813 172.585 38.5853 172.402 38.2479C172.218 37.9106 171.969 37.6539 171.654 37.4779C171.346 37.2946 171.005 37.2029 170.631 37.2029C170.257 37.2029 169.916 37.2909 169.608 37.4669C169.3 37.6429 169.054 37.8996 168.871 38.2369C168.687 38.5743 168.596 38.9703 168.596 39.4249C168.596 39.8869 168.687 40.2903 168.871 40.6349C169.054 40.9723 169.3 41.2326 169.608 41.4159C169.916 41.5919 170.257 41.6799 170.631 41.6799C171.005 41.6799 171.346 41.5919 171.654 41.4159C171.969 41.2326 172.218 40.9723 172.402 40.6349C172.585 40.2903 172.677 39.8906 172.677 39.4359ZM183.41 36.4329L181.529 42.4609H180.495L179.043 37.6759L177.591 42.4609H176.557L174.665 36.4329H175.688L177.074 41.4929L178.57 36.4329H179.593L181.056 41.5039L182.42 36.4329H183.41ZM184.921 35.4539C184.73 35.4539 184.569 35.3879 184.437 35.2559C184.305 35.1239 184.239 34.9626 184.239 34.7719C184.239 34.5813 184.305 34.4199 184.437 34.2879C184.569 34.1559 184.73 34.0899 184.921 34.0899C185.104 34.0899 185.258 34.1559 185.383 34.2879C185.515 34.4199 185.581 34.5813 185.581 34.7719C185.581 34.9626 185.515 35.1239 185.383 35.2559C185.258 35.3879 185.104 35.4539 184.921 35.4539ZM185.405 36.4329V42.4609H184.404V36.4329H185.405ZM186.737 39.4249C186.737 38.8089 186.861 38.2699 187.111 37.8079C187.36 37.3386 187.701 36.9756 188.134 36.7189C188.574 36.4623 189.065 36.3339 189.608 36.3339C190.077 36.3339 190.513 36.4439 190.917 36.6639C191.32 36.8766 191.628 37.1589 191.841 37.5109V34.3209H192.853V42.4609H191.841V41.3279C191.643 41.6873 191.349 41.9843 190.961 42.2189C190.572 42.4463 190.117 42.5599 189.597 42.5599C189.061 42.5599 188.574 42.4279 188.134 42.1639C187.701 41.8999 187.36 41.5296 187.111 41.0529C186.861 40.5763 186.737 40.0336 186.737 39.4249ZM191.841 39.4359C191.841 38.9813 191.749 38.5853 191.566 38.2479C191.382 37.9106 191.133 37.6539 190.818 37.4779C190.51 37.2946 190.169 37.2029 189.795 37.2029C189.421 37.2029 189.08 37.2909 188.772 37.4669C188.464 37.6429 188.218 37.8996 188.035 38.2369C187.851 38.5743 187.76 38.9703 187.76 39.4249C187.76 39.8869 187.851 40.2903 188.035 40.6349C188.218 40.9723 188.464 41.2326 188.772 41.4159C189.08 41.5919 189.421 41.6799 189.795 41.6799C190.169 41.6799 190.51 41.5919 190.818 41.4159C191.133 41.2326 191.382 40.9723 191.566 40.6349C191.749 40.2903 191.841 39.8906 191.841 39.4359ZM200.044 39.2159C200.044 39.4066 200.033 39.6083 200.011 39.8209H195.193C195.23 40.4149 195.432 40.8806 195.798 41.2179C196.172 41.5479 196.623 41.7129 197.151 41.7129C197.584 41.7129 197.943 41.6139 198.229 41.4159C198.523 41.2106 198.728 40.9393 198.845 40.6019H199.923C199.762 41.1813 199.439 41.6543 198.955 42.0209C198.471 42.3803 197.87 42.5599 197.151 42.5599C196.579 42.5599 196.066 42.4316 195.611 42.1749C195.164 41.9183 194.812 41.5553 194.555 41.0859C194.299 40.6093 194.17 40.0593 194.17 39.4359C194.17 38.8126 194.295 38.2663 194.544 37.7969C194.794 37.3276 195.142 36.9683 195.589 36.7189C196.044 36.4623 196.565 36.3339 197.151 36.3339C197.723 36.3339 198.229 36.4586 198.669 36.7079C199.109 36.9573 199.447 37.3019 199.681 37.7419C199.923 38.1746 200.044 38.6659 200.044 39.2159ZM199.01 39.0069C199.01 38.6256 198.926 38.2993 198.757 38.0279C198.589 37.7493 198.358 37.5403 198.064 37.4009C197.778 37.2543 197.459 37.1809 197.107 37.1809C196.601 37.1809 196.169 37.3423 195.809 37.6649C195.457 37.9876 195.256 38.4349 195.204 39.0069H199.01ZM202.4 41.0749L201.168 44.0339H200.497L201.3 41.0749H202.4ZM208.613 42.5599C208.151 42.5599 207.737 42.4829 207.37 42.3289C207.003 42.1676 206.714 41.9476 206.501 41.6689C206.288 41.3829 206.171 41.0566 206.149 40.6899H207.183C207.212 40.9906 207.352 41.2363 207.601 41.4269C207.858 41.6176 208.191 41.7129 208.602 41.7129C208.983 41.7129 209.284 41.6286 209.504 41.4599C209.724 41.2913 209.834 41.0786 209.834 40.8219C209.834 40.5579 209.717 40.3636 209.482 40.2389C209.247 40.1069 208.884 39.9786 208.393 39.8539C207.946 39.7366 207.579 39.6193 207.293 39.5019C207.014 39.3773 206.772 39.1976 206.567 38.9629C206.369 38.7209 206.27 38.4056 206.27 38.0169C206.27 37.7089 206.362 37.4266 206.545 37.1699C206.728 36.9133 206.989 36.7116 207.326 36.5649C207.663 36.4109 208.048 36.3339 208.481 36.3339C209.148 36.3339 209.687 36.5026 210.098 36.8399C210.509 37.1773 210.729 37.6393 210.758 38.2259H209.757C209.735 37.9106 209.607 37.6576 209.372 37.4669C209.145 37.2763 208.837 37.1809 208.448 37.1809C208.089 37.1809 207.803 37.2579 207.59 37.4119C207.377 37.5659 207.271 37.7676 207.271 38.0169C207.271 38.2149 207.333 38.3799 207.458 38.5119C207.59 38.6366 207.751 38.7393 207.942 38.8199C208.14 38.8933 208.411 38.9776 208.756 39.0729C209.189 39.1903 209.541 39.3076 209.812 39.4249C210.083 39.5349 210.314 39.7036 210.505 39.9309C210.703 40.1583 210.806 40.4553 210.813 40.8219C210.813 41.1519 210.721 41.4489 210.538 41.7129C210.355 41.9769 210.094 42.1859 209.757 42.3399C209.427 42.4866 209.046 42.5599 208.613 42.5599ZM213.227 37.5439C213.425 37.1993 213.718 36.9133 214.107 36.6859C214.503 36.4513 214.961 36.3339 215.482 36.3339C216.017 36.3339 216.501 36.4623 216.934 36.7189C217.374 36.9756 217.719 37.3386 217.968 37.8079C218.217 38.2699 218.342 38.8089 218.342 39.4249C218.342 40.0336 218.217 40.5763 217.968 41.0529C217.719 41.5296 217.374 41.8999 216.934 42.1639C216.501 42.4279 216.017 42.5599 215.482 42.5599C214.969 42.5599 214.514 42.4463 214.118 42.2189C213.729 41.9843 213.432 41.6946 213.227 41.3499V45.3209H212.226V36.4329H213.227V37.5439ZM217.319 39.4249C217.319 38.9703 217.227 38.5743 217.044 38.2369C216.861 37.8996 216.611 37.6429 216.296 37.4669C215.988 37.2909 215.647 37.2029 215.273 37.2029C214.906 37.2029 214.565 37.2946 214.25 37.4779C213.942 37.6539 213.693 37.9143 213.502 38.2589C213.319 38.5963 213.227 38.9886 213.227 39.4359C213.227 39.8906 213.319 40.2903 213.502 40.6349C213.693 40.9723 213.942 41.2326 214.25 41.4159C214.565 41.5919 214.906 41.6799 215.273 41.6799C215.647 41.6799 215.988 41.5919 216.296 41.4159C216.611 41.2326 216.861 40.9723 217.044 40.6349C217.227 40.2903 217.319 39.8869 217.319 39.4249ZM225.16 39.2159C225.16 39.4066 225.149 39.6083 225.127 39.8209H220.309C220.345 40.4149 220.547 40.8806 220.914 41.2179C221.288 41.5479 221.739 41.7129 222.267 41.7129C222.699 41.7129 223.059 41.6139 223.345 41.4159C223.638 41.2106 223.843 40.9393 223.961 40.6019H225.039C224.877 41.1813 224.555 41.6543 224.071 42.0209C223.587 42.3803 222.985 42.5599 222.267 42.5599C221.695 42.5599 221.181 42.4316 220.727 42.1749C220.279 41.9183 219.927 41.5553 219.671 41.0859C219.414 40.6093 219.286 40.0593 219.286 39.4359C219.286 38.8126 219.41 38.2663 219.66 37.7969C219.909 37.3276 220.257 36.9683 220.705 36.7189C221.159 36.4623 221.68 36.3339 222.267 36.3339C222.839 36.3339 223.345 36.4586 223.785 36.7079C224.225 36.9573 224.562 37.3019 224.797 37.7419C225.039 38.1746 225.16 38.6659 225.16 39.2159ZM224.126 39.0069C224.126 38.6256 224.041 38.2993 223.873 38.0279C223.704 37.7493 223.473 37.5403 223.18 37.4009C222.894 37.2543 222.575 37.1809 222.223 37.1809C221.717 37.1809 221.284 37.3423 220.925 37.6649C220.573 37.9876 220.371 38.4349 220.32 39.0069H224.126ZM229.418 36.3229C230.151 36.3229 230.745 36.5466 231.2 36.9939C231.654 37.4339 231.882 38.0719 231.882 38.9079V42.4609H230.892V39.0509C230.892 38.4496 230.741 37.9913 230.441 37.6759C230.14 37.3533 229.729 37.1919 229.209 37.1919C228.681 37.1919 228.259 37.3569 227.944 37.6869C227.636 38.0169 227.482 38.4973 227.482 39.1279V42.4609H226.481V36.4329H227.482V37.2909C227.68 36.9829 227.947 36.7446 228.285 36.5759C228.629 36.4073 229.007 36.3229 229.418 36.3229ZM233.143 39.4249C233.143 38.8089 233.268 38.2699 233.517 37.8079C233.766 37.3386 234.107 36.9756 234.54 36.7189C234.98 36.4623 235.471 36.3339 236.014 36.3339C236.483 36.3339 236.92 36.4439 237.323 36.6639C237.726 36.8766 238.034 37.1589 238.247 37.5109V34.3209H239.259V42.4609H238.247V41.3279C238.049 41.6873 237.756 41.9843 237.367 42.2189C236.978 42.4463 236.524 42.5599 236.003 42.5599C235.468 42.5599 234.98 42.4279 234.54 42.1639C234.107 41.8999 233.766 41.5296 233.517 41.0529C233.268 40.5763 233.143 40.0336 233.143 39.4249ZM238.247 39.4359C238.247 38.9813 238.155 38.5853 237.972 38.2479C237.789 37.9106 237.539 37.6539 237.224 37.4779C236.916 37.2946 236.575 37.2029 236.201 37.2029C235.827 37.2029 235.486 37.2909 235.178 37.4669C234.87 37.6429 234.624 37.8996 234.441 38.2369C234.258 38.5743 234.166 38.9703 234.166 39.4249C234.166 39.8869 234.258 40.2903 234.441 40.6349C234.624 40.9723 234.87 41.2326 235.178 41.4159C235.486 41.5919 235.827 41.6799 236.201 41.6799C236.575 41.6799 236.916 41.5919 237.224 41.4159C237.539 41.2326 237.789 40.9723 237.972 40.6349C238.155 40.2903 238.247 39.8906 238.247 39.4359ZM243.509 39.4249C243.509 38.8089 243.634 38.2699 243.883 37.8079C244.132 37.3386 244.473 36.9756 244.906 36.7189C245.346 36.4623 245.834 36.3339 246.369 36.3339C246.897 36.3339 247.355 36.4476 247.744 36.6749C248.133 36.9023 248.422 37.1883 248.613 37.5329V36.4329H249.625V42.4609H248.613V41.3389C248.415 41.6909 248.118 41.9843 247.722 42.2189C247.333 42.4463 246.879 42.5599 246.358 42.5599C245.823 42.5599 245.339 42.4279 244.906 42.1639C244.473 41.8999 244.132 41.5296 243.883 41.0529C243.634 40.5763 243.509 40.0336 243.509 39.4249ZM248.613 39.4359C248.613 38.9813 248.521 38.5853 248.338 38.2479C248.155 37.9106 247.905 37.6539 247.59 37.4779C247.282 37.2946 246.941 37.2029 246.567 37.2029C246.193 37.2029 245.852 37.2909 245.544 37.4669C245.236 37.6429 244.99 37.8996 244.807 38.2369C244.624 38.5743 244.532 38.9703 244.532 39.4249C244.532 39.8869 244.624 40.2903 244.807 40.6349C244.99 40.9723 245.236 41.2326 245.544 41.4159C245.852 41.5919 246.193 41.6799 246.567 41.6799C246.941 41.6799 247.282 41.5919 247.59 41.4159C247.905 41.2326 248.155 40.9723 248.338 40.6349C248.521 40.2903 248.613 39.8906 248.613 39.4359ZM254.254 36.3229C254.987 36.3229 255.581 36.5466 256.036 36.9939C256.49 37.4339 256.718 38.0719 256.718 38.9079V42.4609H255.728V39.0509C255.728 38.4496 255.577 37.9913 255.277 37.6759C254.976 37.3533 254.565 37.1919 254.045 37.1919C253.517 37.1919 253.095 37.3569 252.78 37.6869C252.472 38.0169 252.318 38.4973 252.318 39.1279V42.4609H251.317V36.4329H252.318V37.2909C252.516 36.9829 252.783 36.7446 253.121 36.5759C253.465 36.4073 253.843 36.3229 254.254 36.3229ZM257.979 39.4249C257.979 38.8089 258.104 38.2699 258.353 37.8079C258.602 37.3386 258.943 36.9756 259.376 36.7189C259.816 36.4623 260.307 36.3339 260.85 36.3339C261.319 36.3339 261.756 36.4439 262.159 36.6639C262.562 36.8766 262.87 37.1589 263.083 37.5109V34.3209H264.095V42.4609H263.083V41.3279C262.885 41.6873 262.592 41.9843 262.203 42.2189C261.814 42.4463 261.36 42.5599 260.839 42.5599C260.304 42.5599 259.816 42.4279 259.376 42.1639C258.943 41.8999 258.602 41.5296 258.353 41.0529C258.104 40.5763 257.979 40.0336 257.979 39.4249ZM263.083 39.4359C263.083 38.9813 262.991 38.5853 262.808 38.2479C262.625 37.9106 262.375 37.6539 262.06 37.4779C261.752 37.2946 261.411 37.2029 261.037 37.2029C260.663 37.2029 260.322 37.2909 260.014 37.4669C259.706 37.6429 259.46 37.8996 259.277 38.2369C259.094 38.5743 259.002 38.9703 259.002 39.4249C259.002 39.8869 259.094 40.2903 259.277 40.6349C259.46 40.9723 259.706 41.2326 260.014 41.4159C260.322 41.5919 260.663 41.6799 261.037 41.6799C261.411 41.6799 261.752 41.5919 262.06 41.4159C262.375 41.2326 262.625 40.9723 262.808 40.6349C262.991 40.2903 263.083 39.8906 263.083 39.4359ZM271.205 36.3339C271.726 36.3339 272.18 36.4476 272.569 36.6749C272.965 36.9023 273.258 37.1883 273.449 37.5329V36.4329H274.461V42.5929C274.461 43.1429 274.344 43.6306 274.109 44.0559C273.874 44.4886 273.537 44.8259 273.097 45.0679C272.664 45.3099 272.158 45.4309 271.579 45.4309C270.787 45.4309 270.127 45.2439 269.599 44.8699C269.071 44.4959 268.759 43.9863 268.664 43.3409H269.654C269.764 43.7076 269.991 44.0009 270.336 44.2209C270.681 44.4483 271.095 44.5619 271.579 44.5619C272.129 44.5619 272.576 44.3896 272.921 44.0449C273.273 43.7003 273.449 43.2163 273.449 42.5929V41.3279C273.251 41.6799 272.958 41.9733 272.569 42.2079C272.18 42.4426 271.726 42.5599 271.205 42.5599C270.67 42.5599 270.182 42.4279 269.742 42.1639C269.309 41.8999 268.968 41.5296 268.719 41.0529C268.47 40.5763 268.345 40.0336 268.345 39.4249C268.345 38.8089 268.47 38.2699 268.719 37.8079C268.968 37.3386 269.309 36.9756 269.742 36.7189C270.182 36.4623 270.67 36.3339 271.205 36.3339ZM273.449 39.4359C273.449 38.9813 273.357 38.5853 273.174 38.2479C272.991 37.9106 272.741 37.6539 272.426 37.4779C272.118 37.2946 271.777 37.2029 271.403 37.2029C271.029 37.2029 270.688 37.2909 270.38 37.4669C270.072 37.6429 269.826 37.8996 269.643 38.2369C269.46 38.5743 269.368 38.9703 269.368 39.4249C269.368 39.8869 269.46 40.2903 269.643 40.6349C269.826 40.9723 270.072 41.2326 270.38 41.4159C270.688 41.5919 271.029 41.6799 271.403 41.6799C271.777 41.6799 272.118 41.5919 272.426 41.4159C272.741 41.2326 272.991 40.9723 273.174 40.6349C273.357 40.2903 273.449 39.8906 273.449 39.4359ZM281.653 39.2159C281.653 39.4066 281.642 39.6083 281.62 39.8209H276.802C276.838 40.4149 277.04 40.8806 277.407 41.2179C277.781 41.5479 278.232 41.7129 278.76 41.7129C279.192 41.7129 279.552 41.6139 279.838 41.4159C280.131 41.2106 280.336 40.9393 280.454 40.6019H281.532C281.37 41.1813 281.048 41.6543 280.564 42.0209C280.08 42.3803 279.478 42.5599 278.76 42.5599C278.188 42.5599 277.674 42.4316 277.22 42.1749C276.772 41.9183 276.42 41.5553 276.164 41.0859C275.907 40.6093 275.779 40.0593 275.779 39.4359C275.779 38.8126 275.903 38.2663 276.153 37.7969C276.402 37.3276 276.75 36.9683 277.198 36.7189C277.652 36.4623 278.173 36.3339 278.76 36.3339C279.332 36.3339 279.838 36.4586 280.278 36.7079C280.718 36.9573 281.055 37.3019 281.29 37.7419C281.532 38.1746 281.653 38.6659 281.653 39.2159ZM280.619 39.0069C280.619 38.6256 280.534 38.2993 280.366 38.0279C280.197 37.7493 279.966 37.5403 279.673 37.4009C279.387 37.2543 279.068 37.1809 278.716 37.1809C278.21 37.1809 277.777 37.3423 277.418 37.6649C277.066 37.9876 276.864 38.4349 276.813 39.0069H280.619ZM284.195 37.2579V40.8109C284.195 41.1043 284.257 41.3133 284.382 41.4379C284.507 41.5553 284.723 41.6139 285.031 41.6139H285.768V42.4609H284.866C284.309 42.4609 283.891 42.3326 283.612 42.0759C283.333 41.8193 283.194 41.3976 283.194 40.8109V37.2579H282.413V36.4329H283.194V34.9149H284.195V36.4329H285.768V37.2579H284.195ZM290.914 37.5439C291.112 37.1993 291.406 36.9133 291.794 36.6859C292.19 36.4513 292.649 36.3339 293.169 36.3339C293.705 36.3339 294.189 36.4623 294.621 36.7189C295.061 36.9756 295.406 37.3386 295.655 37.8079C295.905 38.2699 296.029 38.8089 296.029 39.4249C296.029 40.0336 295.905 40.5763 295.655 41.0529C295.406 41.5296 295.061 41.8999 294.621 42.1639C294.189 42.4279 293.705 42.5599 293.169 42.5599C292.656 42.5599 292.201 42.4463 291.805 42.2189C291.417 41.9843 291.12 41.6946 290.914 41.3499V45.3209H289.913V36.4329H290.914V37.5439ZM295.006 39.4249C295.006 38.9703 294.915 38.5743 294.731 38.2369C294.548 37.8996 294.299 37.6429 293.983 37.4669C293.675 37.2909 293.334 37.2029 292.96 37.2029C292.594 37.2029 292.253 37.2946 291.937 37.4779C291.629 37.6539 291.38 37.9143 291.189 38.2589C291.006 38.5963 290.914 38.9886 290.914 39.4359C290.914 39.8906 291.006 40.2903 291.189 40.6349C291.38 40.9723 291.629 41.2326 291.937 41.4159C292.253 41.5919 292.594 41.6799 292.96 41.6799C293.334 41.6799 293.675 41.5919 293.983 41.4159C294.299 41.2326 294.548 40.9723 294.731 40.6349C294.915 40.2903 295.006 39.8869 295.006 39.4249ZM296.973 39.4249C296.973 38.8089 297.098 38.2699 297.347 37.8079C297.596 37.3386 297.937 36.9756 298.37 36.7189C298.81 36.4623 299.298 36.3339 299.833 36.3339C300.361 36.3339 300.819 36.4476 301.208 36.6749C301.597 36.9023 301.886 37.1883 302.077 37.5329V36.4329H303.089V42.4609H302.077V41.3389C301.879 41.6909 301.582 41.9843 301.186 42.2189C300.797 42.4463 300.343 42.5599 299.822 42.5599C299.287 42.5599 298.803 42.4279 298.37 42.1639C297.937 41.8999 297.596 41.5296 297.347 41.0529C297.098 40.5763 296.973 40.0336 296.973 39.4249ZM302.077 39.4359C302.077 38.9813 301.985 38.5853 301.802 38.2479C301.619 37.9106 301.369 37.6539 301.054 37.4779C300.746 37.2946 300.405 37.2029 300.031 37.2029C299.657 37.2029 299.316 37.2909 299.008 37.4669C298.7 37.6429 298.454 37.8996 298.271 38.2369C298.088 38.5743 297.996 38.9703 297.996 39.4249C297.996 39.8869 298.088 40.2903 298.271 40.6349C298.454 40.9723 298.7 41.2326 299.008 41.4159C299.316 41.5919 299.657 41.6799 300.031 41.6799C300.405 41.6799 300.746 41.5919 301.054 41.4159C301.369 41.2326 301.619 40.9723 301.802 40.6349C301.985 40.2903 302.077 39.8906 302.077 39.4359ZM305.298 35.4539C305.107 35.4539 304.946 35.3879 304.814 35.2559C304.682 35.1239 304.616 34.9626 304.616 34.7719C304.616 34.5813 304.682 34.4199 304.814 34.2879C304.946 34.1559 305.107 34.0899 305.298 34.0899C305.481 34.0899 305.635 34.1559 305.76 34.2879C305.892 34.4199 305.958 34.5813 305.958 34.7719C305.958 34.9626 305.892 35.1239 305.76 35.2559C305.635 35.3879 305.481 35.4539 305.298 35.4539ZM305.782 36.4329V42.4609H304.781V36.4329H305.782ZM307.114 39.4249C307.114 38.8089 307.238 38.2699 307.488 37.8079C307.737 37.3386 308.078 36.9756 308.511 36.7189C308.951 36.4623 309.442 36.3339 309.985 36.3339C310.454 36.3339 310.89 36.4439 311.294 36.6639C311.697 36.8766 312.005 37.1589 312.218 37.5109V34.3209H313.23V42.4609H312.218V41.3279C312.02 41.6873 311.726 41.9843 311.338 42.2189C310.949 42.4463 310.494 42.5599 309.974 42.5599C309.438 42.5599 308.951 42.4279 308.511 42.1639C308.078 41.8999 307.737 41.5296 307.488 41.0529C307.238 40.5763 307.114 40.0336 307.114 39.4249ZM312.218 39.4359C312.218 38.9813 312.126 38.5853 311.943 38.2479C311.759 37.9106 311.51 37.6539 311.195 37.4779C310.887 37.2946 310.546 37.2029 310.172 37.2029C309.798 37.2029 309.457 37.2909 309.149 37.4669C308.841 37.6429 308.595 37.8996 308.412 38.2369C308.228 38.5743 308.137 38.9703 308.137 39.4249C308.137 39.8869 308.228 40.2903 308.412 40.6349C308.595 40.9723 308.841 41.2326 309.149 41.4159C309.457 41.5919 309.798 41.6799 310.172 41.6799C310.546 41.6799 310.887 41.5919 311.195 41.4159C311.51 41.2326 311.759 40.9723 311.943 40.6349C312.126 40.2903 312.218 39.8906 312.218 39.4359ZM318.371 35.4539C318.18 35.4539 318.019 35.3879 317.887 35.2559C317.755 35.1239 317.689 34.9626 317.689 34.7719C317.689 34.5813 317.755 34.4199 317.887 34.2879C318.019 34.1559 318.18 34.0899 318.371 34.0899C318.554 34.0899 318.708 34.1559 318.833 34.2879C318.965 34.4199 319.031 34.5813 319.031 34.7719C319.031 34.9626 318.965 35.1239 318.833 35.2559C318.708 35.3879 318.554 35.4539 318.371 35.4539ZM318.855 36.4329V42.4609H317.854V36.4329H318.855ZM323.498 36.3229C324.231 36.3229 324.825 36.5466 325.28 36.9939C325.735 37.4339 325.962 38.0719 325.962 38.9079V42.4609H324.972V39.0509C324.972 38.4496 324.822 37.9913 324.521 37.6759C324.22 37.3533 323.81 37.1919 323.289 37.1919C322.761 37.1919 322.339 37.3569 322.024 37.6869C321.716 38.0169 321.562 38.4973 321.562 39.1279V42.4609H320.561V36.4329H321.562V37.2909C321.76 36.9829 322.028 36.7446 322.365 36.5759C322.71 36.4073 323.087 36.3229 323.498 36.3229ZM330.156 39.4249C330.156 38.8089 330.28 38.2699 330.53 37.8079C330.779 37.3386 331.12 36.9756 331.553 36.7189C331.993 36.4623 332.484 36.3339 333.027 36.3339C333.496 36.3339 333.932 36.4439 334.336 36.6639C334.739 36.8766 335.047 37.1589 335.26 37.5109V34.3209H336.272V42.4609H335.26V41.3279C335.062 41.6873 334.768 41.9843 334.38 42.2189C333.991 42.4463 333.536 42.5599 333.016 42.5599C332.48 42.5599 331.993 42.4279 331.553 42.1639C331.12 41.8999 330.779 41.5296 330.53 41.0529C330.28 40.5763 330.156 40.0336 330.156 39.4249ZM335.26 39.4359C335.26 38.9813 335.168 38.5853 334.985 38.2479C334.801 37.9106 334.552 37.6539 334.237 37.4779C333.929 37.2946 333.588 37.2029 333.214 37.2029C332.84 37.2029 332.499 37.2909 332.191 37.4669C331.883 37.6429 331.637 37.8996 331.454 38.2369C331.27 38.5743 331.179 38.9703 331.179 39.4249C331.179 39.8869 331.27 40.2903 331.454 40.6349C331.637 40.9723 331.883 41.2326 332.191 41.4159C332.499 41.5919 332.84 41.6799 333.214 41.6799C333.588 41.6799 333.929 41.5919 334.237 41.4159C334.552 41.2326 334.801 40.9723 334.985 40.6349C335.168 40.2903 335.26 39.8906 335.26 39.4359ZM338.48 35.4539C338.29 35.4539 338.128 35.3879 337.996 35.2559C337.864 35.1239 337.798 34.9626 337.798 34.7719C337.798 34.5813 337.864 34.4199 337.996 34.2879C338.128 34.1559 338.29 34.0899 338.48 34.0899C338.664 34.0899 338.818 34.1559 338.942 34.2879C339.074 34.4199 339.14 34.5813 339.14 34.7719C339.14 34.9626 339.074 35.1239 338.942 35.2559C338.818 35.3879 338.664 35.4539 338.48 35.4539ZM338.964 36.4329V42.4609H337.963V36.4329H338.964ZM343.123 37.2579H341.858V42.4609H340.857V37.2579H340.076V36.4329H340.857V36.0039C340.857 35.3293 341.03 34.8379 341.374 34.5299C341.726 34.2146 342.287 34.0569 343.057 34.0569V34.8929C342.617 34.8929 342.306 34.9809 342.122 35.1569C341.946 35.3256 341.858 35.6079 341.858 36.0039V36.4329H343.123V37.2579ZM346.743 37.2579H345.478V42.4609H344.477V37.2579H343.696V36.4329H344.477V36.0039C344.477 35.3293 344.65 34.8379 344.994 34.5299C345.346 34.2146 345.907 34.0569 346.677 34.0569V34.8929C346.237 34.8929 345.926 34.9809 345.742 35.1569C345.566 35.3256 345.478 35.6079 345.478 36.0039V36.4329H346.743V37.2579ZM353.41 39.2159C353.41 39.4066 353.399 39.6083 353.377 39.8209H348.559C348.596 40.4149 348.798 40.8806 349.164 41.2179C349.538 41.5479 349.989 41.7129 350.517 41.7129C350.95 41.7129 351.309 41.6139 351.595 41.4159C351.889 41.2106 352.094 40.9393 352.211 40.6019H353.289C353.128 41.1813 352.805 41.6543 352.321 42.0209C351.837 42.3803 351.236 42.5599 350.517 42.5599C349.945 42.5599 349.432 42.4316 348.977 42.1749C348.53 41.9183 348.178 41.5553 347.921 41.0859C347.665 40.6093 347.536 40.0593 347.536 39.4359C347.536 38.8126 347.661 38.2663 347.91 37.7969C348.16 37.3276 348.508 36.9683 348.955 36.7189C349.41 36.4623 349.931 36.3339 350.517 36.3339C351.089 36.3339 351.595 36.4586 352.035 36.7079C352.475 36.9573 352.813 37.3019 353.047 37.7419C353.289 38.1746 353.41 38.6659 353.41 39.2159ZM352.376 39.0069C352.376 38.6256 352.292 38.2993 352.123 38.0279C351.955 37.7493 351.724 37.5403 351.43 37.4009C351.144 37.2543 350.825 37.1809 350.473 37.1809C349.967 37.1809 349.535 37.3423 349.175 37.6649C348.823 37.9876 348.622 38.4349 348.57 39.0069H352.376ZM355.733 37.4119C355.909 37.0673 356.158 36.7996 356.481 36.6089C356.811 36.4183 357.21 36.3229 357.68 36.3229V37.3569H357.416C356.294 37.3569 355.733 37.9656 355.733 39.1829V42.4609H354.732V36.4329H355.733V37.4119ZM364.335 39.2159C364.335 39.4066 364.324 39.6083 364.302 39.8209H359.484C359.521 40.4149 359.723 40.8806 360.089 41.2179C360.463 41.5479 360.914 41.7129 361.442 41.7129C361.875 41.7129 362.234 41.6139 362.52 41.4159C362.814 41.2106 363.019 40.9393 363.136 40.6019H364.214C364.053 41.1813 363.73 41.6543 363.246 42.0209C362.762 42.3803 362.161 42.5599 361.442 42.5599C360.87 42.5599 360.357 42.4316 359.902 42.1749C359.455 41.9183 359.103 41.5553 358.846 41.0859C358.59 40.6093 358.461 40.0593 358.461 39.4359C358.461 38.8126 358.586 38.2663 358.835 37.7969C359.085 37.3276 359.433 36.9683 359.88 36.7189C360.335 36.4623 360.856 36.3339 361.442 36.3339C362.014 36.3339 362.52 36.4586 362.96 36.7079C363.4 36.9573 363.738 37.3019 363.972 37.7419C364.214 38.1746 364.335 38.6659 364.335 39.2159ZM363.301 39.0069C363.301 38.6256 363.217 38.2993 363.048 38.0279C362.88 37.7493 362.649 37.5403 362.355 37.4009C362.069 37.2543 361.75 37.1809 361.398 37.1809C360.892 37.1809 360.46 37.3423 360.1 37.6649C359.748 37.9876 359.547 38.4349 359.495 39.0069H363.301ZM368.594 36.3229C369.327 36.3229 369.921 36.5466 370.376 36.9939C370.83 37.4339 371.058 38.0719 371.058 38.9079V42.4609H370.068V39.0509C370.068 38.4496 369.917 37.9913 369.617 37.6759C369.316 37.3533 368.905 37.1919 368.385 37.1919C367.857 37.1919 367.435 37.3569 367.12 37.6869C366.812 38.0169 366.658 38.4973 366.658 39.1279V42.4609H365.657V36.4329H366.658V37.2909C366.856 36.9829 367.123 36.7446 367.461 36.5759C367.805 36.4073 368.183 36.3229 368.594 36.3229ZM373.914 37.2579V40.8109C373.914 41.1043 373.976 41.3133 374.101 41.4379C374.225 41.5553 374.442 41.6139 374.75 41.6139H375.487V42.4609H374.585C374.027 42.4609 373.609 42.3326 373.331 42.0759C373.052 41.8193 372.913 41.3976 372.913 40.8109V37.2579H372.132V36.4329H372.913V34.9149H373.914V36.4329H375.487V37.2579H373.914ZM27.473 56.4359C27.473 55.8126 27.5977 55.2699 27.847 54.8079C28.0963 54.3386 28.441 53.9756 28.881 53.7189C29.3283 53.4623 29.838 53.3339 30.41 53.3339C31.1507 53.3339 31.7593 53.5136 32.236 53.8729C32.72 54.2323 33.039 54.7309 33.193 55.3689H32.115C32.0123 55.0023 31.8107 54.7126 31.51 54.4999C31.2167 54.2873 30.85 54.1809 30.41 54.1809C29.838 54.1809 29.376 54.3789 29.024 54.7749C28.672 55.1636 28.496 55.7173 28.496 56.4359C28.496 57.1619 28.672 57.7229 29.024 58.1189C29.376 58.5149 29.838 58.7129 30.41 58.7129C30.85 58.7129 31.2167 58.6103 31.51 58.4049C31.8033 58.1996 32.005 57.9063 32.115 57.5249H33.193C33.0317 58.1409 32.709 58.6359 32.225 59.0099C31.741 59.3766 31.136 59.5599 30.41 59.5599C29.838 59.5599 29.3283 59.4316 28.881 59.1749C28.441 58.9183 28.0963 58.5553 27.847 58.0859C27.5977 57.6166 27.473 57.0666 27.473 56.4359ZM39.8746 53.4329V59.4609H38.8736V58.5699C38.683 58.8779 38.4153 59.1199 38.0706 59.2959C37.7333 59.4646 37.3593 59.5489 36.9486 59.5489C36.4793 59.5489 36.0576 59.4536 35.6836 59.2629C35.3096 59.0649 35.0126 58.7716 34.7926 58.3829C34.58 57.9943 34.4736 57.5213 34.4736 56.9639V53.4329H35.4636V56.8319C35.4636 57.4259 35.614 57.8843 35.9146 58.2069C36.2153 58.5223 36.626 58.6799 37.1466 58.6799C37.682 58.6799 38.1036 58.5149 38.4116 58.1849C38.7196 57.8549 38.8736 57.3746 38.8736 56.7439V53.4329H39.8746ZM42.5658 54.4119C42.7418 54.0673 42.9911 53.7996 43.3138 53.6089C43.6438 53.4183 44.0434 53.3229 44.5128 53.3229V54.3569H44.2488C43.1268 54.3569 42.5658 54.9656 42.5658 56.1829V59.4609H41.5648V53.4329H42.5658V54.4119ZM46.6693 54.4119C46.8453 54.0673 47.0946 53.7996 47.4173 53.6089C47.7473 53.4183 48.147 53.3229 48.6163 53.3229V54.3569H48.3523C47.2303 54.3569 46.6693 54.9656 46.6693 56.1829V59.4609H45.6683V53.4329H46.6693V54.4119ZM55.2718 56.2159C55.2718 56.4066 55.2608 56.6083 55.2388 56.8209H50.4208C50.4575 57.4149 50.6591 57.8806 51.0258 58.2179C51.3998 58.5479 51.8508 58.7129 52.3788 58.7129C52.8115 58.7129 53.1708 58.6139 53.4568 58.4159C53.7501 58.2106 53.9555 57.9393 54.0728 57.6019H55.1508C54.9895 58.1813 54.6668 58.6543 54.1828 59.0209C53.6988 59.3803 53.0975 59.5599 52.3788 59.5599C51.8068 59.5599 51.2935 59.4316 50.8388 59.1749C50.3915 58.9183 50.0395 58.5553 49.7828 58.0859C49.5261 57.6093 49.3978 57.0593 49.3978 56.4359C49.3978 55.8126 49.5225 55.2663 49.7718 54.7969C50.0211 54.3276 50.3695 53.9683 50.8168 53.7189C51.2715 53.4623 51.7921 53.3339 52.3788 53.3339C52.9508 53.3339 53.4568 53.4586 53.8968 53.7079C54.3368 53.9573 54.6741 54.3019 54.9088 54.7419C55.1508 55.1746 55.2718 55.6659 55.2718 56.2159ZM54.2378 56.0069C54.2378 55.6256 54.1535 55.2993 53.9848 55.0279C53.8161 54.7493 53.5851 54.5403 53.2918 54.4009C53.0058 54.2543 52.6868 54.1809 52.3348 54.1809C51.8288 54.1809 51.3961 54.3423 51.0368 54.6649C50.6848 54.9876 50.4831 55.4349 50.4318 56.0069H54.2378ZM59.5301 53.3229C60.2634 53.3229 60.8574 53.5466 61.3121 53.9939C61.7668 54.4339 61.9941 55.0719 61.9941 55.9079V59.4609H61.0041V56.0509C61.0041 55.4496 60.8538 54.9913 60.5531 54.6759C60.2524 54.3533 59.8418 54.1919 59.3211 54.1919C58.7931 54.1919 58.3714 54.3569 58.0561 54.6869C57.7481 55.0169 57.5941 55.4973 57.5941 56.1279V59.4609H56.5931V53.4329H57.5941V54.2909C57.7921 53.9829 58.0598 53.7446 58.3971 53.5759C58.7418 53.4073 59.1194 53.3229 59.5301 53.3229ZM63.2552 56.4359C63.2552 55.8126 63.3799 55.2699 63.6292 54.8079C63.8786 54.3386 64.2232 53.9756 64.6632 53.7189C65.1106 53.4623 65.6202 53.3339 66.1922 53.3339C66.9329 53.3339 67.5416 53.5136 68.0182 53.8729C68.5022 54.2323 68.8212 54.7309 68.9752 55.3689H67.8972C67.7946 55.0023 67.5929 54.7126 67.2922 54.4999C66.9989 54.2873 66.6322 54.1809 66.1922 54.1809C65.6202 54.1809 65.1582 54.3789 64.8062 54.7749C64.4542 55.1636 64.2782 55.7173 64.2782 56.4359C64.2782 57.1619 64.4542 57.7229 64.8062 58.1189C65.1582 58.5149 65.6202 58.7129 66.1922 58.7129C66.6322 58.7129 66.9989 58.6103 67.2922 58.4049C67.5856 58.1996 67.7872 57.9063 67.8972 57.5249H68.9752C68.8139 58.1409 68.4912 58.6359 68.0072 59.0099C67.5232 59.3766 66.9182 59.5599 66.1922 59.5599C65.6202 59.5599 65.1106 59.4316 64.6632 59.1749C64.2232 58.9183 63.8786 58.5553 63.6292 58.0859C63.3799 57.6166 63.2552 57.0666 63.2552 56.4359ZM70.8279 52.4539C70.6372 52.4539 70.4759 52.3879 70.3439 52.2559C70.2119 52.1239 70.1459 51.9626 70.1459 51.7719C70.1459 51.5813 70.2119 51.4199 70.3439 51.2879C70.4759 51.1559 70.6372 51.0899 70.8279 51.0899C71.0112 51.0899 71.1652 51.1559 71.2899 51.2879C71.4219 51.4199 71.4879 51.5813 71.4879 51.7719C71.4879 51.9626 71.4219 52.1239 71.2899 52.2559C71.1652 52.3879 71.0112 52.4539 70.8279 52.4539ZM71.3119 53.4329V59.4609H70.3109V53.4329H71.3119ZM78.5179 56.2159C78.5179 56.4066 78.5069 56.6083 78.4849 56.8209H73.6669C73.7036 57.4149 73.9052 57.8806 74.2719 58.2179C74.6459 58.5479 75.0969 58.7129 75.6249 58.7129C76.0576 58.7129 76.4169 58.6139 76.7029 58.4159C76.9962 58.2106 77.2016 57.9393 77.3189 57.6019H78.3969C78.2356 58.1813 77.9129 58.6543 77.4289 59.0209C76.9449 59.3803 76.3436 59.5599 75.6249 59.5599C75.0529 59.5599 74.5396 59.4316 74.0849 59.1749C73.6376 58.9183 73.2856 58.5553 73.0289 58.0859C72.7722 57.6093 72.6439 57.0593 72.6439 56.4359C72.6439 55.8126 72.7686 55.2663 73.0179 54.7969C73.2672 54.3276 73.6156 53.9683 74.0629 53.7189C74.5176 53.4623 75.0382 53.3339 75.6249 53.3339C76.1969 53.3339 76.7029 53.4586 77.1429 53.7079C77.5829 53.9573 77.9202 54.3019 78.1549 54.7419C78.3969 55.1746 78.5179 55.6659 78.5179 56.2159ZM77.4839 56.0069C77.4839 55.6256 77.3996 55.2993 77.2309 55.0279C77.0622 54.7493 76.8312 54.5403 76.5379 54.4009C76.2519 54.2543 75.9329 54.1809 75.5809 54.1809C75.0749 54.1809 74.6422 54.3423 74.2829 54.6649C73.9309 54.9876 73.7292 55.4349 73.6779 56.0069H77.4839ZM81.9732 59.5599C81.5112 59.5599 81.0969 59.4829 80.7302 59.3289C80.3635 59.1676 80.0739 58.9476 79.8612 58.6689C79.6485 58.3829 79.5312 58.0566 79.5092 57.6899H80.5432C80.5725 57.9906 80.7119 58.2363 80.9612 58.4269C81.2179 58.6176 81.5515 58.7129 81.9622 58.7129C82.3435 58.7129 82.6442 58.6286 82.8642 58.4599C83.0842 58.2913 83.1942 58.0786 83.1942 57.8219C83.1942 57.5579 83.0769 57.3636 82.8422 57.2389C82.6075 57.1069 82.2445 56.9786 81.7532 56.8539C81.3059 56.7366 80.9392 56.6193 80.6532 56.5019C80.3745 56.3773 80.1325 56.1976 79.9272 55.9629C79.7292 55.7209 79.6302 55.4056 79.6302 55.0169C79.6302 54.7089 79.7219 54.4266 79.9052 54.1699C80.0885 53.9133 80.3489 53.7116 80.6862 53.5649C81.0235 53.4109 81.4085 53.3339 81.8412 53.3339C82.5085 53.3339 83.0475 53.5026 83.4582 53.8399C83.8689 54.1773 84.0889 54.6393 84.1182 55.2259H83.1172C83.0952 54.9106 82.9669 54.6576 82.7322 54.4669C82.5049 54.2763 82.1969 54.1809 81.8082 54.1809C81.4489 54.1809 81.1629 54.2579 80.9502 54.4119C80.7375 54.5659 80.6312 54.7676 80.6312 55.0169C80.6312 55.2149 80.6935 55.3799 80.8182 55.5119C80.9502 55.6366 81.1115 55.7393 81.3022 55.8199C81.5002 55.8933 81.7715 55.9776 82.1162 56.0729C82.5489 56.1903 82.9009 56.3076 83.1722 56.4249C83.4435 56.5349 83.6745 56.7036 83.8652 56.9309C84.0632 57.1583 84.1659 57.4553 84.1732 57.8219C84.1732 58.1519 84.0815 58.4489 83.8982 58.7129C83.7149 58.9769 83.4545 59.1859 83.1172 59.3399C82.7872 59.4866 82.4059 59.5599 81.9732 59.5599ZM85.9053 59.5269C85.7146 59.5269 85.5533 59.4609 85.4213 59.3289C85.2893 59.1969 85.2233 59.0356 85.2233 58.8449C85.2233 58.6543 85.2893 58.4929 85.4213 58.3609C85.5533 58.2289 85.7146 58.1629 85.9053 58.1629C86.0886 58.1629 86.2426 58.2289 86.3673 58.3609C86.4993 58.4929 86.5653 58.6543 86.5653 58.8449C86.5653 59.0356 86.4993 59.1969 86.3673 59.3289C86.2426 59.4609 86.0886 59.5269 85.9053 59.5269Z" fill="#525252"/>
<defs>
<filter id="filter0_d_812_256" x="0" y="0.61084" width="403" height="83.7295" filterUnits="userSpaceOnUse" color-interpolation-filters="sRGB">
<feFlood flood-opacity="0" result="BackgroundImageFix"/>
<feColorMatrix in="SourceAlpha" type="matrix" values="0 0 0 0 0 0 0 0 0 0 0 0 0 0 0 0 0 0 127 0" result="hardAlpha"/>
<feOffset/>
<feGaussianBlur stdDeviation="5"/>
<feComposite in2="hardAlpha" operator="out"/>
<feColorMatrix type="matrix" values="0 0 0 0 0 0 0 0 0 0 0 0 0 0 0 0 0 0 0.25 0"/>
<feBlend mode="normal" in2="BackgroundImageFix" result="effect1_dropShadow_812_256"/>
<feBlend mode="normal" in="SourceGraphic" in2="effect1_dropShadow_812_256" result="shape"/>
</filter>
</defs>
</svg>
