<svg width="40" height="41" viewBox="0 0 40 41" fill="none" xmlns="http://www.w3.org/2000/svg">
<path d="M20 35.5001C21.9698 35.5001 23.9203 35.1121 25.7402 34.3583C27.5601 33.6045 29.2137 32.4996 30.6066 31.1067C31.9994 29.7138 33.1043 28.0602 33.8582 26.2403C34.612 24.4205 35 22.4699 35 20.5001C35 18.5303 34.612 16.5797 33.8582 14.7598C33.1043 12.9399 31.9994 11.2864 30.6066 9.89348C29.2137 8.5006 27.5601 7.39571 25.7402 6.64189C23.9203 5.88807 21.9698 5.50008 20 5.50008C16.0217 5.50008 12.2064 7.08043 9.39336 9.89348C6.58031 12.7065 4.99996 16.5218 4.99996 20.5001C4.99996 24.4783 6.58031 28.2936 9.39336 31.1067C12.2064 33.9197 16.0217 35.5001 20 35.5001ZM38.3333 20.5001C38.3333 30.6251 30.125 38.8334 20 38.8334C9.87496 38.8334 1.66663 30.6251 1.66663 20.5001C1.66663 10.3751 9.87496 2.16675 20 2.16675C30.125 2.16675 38.3333 10.3751 38.3333 20.5001ZM26.15 32.5417L19.1383 25.5301C17.6253 25.9354 16.0287 25.9062 14.5315 25.4458C13.0344 24.9854 11.6972 24.1124 10.6734 22.927C9.64961 21.7416 8.98054 20.2916 8.74293 18.7434C8.50531 17.1952 8.70876 15.6113 9.32996 14.1734L9.85996 12.9434L12.1183 13.3801L15.19 16.4501L15.955 15.6834L12.8833 12.6167L12.445 10.3601L13.6766 9.82842C15.1146 9.20749 16.6985 9.00432 18.2466 9.24219C19.7948 9.48006 21.2446 10.1493 22.4298 11.1733C23.6151 12.1973 24.4878 13.5345 24.948 15.0317C25.4081 16.5289 25.4371 18.1255 25.0316 19.6384L32.0433 26.6517L26.15 32.5417ZM27.33 26.6501L21.1466 20.4667L21.585 19.4334C21.8911 18.7123 22.0234 17.9294 21.9714 17.1477C21.9194 16.366 21.6844 15.6075 21.2854 14.9334C20.8865 14.2592 20.3347 13.6882 19.6745 13.2664C19.0144 12.8446 18.2644 12.5838 17.485 12.5051L20.6683 15.6867L15.19 21.1651L12.0066 17.9817C12.0849 18.7615 12.3453 19.5119 12.7669 20.1724C13.1885 20.833 13.7594 21.3852 14.4337 21.7845C15.1079 22.1838 15.8666 22.4191 16.6485 22.4713C17.4304 22.5235 18.2136 22.3912 18.935 22.0851L19.9683 21.6451L26.1516 27.8284L27.33 26.6501Z" fill="#002060"/>
</svg>
