<?xml version="1.0" encoding="UTF-8"?><svg id="Components" xmlns="http://www.w3.org/2000/svg" viewBox="0 0 111.13 37.06"><defs><style>.cls-1{fill:#ffd800;}.cls-2{fill:#fff;}</style></defs><path class="cls-2" d="M5.58,28.73l-3.6-2.08v-4.15l3.6,2.08v4.15ZM2.55,26.32l2.45,1.41v-2.82l-2.45-1.41v2.82Z"/><path class="cls-2" d="M9.85,31.2l-3.6-2.08v-4.15l3.6,2.08v4.15ZM6.82,28.79l2.45,1.41v-2.82l-2.45-1.41v2.82Z"/><path class="cls-2" d="M5.58,23.63l-3.6-2.08v-4.12l3.6,2.08v4.12ZM2.55,21.22l2.45,1.41v-2.79l-2.45-1.41v2.79Z"/><path class="cls-2" d="M9.85,26.1l-3.6-2.08v-4.12l3.6,2.08v4.12ZM6.82,23.69l2.45,1.41v-2.79l-2.45-1.41v2.79Z"/><path class="cls-2" d="M5.58,18.56l-3.6-2.08v-4.12l3.6,2.08v4.12ZM2.55,16.15l2.45,1.41v-2.79l-2.45-1.41v2.79Z"/><path class="cls-2" d="M9.85,21.02l-3.6-2.08v-4.12l3.6,2.08v4.12ZM6.82,18.61l2.45,1.41v-2.79l-2.45-1.41v2.79Z"/><path class="cls-2" d="M14.12,23.49l-3.6-2.08v-4.12l3.6,2.08v4.12ZM11.09,21.08l2.45,1.41v-2.79l-2.45-1.41v2.79Z"/><path class="cls-2" d="M14.12,28.56l-3.6-2.08v-4.12l3.6,2.08v4.12ZM11.09,26.15l2.45,1.41v-2.79l-2.45-1.41v2.79Z"/><path class="cls-2" d="M14.12,33.66l-3.6-2.08v-4.15l3.6,2.08v4.15ZM11.09,31.25l2.45,1.41v-2.82l-2.45-1.41v2.82Z"/><polygon class="cls-2" points="16.34 24.52 15.76 24.52 15.76 18.7 10.72 15.79 11.01 15.29 16.34 18.36 16.34 24.52"/><rect class="cls-2" x="2.06" y="8.24" width=".58" height="4.75" transform="translate(-8.02 7.34) rotate(-60.01)"/><rect class="cls-2" x="15.65" y="16.74" width="5.99" height=".58" transform="translate(-6.02 11.6) rotate(-30)"/><rect class="cls-2" x="27.37" y="10.33" width="4.75" height=".58" transform="translate(-1.32 16.3) rotate(-30)"/><path class="cls-2" d="M16.05,16.58l-3.59-2.07,3.6-2.08,3.59,2.07-3.6,2.08ZM13.61,14.51l2.44,1.41,2.45-1.41-2.44-1.41-2.45,1.41Z"/><path class="cls-2" d="M20.32,14.11l-3.59-2.07,3.6-2.08,3.59,2.07-3.6,2.08ZM17.88,12.04l2.44,1.41,2.45-1.41-2.44-1.41-2.45,1.41Z"/><path class="cls-2" d="M11.63,14.03l-3.57-2.06,3.6-2.08,3.57,2.06-3.6,2.08ZM9.21,11.97l2.42,1.4,2.45-1.41-2.42-1.4-2.45,1.41Z"/><path class="cls-2" d="M15.9,11.57l-3.57-2.06,3.6-2.08,3.57,2.06-3.6,2.08ZM13.48,9.5l2.42,1.4,2.45-1.41-2.42-1.4-2.45,1.41Z"/><path class="cls-2" d="M7.24,11.49l-3.57-2.06,3.6-2.08,3.57,2.06-3.6,2.08ZM4.82,9.43l2.42,1.4,2.45-1.41-2.42-1.4-2.45,1.41Z"/><path class="cls-2" d="M11.51,9.03l-3.57-2.06,3.6-2.08,3.57,2.06-3.6,2.08ZM9.09,6.97l2.42,1.4,2.45-1.41-2.42-1.4-2.45,1.41Z"/><path class="cls-2" d="M15.78,6.56l-3.57-2.06,3.6-2.08,3.57,2.06-3.6,2.08ZM13.36,4.5l2.42,1.4,2.45-1.41-2.42-1.4-2.45,1.41Z"/><path class="cls-2" d="M20.17,9.1l-3.57-2.06,3.6-2.08,3.57,2.06-3.6,2.08ZM17.75,7.04l2.42,1.4,2.45-1.41-2.42-1.4-2.45,1.41Z"/><path class="cls-2" d="M24.59,11.65l-3.59-2.07,3.6-2.08,3.59,2.07-3.6,2.08ZM22.15,9.58l2.44,1.41,2.45-1.41-2.44-1.41-2.45,1.41Z"/><path class="cls-2" d="M26.65,28.73v-4.15l3.6-2.08v4.15l-3.6,2.08ZM27.22,24.92v2.82l2.45-1.41v-2.82l-2.45,1.41Z"/><path class="cls-2" d="M22.38,31.2v-4.15l3.6-2.08v4.15l-3.6,2.08ZM22.95,27.38v2.82l2.45-1.41v-2.82l-2.45,1.41Z"/><path class="cls-2" d="M26.65,23.63v-4.12l3.6-2.08v4.12l-3.6,2.08ZM27.22,19.84v2.79l2.45-1.41v-2.79l-2.45,1.41Z"/><path class="cls-2" d="M22.38,26.1v-4.12l3.6-2.08v4.12l-3.6,2.08ZM22.95,22.31v2.79l2.45-1.41v-2.79l-2.45,1.41Z"/><path class="cls-2" d="M26.65,18.56v-4.12l3.6-2.08v4.12l-3.6,2.08ZM27.22,14.77v2.79l2.45-1.41v-2.79l-2.45,1.41Z"/><path class="cls-2" d="M22.38,21.02v-4.12l3.6-2.08v4.12l-3.6,2.08ZM22.95,17.23v2.79l2.45-1.41v-2.79l-2.45,1.41Z"/><path class="cls-2" d="M18.11,23.49v-4.12l3.6-2.08v4.12l-3.6,2.08ZM18.68,19.7v2.79l2.45-1.41v-2.79l-2.45,1.41Z"/><path class="cls-2" d="M18.11,28.56v-4.12l3.6-2.08v4.12l-3.6,2.08ZM18.68,24.77v2.79l2.45-1.41v-2.79l-2.45,1.41Z"/><path class="cls-2" d="M18.11,33.66v-4.15l3.6-2.08v4.15l-3.6,2.08ZM18.68,29.85v2.82l2.45-1.41v-2.82l-2.45,1.41Z"/><rect class="cls-2" x="15.76" y="31.42" width=".58" height="5.31"/><polygon class="cls-2" points=".58 14.21 0 14.21 0 9.26 4.28 6.79 4.57 7.29 .58 9.6 .58 14.21"/><polygon class="cls-2" points="20.04 2.97 16.05 .67 12.06 2.97 11.77 2.47 16.05 0 20.33 2.47 20.04 2.97"/><polygon class="cls-2" points="4.28 30.27 0 27.79 0 22.85 .58 22.85 .58 27.46 4.57 29.77 4.28 30.27"/><polygon class="cls-2" points="32.09 14.21 31.52 14.21 31.52 9.6 27.53 7.29 27.82 6.79 32.09 9.26 32.09 14.21"/><polygon class="cls-2" points="27.82 30.27 27.53 29.77 31.52 27.46 31.52 22.85 32.09 22.85 32.09 27.79 27.82 30.27"/><polygon class="cls-2" points="16.05 37.06 11.77 34.59 12.06 34.09 16.05 36.39 20.04 34.09 20.33 34.59 16.05 37.06"/><path class="cls-2" d="M44.25,14.05h1.27c2.49,0,4.98,0,7.48,0,1.18,0,1.75.57,1.75,1.75,0,2.01,0,4.03,0,6.04,0,1.08-.52,1.6-1.6,1.6-3.45,0-6.9,0-10.35,0-2.24,0-3.9-1.63-3.9-3.85,0-2.69-.01-5.38,0-8.07,0-2.32,1.63-3.92,3.96-3.93,3.71,0,7.42,0,11.12,0,.19,0,.39,0,.62,0v2.81c-.23,0-.46,0-.69,0-3.63,0-7.26,0-10.88,0-.99,0-1.31.33-1.31,1.33,0,2.53,0,5.06,0,7.59,0,.92.39,1.31,1.3,1.31,2.79,0,5.58,0,8.37,0,.16,0,.31-.01.52-.02v-3.65c-.24,0-.47,0-.7,0-2.11,0-4.23-.01-6.34,0-.47,0-.63-.14-.61-.61.03-.73,0-1.47,0-2.31Z"/><path class="cls-2" d="M93.29,19.39c.04,2.56-1.95,4.1-4.08,4.06-1.77-.03-3.55-.02-5.32,0-2.14.01-3.74-1.69-3.83-3.83-.06-1.43-.01-2.87-.01-4.3,0-1.89,1.5-3.64,3.39-3.74,1.88-.1,3.78-.02,5.72-.02v2.8h-.66c-1.51,0-3.03,0-4.54,0-.69,0-1.09.38-1.1,1.07-.02,1.37-.02,2.75,0,4.12.01.69.48,1.09,1.22,1.09,1.71,0,3.43,0,5.14,0,.88,0,1.23-.36,1.23-1.23,0-3.94,0-7.88,0-11.81h2.82c0,3.93-.04,7.87.02,11.8Z"/><path class="cls-2" d="M63.97,11.53c.96,0,1.91-.02,2.87,0,1.79.05,3.38,1.31,3.53,3.1.16,1.93.15,3.9,0,5.83-.13,1.61-1.9,2.96-3.55,2.97-1.95.02-3.91.05-5.86-.01-1.69-.06-3.67-1.27-3.69-3.89-.01-1.59,0-3.19.06-4.78.07-1.6,1.75-3.14,3.47-3.2,1.05-.04,2.11,0,3.17,0,0,0,0,0,0,0ZM63.93,14.34h0c-.9,0-1.79,0-2.69,0-.76.01-1.11.33-1.12,1.08-.02,1.35-.02,2.71,0,4.06.01.81.37,1.14,1.19,1.14,1.71,0,3.43,0,5.14,0,.78,0,1.23-.37,1.25-1.13.04-1.35.04-2.71,0-4.06-.02-.74-.44-1.09-1.2-1.1-.86,0-1.71,0-2.57,0Z"/><path class="cls-2" d="M78.19,20.63v2.71c-2.8.58-5.26-1.12-5.22-3.94.06-3.94.02-7.88.02-11.82h2.81c0,3.86,0,7.72,0,11.58,0,1.09.37,1.47,1.46,1.47.29,0,.59,0,.93,0Z"/><path class="cls-2" d="M108.19,11.54h2.74v11.85h-2.74v-11.85Z"/><path class="cls-2" d="M106.31,14.32v2.39h-10.27v-2.39h10.27Z"/><rect class="cls-1" x="108.19" y="7.57" width="2.74" height="2.74"/><path class="cls-2" d="M38.85,27.75c0-1.01.77-1.74,1.81-1.74.55,0,1.02.2,1.34.56l-.4.38c-.25-.27-.55-.4-.9-.4-.7,0-1.21.49-1.21,1.19s.51,1.19,1.21,1.19c.35,0,.66-.13.9-.4l.4.39c-.31.37-.79.56-1.34.56-1.03,0-1.8-.73-1.8-1.74Z"/><path class="cls-2" d="M44.95,29.44l-.69-.99s-.09,0-.13,0h-.76v.98h-.63v-3.37h1.39c.89,0,1.44.45,1.44,1.2,0,.51-.26.89-.72,1.07l.78,1.11h-.67ZM44.1,26.59h-.73v1.34h.73c.55,0,.83-.25.83-.67s-.28-.67-.83-.67Z"/><path class="cls-2" d="M47.82,28.24v1.19h-.63v-1.18l-1.33-2.19h.67l.99,1.64,1-1.64h.62l-1.32,2.18Z"/><path class="cls-2" d="M52.47,27.26c0,.74-.55,1.2-1.44,1.2h-.76v.97h-.63v-3.37h1.39c.89,0,1.44.45,1.44,1.2ZM51.84,27.26c0-.42-.28-.67-.83-.67h-.73v1.34h.73c.55,0,.83-.25.83-.67Z"/><path class="cls-2" d="M53.83,26.59h-1.12v-.53h2.86v.53h-1.12v2.84h-.63v-2.84Z"/><path class="cls-2" d="M55.9,27.75c0-1,.77-1.74,1.82-1.74s1.82.73,1.82,1.74-.77,1.74-1.82,1.74-1.82-.74-1.82-1.74ZM58.91,27.75c0-.69-.51-1.19-1.19-1.19s-1.19.5-1.19,1.19.51,1.19,1.19,1.19,1.19-.5,1.19-1.19Z"/><path class="cls-2" d="M64.35,29.49l-.42-.41c-.3.26-.69.4-1.13.4-.71,0-1.23-.37-1.23-.9,0-.42.23-.71.78-1.02-.27-.27-.38-.5-.38-.74,0-.47.39-.8.98-.8.54,0,.9.28.9.74,0,.35-.2.6-.69.87l.73.69c.08-.16.14-.35.19-.57l.49.16c-.06.29-.16.55-.3.77l.42.4-.33.39ZM63.57,28.74l-.89-.85c-.39.22-.53.4-.53.64,0,.28.27.47.68.47.28,0,.53-.09.73-.26ZM62.52,26.81c0,.15.06.26.3.5.39-.21.52-.35.52-.54,0-.19-.14-.32-.39-.32-.27,0-.43.15-.43.36Z"/><path class="cls-2" d="M67.47,26.59v1.03h1.63v.53h-1.63v1.29h-.63v-3.37h2.46v.53h-1.84Z"/><path class="cls-2" d="M72.12,29.44l-.92-1.28-.91,1.28h-.71l1.25-1.72-1.19-1.65h.71l.86,1.2.85-1.2h.68l-1.18,1.63,1.27,1.75h-.72Z"/><path class="cls-2" d="M75.64,26.59h-1.12v-.53h2.86v.53h-1.12v2.84h-.63v-2.84Z"/><path class="cls-2" d="M80.53,28.91v.53h-2.53v-3.37h2.46v.53h-1.84v.88h1.63v.52h-1.63v.93h1.9Z"/><path class="cls-2" d="M81.12,27.75c0-1.01.77-1.74,1.81-1.74.55,0,1.02.2,1.34.56l-.4.38c-.25-.27-.55-.4-.9-.4-.7,0-1.21.49-1.21,1.19s.51,1.19,1.21,1.19c.35,0,.66-.13.9-.4l.4.39c-.31.37-.79.56-1.34.56-1.03,0-1.8-.73-1.8-1.74Z"/><path class="cls-2" d="M88.01,26.06v3.37h-.63v-1.45h-1.75v1.45h-.63v-3.37h.63v1.39h1.75v-1.39h.63Z"/><path class="cls-2" d="M92.06,26.06v3.37h-.52l-1.86-2.29v2.29h-.62v-3.37h.52l1.86,2.29v-2.29h.62Z"/><path class="cls-2" d="M92.87,27.75c0-1,.77-1.74,1.82-1.74s1.82.73,1.82,1.74-.77,1.74-1.82,1.74-1.82-.74-1.82-1.74ZM95.87,27.75c0-.69-.51-1.19-1.19-1.19s-1.19.5-1.19,1.19.51,1.19,1.19,1.19,1.19-.5,1.19-1.19Z"/><path class="cls-2" d="M97.31,26.06h.63v2.84h1.76v.53h-2.39v-3.37Z"/><path class="cls-2" d="M100.04,27.75c0-1,.77-1.74,1.82-1.74s1.82.73,1.82,1.74-.77,1.74-1.82,1.74-1.82-.74-1.82-1.74ZM103.04,27.75c0-.69-.51-1.19-1.19-1.19s-1.19.5-1.19,1.19.51,1.19,1.19,1.19,1.19-.5,1.19-1.19Z"/><path class="cls-2" d="M106.79,27.71h.59v1.34c-.35.28-.84.43-1.32.43-1.05,0-1.82-.73-1.82-1.74s.77-1.74,1.83-1.74c.56,0,1.04.19,1.35.55l-.4.39c-.27-.27-.57-.39-.93-.39-.72,0-1.22.49-1.22,1.19s.51,1.19,1.22,1.19c.24,0,.48-.05.69-.17v-1.05Z"/><path class="cls-2" d="M109.81,28.24v1.19h-.63v-1.18l-1.33-2.19h.67l.99,1.64,1-1.64h.62l-1.32,2.18Z"/></svg>